TemplateFont.glyphspackage
{
glyphname = exclam;
layers = (
{
guides = (
{
pos = (-76,1240);
},
{
pos = (-76,764);
},
{
angle = 90;
pos = (80,0);
},
{
angle = 90;
orientation = center;
pos = (364,516);
}
);
layerId = "5C20EF92-B63D-42A8-8878-93C2863E0093";
shapes = (
{
closed = 1;
nodes = (
(156,1448,l),
(192,452,l),
(514,452,l),
(552,1448,l)
);
},
{
pos = (42,0);
ref = period;
}
);
width = 708;
},
{
guides = (
{
pos = (340,1192);
}
);
layerId = "B1F27B51-9973-4381-9301-4FE46FE1CA59";
shapes = (
{
closed = 1;
nodes = (
(214,1448,l),
(214,430,l),
(260,430,l),
(260,1448,l)
);
},
{
pos = (8,0);
ref = period;
}
);
width = 476;
},
{
layerId = "CD0E3B44-F66A-4791-B84C-A1128DC61275";
shapes = (
{
closed = 1;
nodes = (
(164,1448,l),
(178,408,l),
(346,408,l),
(360,1448,l)
);
},
{
alignment = -1;
pos = (2,0);
ref = period;
}
);
width = 526;
}
);
unicode = 33;
userData = {
"interface.width-adjustments" = (
-16
);
};
}
{
glyphname = numbersign;
layers = (
{
layerId = "5C20EF92-B63D-42A8-8878-93C2863E0093";
shapes = (
{
closed = 1;
nodes = (
(936,0,l),
(1174,1448,l),
(892,1448,l),
(654,0,l)
);
},
{
closed = 1;
nodes = (
(1176,330,l),
(1224,614,l),
(60,614,l),
(12,330,l)
);
},
{
closed = 1;
nodes = (
(428,0,l),
(664,1448,l),
(382,1448,l),
(144,0,l)
);
},
{
closed = 1;
nodes = (
(1258,834,l),
(1306,1118,l),
(142,1118,l),
(94,834,l)
);
}
);
width = 1318;
},
{
layerId = "B1F27B51-9973-4381-9301-4FE46FE1CA59";
shapes = (
{
closed = 1;
nodes = (
(766,0,l),
(1004,1448,l),
(958,1448,l),
(722,0,l)
);
},
{
closed = 1;
nodes = (
(1104,450,l),
(1112,496,l),
(32,496,l),
(22,450,l)
);
},
{
closed = 1;
nodes = (
(258,0,l),
(496,1448,l),
(450,1448,l),
(212,0,l)
);
},
{
closed = 1;
nodes = (
(1186,954,l),
(1194,998,l),
(114,998,l),
(104,954,l)
);
}
);
width = 1216;
},
{
layerId = "CD0E3B44-F66A-4791-B84C-A1128DC61275";
shapes = (
{
closed = 1;
nodes = (
(822,0,l),
(1060,1448,l),
(914,1448,l),
(676,0,l)
);
},
{
closed = 1;
nodes = (
(1100,400,l),
(1124,544,l),
(42,544,l),
(18,400,l)
);
},
{
closed = 1;
nodes = (
(312,0,l),
(550,1448,l),
(404,1448,l),
(166,0,l)
);
},
{
closed = 1;
nodes = (
(1186,904,l),
(1210,1048,l),
(126,1048,l),
(104,904,l)
);
}
);
width = 1228;
}
);
unicode = 35;
userData = {
"interface.width-adjustments" = (
-16
);
};
}
{
glyphname = dollar;
kernLeft = S;
kernRight = S;
layers = (
{
guides = (
{
pos = (-148,2280);
},
{
pos = (-148,764);
}
);
layerId = "5C20EF92-B63D-42A8-8878-93C2863E0093";
shapes = (
{
closed = 1;
nodes = (
(738,-182,l),
(738,1630,l),
(622,1630,l),
(622,-182,l)
);
},
{
ref = S;
}
);
width = 1326;
},
{
layerId = "B1F27B51-9973-4381-9301-4FE46FE1CA59";
shapes = (
{
closed = 1;
nodes = (
(612,-182,l),
(612,1630,l),
(566,1630,l),
(566,-182,l)
);
},
{
alignment = -1;
ref = S;
}
);
width = 1174;
},
{
layerId = "CD0E3B44-F66A-4791-B84C-A1128DC61275";
shapes = (
{
closed = 1;
nodes = (
(678,-182,l),
(678,1630,l),
(562,1630,l),
(562,-182,l)
);
},
{
alignment = -1;
ref = S;
}
);
width = 1244;
}
);
metricLeft = S;
metricRight = S;
unicode = 36;
userData = {
"interface.width-adjustments" = (
-16
);
};
}
{
glyphname = percent;
layers = (
{
layerId = "5C20EF92-B63D-42A8-8878-93C2863E0093";
shapes = (
{
closed = 1;
nodes = (
(770,684,o),
(900,852,o),
(900,1100,cs),
(900,1348,o),
(772,1520,o),
(532,1520,cs),
(302,1520,o),
(166,1348,o),
(166,1100,cs),
(166,856,o),
(296,684,o),
(532,684,cs)
);
},
{
closed = 1;
nodes = (
(460,906,o),
(416,982,o),
(416,1100,cs),
(416,1214,o),
(456,1298,o),
(532,1298,cs),
(614,1298,o),
(652,1218,o),
(652,1100,cs),
(652,982,o),
(612,906,o),
(532,906,cs)
);
},
{
closed = 1;
nodes = (
(1820,-70,o),
(1952,98,o),
(1952,346,cs),
(1952,594,o),
(1822,766,o),
(1582,766,cs),
(1352,766,o),
(1218,594,o),
(1218,346,cs),
(1218,102,o),
(1346,-70,o),
(1582,-70,cs)
);
},
{
closed = 1;
nodes = (
(1510,152,o),
(1466,228,o),
(1466,346,cs),
(1466,460,o),
(1506,544,o),
(1582,544,cs),
(1664,544,o),
(1702,464,o),
(1702,346,cs),
(1702,228,o),
(1662,152,o),
(1582,152,cs)
);
},
{
pos = (784,0);
ref = fraction;
}
);
width = 2118;
},
{
layerId = "B1F27B51-9973-4381-9301-4FE46FE1CA59";
shapes = (
{
closed = 1;
nodes = (
(508,858,o),
(612,970,o),
(612,1162,cs),
(612,1354,o),
(508,1468,o),
(374,1468,cs),
(240,1468,o),
(136,1354,o),
(136,1162,cs),
(136,970,o),
(240,858,o),
(374,858,cs)
);
},
{
closed = 1;
nodes = (
(266,902,o),
(182,996,o),
(182,1162,cs),
(182,1328,o),
(266,1422,o),
(374,1422,cs),
(482,1422,o),
(566,1328,o),
(566,1162,cs),
(566,996,o),
(482,902,o),
(374,902,cs)
);
},
{
closed = 1;
nodes = (
(1254,-20,o),
(1358,94,o),
(1358,286,cs),
(1358,478,o),
(1254,592,o),
(1120,592,cs),
(986,592,o),
(882,478,o),
(882,286,cs),
(882,94,o),
(986,-20,o),
(1120,-20,cs)
);
},
{
closed = 1;
nodes = (
(1012,26,o),
(928,120,o),
(928,286,cs),
(928,452,o),
(1012,546,o),
(1120,546,cs),
(1228,546,o),
(1312,452,o),
(1312,286,cs),
(1312,120,o),
(1228,26,o),
(1120,26,cs)
);
},
{
alignment = -1;
pos = (498,0);
ref = fraction;
}
);
width = 1494;
},
{
layerId = "CD0E3B44-F66A-4791-B84C-A1128DC61275";
shapes = (
{
closed = 1;
nodes = (
(628,774,o),
(732,916,o),
(732,1124,cs),
(732,1328,o),
(632,1470,o),
(442,1470,cs),
(258,1470,o),
(150,1328,o),
(152,1124,cs),
(150,916,o),
(254,774,o),
(442,776,cs)
);
},
{
closed = 1;
nodes = (
(344,900,o),
(298,988,o),
(298,1124,cs),
(298,1256,o),
(346,1344,o),
(442,1346,cs),
(542,1348,o),
(586,1256,o),
(586,1124,cs),
(586,988,o),
(540,900,o),
(442,900,cs)
);
},
{
closed = 1;
nodes = (
(1512,-22,o),
(1614,120,o),
(1614,326,cs),
(1614,532,o),
(1514,674,o),
(1326,674,cs),
(1142,674,o),
(1034,532,o),
(1036,326,cs),
(1034,120,o),
(1138,-22,o),
(1326,-20,cs)
);
},
{
closed = 1;
nodes = (
(1228,104,o),
(1180,192,o),
(1180,326,cs),
(1180,460,o),
(1230,548,o),
(1326,550,cs),
(1426,552,o),
(1468,460,o),
(1468,326,cs),
(1468,192,o),
(1424,104,o),
(1326,104,cs)
);
},
{
alignment = -1;
pos = (616,0);
ref = fraction;
}
);
width = 1766;
}
);
unicode = 37;
userData = {
"interface.width-adjustments" = (
-16
);
};
}
{
glyphname = ampersand;
layers = (
{
layerId = "5C20EF92-B63D-42A8-8878-93C2863E0093";
shapes = (
{
closed = 1;
nodes = (
(688,-22,o),
(818,6,o),
(934,80,c),
(974,100,o),
(1010,116,o),
(1050,136,c),
(1240,268,o),
(1312,504,o),
(1312,756,c),
(1004,756,l),
(1004,482,o),
(786,282,o),
(594,282,cs),
(498,282,o),
(438,330,o),
(438,412,c),
(438,478,o),
(478,516,o),
(524,548,cs),
(824,760,ls),
(948,848,o),
(1016,968,o),
(1016,1104,c),
(1016,1304,o),
(866,1470,o),
(622,1470,cs),
(368,1470,o),
(198,1290,o),
(198,1070,cs),
(198,872,o),
(336,714,o),
(422,622,cs),
(1010,0,l),
(1400,0,l),
(698,772,l),
(594,896,o),
(514,980,o),
(514,1064,cs),
(514,1124,o),
(556,1162,o),
(622,1162,cs),
(694,1162,o),
(726,1120,o),
(726,1074,cs),
(726,1038,o),
(708,992,o),
(642,950,cs),
(314,746,l),
(164,644,o),
(66,546,o),
(66,384,c),
(66,160,o),
(254,-22,o),
(566,-22,c)
);
}
);
width = 1388;
},
{
layerId = "B1F27B51-9973-4381-9301-4FE46FE1CA59";
shapes = (
{
closed = 1;
nodes = (
(654,-20,o),
(798,42,o),
(894,144,cs),
(906,156,o),
(918,170,o),
(928,186,cs),
(990,274,o),
(1040,398,o),
(1060,520,c),
(1016,526,l),
(966,234,o),
(794,32,o),
(512,26,cs),
(308,28,o),
(150,176,o),
(150,362,cs),
(150,478,o),
(210,562,o),
(382,694,cs),
(594,852,ls),
(742,968,o),
(800,1058,o),
(800,1174,cs),
(800,1344,o),
(678,1468,o),
(514,1468,cs),
(348,1468,o),
(206,1326,o),
(206,1162,cs),
(206,1052,o),
(278,966,o),
(410,800,cs),
(1044,0,l),
(1100,0,l),
(444,828,ls),
(312,994,o),
(252,1068,o),
(252,1162,cs),
(252,1300,o),
(372,1422,o),
(514,1422,cs),
(652,1422,o),
(756,1318,o),
(756,1174,cs),
(756,1072,o),
(702,994,o),
(566,888,cs),
(354,730,ls),
(170,588,o),
(104,492,o),
(104,362,cs),
(104,150,o),
(282,-20,o),
(512,-20,cs)
);
}
);
width = 1118;
},
{
layerId = "CD0E3B44-F66A-4791-B84C-A1128DC61275";
shapes = (
{
closed = 1;
nodes = (
(686,-20,o),
(842,30,o),
(936,134,c),
(948,148,o),
(956,162,o),
(968,176,c),
(1024,228,o),
(1148,348,o),
(1148,636,c),
(982,636,l),
(982,326,o),
(760,132,o),
(544,132,cs),
(372,132,o),
(262,250,o),
(262,384,c),
(262,426,o),
(300,526,o),
(428,620,cs),
(716,836,ls),
(834,924,o),
(908,1020,o),
(908,1158,c),
(908,1320,o),
(774,1462,o),
(556,1462,cs),
(342,1462,o),
(204,1328,o),
(204,1132,cs),
(204,960,o),
(324,842,o),
(476,660,cs),
(1026,0,l),
(1232,0,l),
(566,810,ls),
(472,924,o),
(376,1028,o),
(376,1130,cs),
(376,1220,o),
(454,1314,o),
(562,1314,cs),
(666,1314,o),
(736,1230,o),
(736,1158,c),
(736,1060,o),
(682,1008,o),
(602,954,c),
(388,796,l),
(210,674,o),
(86,566,o),
(86,384,c),
(86,150,o),
(262,-20,o),
(548,-20,c)
);
}
);
width = 1248;
}
);
metricLeft = d;
unicode = 38;
userData = {
"interface.width-adjustments" = (
-16
);
};
}
{
glyphname = quotesingle;
kernLeft = quotedbl;
kernRight = quotedbl;
layers = (
{
guides = (
{
pos = (-140,1240);
},
{
pos = (-140,764);
}
);
layerId = "5C20EF92-B63D-42A8-8878-93C2863E0093";
shapes = (
{
closed = 1;
nodes = (
(70,1448,l),
(70,862,l),
(326,862,l),
(326,1448,l)
);
}
);
width = 398;
},
{
layerId = "B1F27B51-9973-4381-9301-4FE46FE1CA59";
shapes = (
{
closed = 1;
nodes = (
(158,1448,l),
(158,996,l),
(204,996,l),
(204,1448,l)
);
}
);
width = 362;
},
{
layerId = "CD0E3B44-F66A-4791-B84C-A1128DC61275";
shapes = (
{
closed = 1;
nodes = (
(126,1448,l),
(126,948,l),
(284,948,l),
(284,1448,l)
);
}
);
width = 412;
}
);
unicode = 39;
userData = {
"interface.width-adjustments" = (
-16
);
};
}
{
glyphname = parenleft;
kernLeft = parenleft;
kernRight = parenleft;
layers = (
{
guides = (
{
pos = (1172,1640);
},
{
pos = (880,1752);
},
{
angle = 90;
pos = (440,1692);
},
{
angle = 90;
pos = (732,1584);
}
);
layerId = "5C20EF92-B63D-42A8-8878-93C2863E0093";
shapes = (
{
closed = 1;
nodes = (
(142,176,o),
(270,-136,o),
(466,-408,c),
(848,-408,l),
(708,-206,o),
(550,192,o),
(550,552,cs),
(550,912,o),
(708,1308,o),
(848,1510,c),
(466,1510,l),
(270,1238,o),
(142,928,o),
(142,552,cs)
);
}
);
width = 876;
},
{
guides = (
{
angle = 90;
pos = (524,2760);
},
{
orientation = center;
pos = (276,1448);
},
{
pos = (592,2728);
},
{
pos = (616,168);
}
);
layerId = "B1F27B51-9973-4381-9301-4FE46FE1CA59";
shapes = (
{
closed = 1;
nodes = (
(192,204,o),
(278,-128,o),
(426,-408,c),
(476,-408,l),
(324,-128,o),
(238,200,o),
(238,552,cs),
(238,902,o),
(322,1228,o),
(476,1510,c),
(426,1510,l),
(278,1232,o),
(192,904,o),
(192,552,cs)
);
}
);
width = 582;
},
{
layerId = "CD0E3B44-F66A-4791-B84C-A1128DC61275";
shapes = (
{
closed = 1;
nodes = (
(184,174,o),
(286,-140,o),
(470,-408,c),
(622,-408,l),
(486,-210,o),
(360,196,o),
(360,552,cs),
(360,908,o),
(486,1312,o),
(622,1510,c),
(470,1510,l),
(286,1242,o),
(184,930,o),
(182,552,cs)
);
}
);
width = 698;
}
);
unicode = 40;
userData = {
com.typemytype.robofont.guideline.magnetic.6H1sRKKBfi = 5;
com.typemytype.robofont.guideline.magnetic.IYaB9kRuJP = 5;
com.typemytype.robofont.guideline.magnetic.PK9Z25O3at = 5;
com.typemytype.robofont.guideline.magnetic.pOwuJlK9ke = 5;
"interface.width-adjustments" = (
-16
);
};
}
{
glyphname = asterisk;
kernLeft = asciicircum;
kernRight = asciicircum;
layers = (
{
guides = (
{
pos = (-124,1240);
},
{
pos = (-124,764);
},
{
angle = 90;
orientation = center;
pos = (752,1752);
},
{
angle = -30;
pos = (708,1472);
},
{
angle = 30;
pos = (708,1472);
},
{
angle = 60;
pos = (708,1472);
},
{
angle = -60;
pos = (708,1472);
}
);
layerId = "5C20EF92-B63D-42A8-8878-93C2863E0093";
shapes = (
{
closed = 1;
nodes = (
(696,886,l),
(902,740,l),
(1016,936,l),
(788,1040,l),
(1016,1146,l),
(902,1342,l),
(696,1198,l),
(718,1448,l),
(492,1448,l),
(514,1198,l),
(308,1342,l),
(196,1146,l),
(424,1040,l),
(196,936,l),
(308,740,l),
(514,886,l),
(492,634,l),
(718,634,l)
);
}
);
width = 1210;
},
{
guides = (
{
angle = 30;
pos = (568,2056);
},
{
orientation = center;
pos = (648,2056);
},
{
angle = -30;
pos = (568,2056);
}
);
layerId = "B1F27B51-9973-4381-9301-4FE46FE1CA59";
shapes = (
{
closed = 1;
nodes = (
(498,1002,l),
(818,818,l),
(840,858,l),
(520,1040,l),
(840,1224,l),
(818,1264,l),
(498,1080,l),
(498,1448,l),
(452,1448,l),
(452,1080,l),
(132,1264,l),
(110,1224,l),
(430,1040,l),
(110,858,l),
(132,818,l),
(452,1002,l),
(452,634,l),
(498,634,l)
);
}
);
width = 950;
},
{
layerId = "CD0E3B44-F66A-4791-B84C-A1128DC61275";
shapes = (
{
closed = 1;
nodes = (
(538,944,l),
(802,778,l),
(870,896,l),
(596,1040,l),
(870,1186,l),
(802,1304,l),
(538,1138,l),
(550,1448,l),
(414,1448,l),
(426,1138,l),
(162,1304,l),
(94,1186,l),
(370,1040,l),
(94,896,l),
(162,778,l),
(426,944,l),
(414,634,l),
(550,634,l)
);
}
);
width = 964;
}
);
unicode = 42;
userData = {
com.typemytype.robofont.guideline.magnetic.x5LXEmmtln = 5;
"interface.width-adjustments" = (
-16
);
};
}
{
glyphname = plus;
kernLeft = hyphen;
kernRight = hyphen;
layers = (
{
guides = (
{
orientation = center;
pos = (260,832);
}
);
layerId = "5C20EF92-B63D-42A8-8878-93C2863E0093";
shapes = (
{
closed = 1;
nodes = (
(848,66,l),
(848,1112,l),
(532,1112,l),
(532,66,l)
);
},
{
closed = 1;
nodes = (
(1214,430,l),
(1214,746,l),
(166,746,l),
(166,430,l)
);
}
);
width = 1380;
},
{
guides = (
{
pos = (132,1384);
}
);
layerId = "B1F27B51-9973-4381-9301-4FE46FE1CA59";
shapes = (
{
closed = 1;
nodes = (
(634,156,l),
(634,976,l),
(588,976,l),
(588,156,l)
);
},
{
closed = 1;
nodes = (
(1022,544,l),
(1022,588,l),
(200,588,l),
(200,544,l)
);
}
);
width = 1222;
},
{
layerId = "CD0E3B44-F66A-4791-B84C-A1128DC61275";
shapes = (
{
closed = 1;
nodes = (
(722,98,l),
(722,1034,l),
(560,1034,l),
(560,98,l)
);
},
{
closed = 1;
nodes = (
(1110,486,l),
(1110,648,l),
(174,648,l),
(174,486,l)
);
}
);
width = 1284;
}
);
unicode = 43;
userData = {
com.typemytype.robofont.guideline.magnetic.vWa5hxe2x0 = 5;
"interface.width-adjustments" = (
-16
);
};
}
{
glyphname = hyphen;
kernLeft = hyphen;
kernRight = hyphen;
layers = (
{
guides = (
{
orientation = center;
pos = (956,816);
}
);
layerId = "5C20EF92-B63D-42A8-8878-93C2863E0093";
shapes = (
{
closed = 1;
nodes = (
(132,724,l),
(132,430,l),
(812,430,l),
(812,724,l)
);
}
);
width = 944;
},
{
guides = (
{
orientation = center;
pos = (966,1462);
}
);
layerId = "B1F27B51-9973-4381-9301-4FE46FE1CA59";
shapes = (
{
closed = 1;
nodes = (
(144,644,l),
(144,598,l),
(684,598,l),
(684,644,l)
);
}
);
width = 828;
},
{
layerId = "CD0E3B44-F66A-4791-B84C-A1128DC61275";
shapes = (
{
closed = 1;
nodes = (
(126,698,l),
(126,540,l),
(760,540,l),
(760,698,l)
);
}
);
width = 886;
}
);
unicode = 45;
userData = {
"interface.width-adjustments" = (
-16
);
};
}
{
glyphname = period;
kernLeft = comma;
kernRight = comma;
layers = (
{
guides = (
{
pos = (-132,1240);
},
{
pos = (-132,764);
}
);
layerId = "5C20EF92-B63D-42A8-8878-93C2863E0093";
shapes = (
{
closed = 1;
nodes = (
(416,-22,o),
(508,66,o),
(510,176,cs),
(508,284,o),
(416,370,o),
(312,370,cs),
(202,370,o),
(112,284,o),
(114,176,cs),
(112,66,o),
(202,-22,o),
(312,-22,cs)
);
}
);
width = 622;
},
{
layerId = "B1F27B51-9973-4381-9301-4FE46FE1CA59";
shapes = (
{
closed = 1;
nodes = (
(258,-8,o),
(280,14,o),
(280,42,cs),
(280,70,o),
(258,94,o),
(230,94,cs),
(202,94,o),
(178,70,o),
(178,42,cs),
(178,14,o),
(202,-8,o),
(230,-8,cs)
);
}
);
width = 458;
},
{
layerId = "CD0E3B44-F66A-4791-B84C-A1128DC61275";
shapes = (
{
closed = 1;
nodes = (
(330,-12,o),
(388,48,o),
(388,118,cs),
(388,188,o),
(330,246,o),
(260,246,cs),
(190,246,o),
(130,188,o),
(132,118,cs),
(130,48,o),
(190,-12,o),
(260,-12,cs)
);
}
);
width = 520;
}
);
unicode = 46;
userData = {
"interface.width-adjustments" = (
-16
);
};
}
{
glyphname = slash;
kernLeft = slash;
kernRight = slash;
layers = (
{
guides = (
{
pos = (-136,1240);
},
{
pos = (-136,764);
}
);
layerId = "5C20EF92-B63D-42A8-8878-93C2863E0093";
shapes = (
{
closed = 1;
nodes = (
(478,1516,l),
(12,-218,l),
(342,-218,l),
(810,1516,l)
);
}
);
width = 820;
},
{
layerId = "B1F27B51-9973-4381-9301-4FE46FE1CA59";
shapes = (
{
closed = 1;
nodes = (
(510,1516,l),
(42,-218,l),
(90,-218,l),
(558,1516,l)
);
}
);
width = 598;
},
{
layerId = "CD0E3B44-F66A-4791-B84C-A1128DC61275";
shapes = (
{
closed = 1;
nodes = (
(496,1516,l),
(30,-218,l),
(186,-218,l),
(654,1516,l)
);
}
);
width = 684;
}
);
unicode = 47;
userData = {
"interface.width-adjustments" = (
-16
);
};
}
{
glyphname = zero;
kernLeft = six;
kernRight = nine;
layers = (
{
guides = (
{
pos = (-112,1240);
},
{
pos = (-112,764);
}
);
layerId = "5C20EF92-B63D-42A8-8878-93C2863E0093";
shapes = (
{
closed = 1;
nodes = (
(1120,-20,o),
(1366,246,o),
(1366,724,cs),
(1366,1198,o),
(1120,1468,o),
(726,1468,cs),
(332,1468,o),
(88,1200,o),
(88,724,cs),
(88,248,o),
(332,-20,o),
(726,-20,cs)
);
},
{
closed = 1;
nodes = (
(590,296,o),
(494,420,o),
(496,724,cs),
(498,1020,o),
(590,1152,o),
(726,1152,cs),
(862,1152,o),
(958,1020,o),
(958,724,cs),
(958,420,o),
(862,296,o),
(726,296,cs)
);
}
);
width = 1454;
},
{
guides = (
{
pos = (712,2628);
},
{
pos = (712,588);
}
);
layerId = "B1F27B51-9973-4381-9301-4FE46FE1CA59";
shapes = (
{
closed = 1;
nodes = (
(842,-20,o),
(1010,262,o),
(1010,724,cs),
(1010,1186,o),
(842,1468,o),
(566,1468,cs),
(290,1468,o),
(122,1186,o),
(122,724,cs),
(122,262,o),
(290,-20,o),
(566,-20,cs)
);
},
{
closed = 1;
nodes = (
(320,26,o),
(166,288,o),
(166,724,cs),
(166,1160,o),
(320,1422,o),
(566,1422,cs),
(812,1422,o),
(964,1160,o),
(964,724,cs),
(964,288,o),
(812,26,o),
(566,26,cs)
);
}
);
width = 1130;
},
{
layerId = "CD0E3B44-F66A-4791-B84C-A1128DC61275";
shapes = (
{
closed = 1;
nodes = (
(932,-20,o),
(1116,250,o),
(1116,724,cs),
(1116,1194,o),
(928,1468,o),
(610,1468,cs),
(292,1468,o),
(104,1194,o),
(104,724,cs),
(104,250,o),
(288,-20,o),
(610,-20,cs)
);
},
{
closed = 1;
nodes = (
(400,140,o),
(278,350,o),
(278,724,cs),
(278,1098,o),
(402,1312,o),
(610,1312,cs),
(818,1312,o),
(940,1098,o),
(940,724,cs),
(940,350,o),
(820,140,o),
(610,140,cs)
);
}
);
width = 1220;
}
);
metricLeft = O;
metricRight = O;
unicode = 48;
}
{
glyphname = one;
kernLeft = one;
kernRight = one;
layers = (
{
guides = (
{
pos = (-92,1240);
},
{
pos = (-92,764);
}
);
layerId = "5C20EF92-B63D-42A8-8878-93C2863E0093";
shapes = (
{
closed = 1;
nodes = (
(444,1448,l),
(88,1230,l),
(88,896,l),
(404,1086,l),
(412,1086,l),
(412,0,l),
(806,0,l),
(806,1448,l)
);
}
);
width = 1008;
},
{
layerId = "B1F27B51-9973-4381-9301-4FE46FE1CA59";
shapes = (
{
closed = 1;
nodes = (
(430,1448,l),
(118,1248,l),
(118,1194,l),
(438,1400,l),
(446,1400,l),
(446,0,l),
(492,0,l),
(492,1448,l)
);
}
);
width = 776;
},
{
layerId = "CD0E3B44-F66A-4791-B84C-A1128DC61275";
shapes = (
{
closed = 1;
nodes = (
(466,1448,l),
(106,1208,l),
(106,1026,l),
(458,1260,l),
(466,1260,l),
(466,0,l),
(648,0,l),
(648,1448,l)
);
}
);
width = 898;
}
);
unicode = 49;
}
{
glyphname = two;
kernLeft = two;
kernRight = two;
layers = (
{
anchors = (
{
name = cross;
pos = (872,794);
}
);
guides = (
{
pos = (-164,2280);
},
{
pos = (-164,764);
}
);
layerId = "5C20EF92-B63D-42A8-8878-93C2863E0093";
shapes = (
{
closed = 1;
nodes = (
(1208,0,l),
(1208,314,l),
(642,314,l),
(642,322,l),
(778,436,ls),
(1108,712,o),
(1192,854,o),
(1192,1022,cs),
(1192,1292,o),
(972,1468,o),
(624,1468,cs),
(286,1468,o),
(68,1280,o),
(68,976,c),
(442,976,l),
(442,1098,o),
(516,1166,o),
(624,1166,cs),
(732,1166,o),
(810,1100,o),
(810,988,cs),
(810,886,o),
(742,818,o),
(636,730,cs),
(96,282,l),
(96,0,l)
);
}
);
width = 1288;
},
{
anchors = (
{
name = cross;
pos = (788,724);
}
);
layerId = "B1F27B51-9973-4381-9301-4FE46FE1CA59";
shapes = (
{
closed = 1;
nodes = (
(1060,0,l),
(1060,46,l),
(234,46,l),
(234,50,l),
(674,558,ls),
(904,822,o),
(974,934,o),
(974,1094,cs),
(974,1308,o),
(806,1468,o),
(584,1468,cs),
(352,1468,o),
(188,1296,o),
(188,1086,c),
(234,1086,l),
(234,1270,o),
(376,1422,o),
(584,1422,cs),
(782,1422,o),
(928,1284,o),
(928,1094,cs),
(928,950,o),
(864,844,o),
(640,586,cs),
(162,36,l),
(162,0,l)
);
}
);
width = 1216;
},
{
anchors = (
{
name = cross;
pos = (822,748);
}
);
layerId = "CD0E3B44-F66A-4791-B84C-A1128DC61275";
shapes = (
{
closed = 1;
nodes = (
(1076,0,l),
(1076,160,l),
(386,160,l),
(386,172,l),
(718,514,ls),
(976,778,o),
(1048,904,o),
(1050,1066,cs),
(1048,1292,o),
(864,1468,o),
(600,1468,cs),
(338,1468,o),
(140,1296,o),
(142,1040,c),
(312,1040,l),
(312,1202,o),
(422,1312,o),
(594,1312,cs),
(756,1312,o),
(880,1216,o),
(882,1066,cs),
(880,934,o),
(800,834,o),
(628,652,cs),
(134,132,l),
(136,0,l)
);
}
);
width = 1202;
}
);
unicode = 50;
}
{
glyphname = three;
kernLeft = three;
kernRight = eight;
layers = (
{
guides = (
{
pos = (184,1436);
},
{
pos = (572,1056);
},
{
pos = (184,624);
}
);
layerId = "5C20EF92-B63D-42A8-8878-93C2863E0093";
shapes = (
{
closed = 1;
nodes = (
(1016,-20,o),
(1266,160,o),
(1264,416,cs),
(1266,594,o),
(1148,718,o),
(914,744,c),
(914,756,l),
(1086,774,o),
(1212,884,o),
(1210,1046,cs),
(1212,1290,o),
(986,1468,o),
(664,1468,cs),
(336,1468,o),
(104,1282,o),
(102,1016,c),
(478,1016,l),
(480,1104,o),
(556,1166,o),
(664,1166,cs),
(764,1166,o),
(834,1106,o),
(832,1022,cs),
(834,934,o),
(752,872,o),
(634,872,cs),
(486,872,l),
(486,600,l),
(634,600,ls),
(762,600,o),
(850,538,o),
(848,450,cs),
(850,360,o),
(772,298,o),
(664,298,cs),
(550,298,o),
(472,358,o),
(470,442,c),
(74,442,l),
(76,172,o),
(320,-20,o),
(662,-20,cs)
);
}
);
width = 1344;
},
{
layerId = "B1F27B51-9973-4381-9301-4FE46FE1CA59";
shapes = (
{
closed = 1;
nodes = (
(868,-20,o),
(1048,154,o),
(1050,376,cs),
(1048,560,o),
(924,698,o),
(730,746,c),
(730,752,l),
(898,798,o),
(1008,928,o),
(1008,1098,cs),
(1008,1310,o),
(840,1468,o),
(606,1468,cs),
(372,1468,o),
(200,1310,o),
(200,1086,c),
(246,1086,l),
(246,1284,o),
(396,1422,o),
(606,1422,cs),
(816,1422,o),
(962,1284,o),
(962,1098,cs),
(962,898,o),
(788,770,o),
(564,770,cs),
(542,770,l),
(542,724,l),
(564,724,ls),
(820,724,o),
(1006,584,o),
(1006,376,cs),
(1006,182,o),
(844,26,o),
(608,26,cs),
(384,26,o),
(210,166,o),
(210,362,c),
(164,362,l),
(166,142,o),
(356,-20,o),
(608,-20,cs)
);
}
);
width = 1204;
},
{
layerId = "CD0E3B44-F66A-4791-B84C-A1128DC61275";
shapes = (
{
closed = 1;
nodes = (
(924,-20,o),
(1142,156,o),
(1140,394,cs),
(1142,580,o),
(1026,714,o),
(838,742,c),
(838,752,l),
(990,794,o),
(1086,916,o),
(1084,1080,cs),
(1086,1288,o),
(918,1468,o),
(642,1468,cs),
(384,1468,o),
(170,1314,o),
(162,1084,c),
(336,1084,l),
(344,1226,o),
(486,1312,o),
(640,1312,cs),
(806,1312,o),
(910,1214,o),
(910,1070,cs),
(910,920,o),
(788,822,o),
(612,822,cs),
(494,822,l),
(494,664,l),
(612,664,ls),
(838,664,o),
(964,550,o),
(964,394,cs),
(964,242,o),
(824,140,o),
(634,140,cs),
(462,140,o),
(324,226,o),
(314,364,c),
(132,364,l),
(142,134,o),
(348,-20,o),
(636,-20,cs)
);
}
);
width = 1264;
}
);
unicode = 51;
}
{
glyphname = four;
kernLeft = four;
kernRight = four;
layers = (
{
guides = (
{
pos = (-44,320);
},
{
pos = (-44,752);
}
);
layerId = "5C20EF92-B63D-42A8-8878-93C2863E0093";
shapes = (
{
closed = 1;
nodes = (
(1330,226,l),
(1330,532,l),
(470,532,l),
(470,544,l),
(784,1040,l),
(942,1040,l),
(942,1448,l),
(664,1448,l),
(82,532,l),
(82,226,l)
);
},
{
closed = 1;
nodes = (
(1162,0,l),
(1162,1448,l),
(794,1448,l),
(794,452,l),
(786,320,l),
(786,0,l)
);
}
);
width = 1398;
},
{
layerId = "B1F27B51-9973-4381-9301-4FE46FE1CA59";
shapes = (
{
closed = 1;
nodes = (
(1042,340,l),
(1042,384,l),
(190,384,l),
(190,390,l),
(804,1354,l),
(838,1354,l),
(838,1448,l),
(810,1448,l),
(124,374,l),
(124,340,l)
);
},
{
closed = 1;
nodes = (
(856,0,l),
(856,1448,l),
(810,1448,l),
(810,368,l),
(810,354,l),
(810,0,l)
);
}
);
width = 1166;
},
{
layerId = "CD0E3B44-F66A-4791-B84C-A1128DC61275";
shapes = (
{
closed = 1;
nodes = (
(1176,296,l),
(1176,454,l),
(294,454,l),
(294,466,l),
(784,1220,l),
(860,1220,l),
(860,1448,l),
(752,1448,l),
(100,444,l),
(100,296,l)
);
},
{
closed = 1;
nodes = (
(974,0,l),
(974,1448,l),
(802,1448,l),
(802,410,l),
(802,340,l),
(802,0,l)
);
}
);
width = 1278;
}
);
unicode = 52;
}
{
glyphname = five;
layers = (
{
guides = (
{
pos = (-200,2280);
},
{
pos = (-200,2396);
},
{
angle = 90;
pos = (116,0);
}
);
layerId = "5C20EF92-B63D-42A8-8878-93C2863E0093";
shapes = (
{
closed = 1;
nodes = (
(1028,-20,o),
(1258,194,o),
(1258,498,cs),
(1258,774,o),
(1068,968,o),
(810,968,cs),
(662,968,o),
(544,902,o),
(498,814,c),
(490,814,l),
(518,1134,l),
(1168,1134,l),
(1168,1448,l),
(196,1448,l),
(134,582,l),
(484,582,l),
(518,652,o),
(578,696,o),
(676,696,cs),
(796,696,o),
(880,612,o),
(880,486,cs),
(880,360,o),
(796,278,o),
(676,278,cs),
(572,278,o),
(486,342,o),
(484,442,c),
(102,442,l),
(104,172,o),
(342,-20,o),
(676,-20,cs)
);
}
);
width = 1332;
},
{
guides = (
{
angle = 90;
pos = (1196,2240);
}
);
layerId = "B1F27B51-9973-4381-9301-4FE46FE1CA59";
shapes = (
{
closed = 1;
nodes = (
(806,-20,o),
(992,180,o),
(994,450,cs),
(996,730,o),
(786,914,o),
(542,914,cs),
(420,914,o),
(296,870,o),
(236,784,c),
(230,784,l),
(312,1404,l),
(944,1404,l),
(944,1448,l),
(272,1448,l),
(178,726,l),
(236,728,l),
(302,820,o),
(414,868,o),
(542,868,cs),
(760,868,o),
(948,706,o),
(950,450,cs),
(952,210,o),
(784,26,o),
(544,26,cs),
(330,26,o),
(188,164,o),
(190,362,c),
(144,362,l),
(142,138,o),
(308,-20,o),
(544,-20,cs)
);
}
);
width = 1130;
},
{
layerId = "CD0E3B44-F66A-4791-B84C-A1128DC61275";
shapes = (
{
closed = 1;
nodes = (
(896,-20,o),
(1108,182,o),
(1108,462,cs),
(1108,744,o),
(904,948,o),
(628,948,cs),
(526,948,o),
(428,914,o),
(364,864,c),
(350,864,l),
(404,1288,l),
(1038,1288,l),
(1038,1448,l),
(254,1448,l),
(152,656,l),
(326,656,l),
(380,750,o),
(474,788,o),
(596,786,cs),
(792,784,o),
(932,646,o),
(932,458,cs),
(932,276,o),
(796,138,o),
(608,138,cs),
(452,138,o),
(324,236,o),
(312,364,c),
(138,364,l),
(150,142,o),
(346,-20,o),
(608,-20,cs)
);
}
);
width = 1222;
}
);
unicode = 53;
}
{
glyphname = six;
kernLeft = six;
layers = (
{
guides = (
{
orientation = center;
pos = (1348,1368);
},
{
angle = 90;
pos = (1492,1316);
},
{
angle = 90;
pos = (-32,1316);
},
{
pos = (168,1436);
},
{
angle = 90;
pos = (848,576);
}
);
layerId = "5C20EF92-B63D-42A8-8878-93C2863E0093";
shapes = (
{
closed = 1;
nodes = (
(1044,-20,o),
(1284,186,o),
(1282,498,cs),
(1284,764,o),
(1104,956,o),
(842,956,cs),
(676,956,o),
(528,876,o),
(472,744,c),
(464,744,l),
(466,978,o),
(538,1134,o),
(704,1134,cs),
(786,1134,o),
(858,1098,o),
(876,1016,c),
(1264,1016,l),
(1240,1264,o),
(1024,1468,o),
(704,1468,cs),
(324,1468,o),
(76,1178,o),
(74,708,cs),
(72,182,o),
(364,-20,o),
(702,-20,cs)
);
},
{
closed = 1;
nodes = (
(584,278,o),
(500,364,o),
(498,484,cs),
(500,604,o),
(584,690,o),
(698,690,cs),
(816,690,o),
(902,604,o),
(900,484,cs),
(902,364,o),
(816,278,o),
(698,278,cs)
);
}
);
width = 1364;
},
{
layerId = "B1F27B51-9973-4381-9301-4FE46FE1CA59";
shapes = (
{
closed = 1;
nodes = (
(842,-20,o),
(1016,190,o),
(1016,432,cs),
(1016,690,o),
(818,886,o),
(580,886,cs),
(404,886,o),
(240,780,o),
(192,636,c),
(184,636,l),
(184,1144,o),
(324,1422,o),
(604,1422,cs),
(804,1422,o),
(930,1284,o),
(944,1086,c),
(988,1086,l),
(972,1314,o),
(828,1468,o),
(604,1468,cs),
(240,1468,o),
(138,1046,o),
(138,656,cs),
(138,200,o),
(332,-20,o),
(588,-20,cs)
);
},
{
closed = 1;
nodes = (
(400,26,o),
(256,158,o),
(206,412,cs),
(162,640,o),
(344,840,o),
(578,840,cs),
(798,840,o),
(970,660,o),
(970,432,cs),
(970,210,o),
(810,26,o),
(588,26,cs)
);
}
);
width = 1154;
},
{
layerId = "CD0E3B44-F66A-4791-B84C-A1128DC61275";
shapes = (
{
closed = 1;
nodes = (
(946,-22,o),
(1144,196,o),
(1144,468,cs),
(1144,748,o),
(930,948,o),
(672,948,cs),
(516,948,o),
(384,878,o),
(300,756,c),
(282,756,l),
(282,1106,o),
(424,1308,o),
(662,1308,cs),
(824,1308,o),
(922,1212,o),
(954,1084,c),
(1132,1084,l),
(1096,1310,o),
(916,1468,o),
(662,1468,cs),
(322,1468,o),
(112,1180,o),
(112,668,cs),
(112,130,o),
(390,-18,o),
(640,-20,cs)
);
},
{
closed = 1;
nodes = (
(446,138,o),
(306,294,o),
(306,464,cs),
(308,636,o),
(454,790,o),
(644,790,cs),
(832,790,o),
(968,642,o),
(970,466,cs),
(968,284,o),
(828,138,o),
(640,138,cs)
);
}
);
width = 1256;
}
);
unicode = 54;
}
{
glyphname = seven;
kernRight = seven;
layers = (
{
layerId = "5C20EF92-B63D-42A8-8878-93C2863E0093";
shapes = (
{
closed = 1;
nodes = (
(566,0,l),
(1138,1134,l),
(1138,1448,l),
(62,1448,l),
(62,1134,l),
(730,1134,l),
(730,1126,l),
(162,0,l)
);
}
);
width = 1216;
},
{
layerId = "B1F27B51-9973-4381-9301-4FE46FE1CA59";
shapes = (
{
closed = 1;
nodes = (
(248,0,l),
(958,1404,l),
(958,1448,l),
(94,1448,l),
(94,1404,l),
(904,1404,l),
(902,1398,l),
(198,0,l)
);
}
);
width = 1070;
},
{
layerId = "CD0E3B44-F66A-4791-B84C-A1128DC61275";
shapes = (
{
closed = 1;
nodes = (
(370,0,l),
(1032,1280,l),
(1032,1448,l),
(80,1448,l),
(80,1288,l),
(846,1288,l),
(846,1278,l),
(182,0,l)
);
}
);
width = 1130;
}
);
unicode = 55;
}
{
glyphname = eight;
kernLeft = eight;
kernRight = eight;
layers = (
{
guides = (
{
pos = (-172,1480);
},
{
pos = (-172,1060);
},
{
pos = (60,588);
},
{
pos = (-172,2076);
},
{
angle = 90;
orientation = center;
pos = (860,508);
},
{
angle = 90;
pos = (1208,508);
},
{
angle = 90;
pos = (440,508);
}
);
layerId = "5C20EF92-B63D-42A8-8878-93C2863E0093";
shapes = (
{
closed = 1;
nodes = (
(1038,-20,o),
(1296,160,o),
(1296,394,cs),
(1296,572,o),
(1144,716,o),
(958,744,c),
(958,756,l),
(1120,784,o),
(1242,912,o),
(1242,1074,cs),
(1242,1300,o),
(1008,1468,o),
(688,1468,cs),
(368,1468,o),
(132,1302,o),
(132,1074,cs),
(132,912,o),
(252,784,o),
(416,756,c),
(416,744,l),
(228,716,o),
(80,572,o),
(80,394,cs),
(80,160,o),
(338,-20,o),
(688,-20,cs)
);
},
{
closed = 1;
nodes = (
(576,264,o),
(496,338,o),
(496,438,cs),
(496,538,o),
(576,612,o),
(688,612,cs),
(800,612,o),
(880,538,o),
(880,438,cs),
(880,336,o),
(800,264,o),
(688,264,cs)
);
},
{
closed = 1;
nodes = (
(590,872,o),
(518,940,o),
(518,1030,cs),
(518,1120,o),
(590,1186,o),
(688,1186,cs),
(786,1186,o),
(858,1120,o),
(858,1030,cs),
(858,938,o),
(786,872,o),
(688,872,cs)
);
}
);
width = 1374;
},
{
layerId = "B1F27B51-9973-4381-9301-4FE46FE1CA59";
shapes = (
{
closed = 1;
nodes = (
(858,-20,o),
(1070,156,o),
(1070,374,cs),
(1070,546,o),
(938,708,o),
(752,746,c),
(752,752,l),
(912,802,o),
(1018,942,o),
(1020,1100,cs),
(1018,1308,o),
(828,1468,o),
(598,1468,cs),
(366,1468,o),
(178,1306,o),
(178,1100,cs),
(178,940,o),
(290,804,o),
(446,752,c),
(446,746,l),
(260,704,o),
(128,546,o),
(128,374,cs),
(128,156,o),
(338,-20,o),
(598,-20,cs)
);
},
{
closed = 1;
nodes = (
(362,26,o),
(174,184,o),
(174,376,cs),
(174,568,o),
(360,726,o),
(598,726,cs),
(838,726,o),
(1024,568,o),
(1024,376,cs),
(1024,184,o),
(838,26,o),
(598,26,cs)
);
},
{
closed = 1;
nodes = (
(392,766,o),
(224,920,o),
(224,1100,cs),
(224,1282,o),
(392,1422,o),
(598,1422,cs),
(806,1422,o),
(974,1282,o),
(974,1100,cs),
(974,920,o),
(806,766,o),
(598,766,cs)
);
}
);
width = 1198;
},
{
layerId = "CD0E3B44-F66A-4791-B84C-A1128DC61275";
shapes = (
{
closed = 1;
nodes = (
(922,-20,o),
(1134,148,o),
(1136,384,cs),
(1134,570,o),
(1004,726,o),
(840,752,c),
(840,760,l),
(982,794,o),
(1078,928,o),
(1080,1084,cs),
(1078,1306,o),
(884,1468,o),
(620,1468,cs),
(354,1468,o),
(162,1306,o),
(162,1084,cs),
(162,928,o),
(256,794,o),
(400,760,c),
(400,752,l),
(234,726,o),
(104,570,o),
(106,384,cs),
(104,148,o),
(314,-20,o),
(620,-20,cs)
);
},
{
closed = 1;
nodes = (
(410,138,o),
(284,242,o),
(286,394,cs),
(284,554,o),
(424,672,o),
(620,672,cs),
(814,672,o),
(956,554,o),
(956,394,cs),
(956,242,o),
(826,138,o),
(620,138,cs)
);
},
{
closed = 1;
nodes = (
(454,824,o),
(336,922,o),
(336,1070,cs),
(336,1214,o),
(448,1312,o),
(620,1312,cs),
(788,1312,o),
(904,1214,o),
(904,1070,cs),
(904,922,o),
(784,824,o),
(620,824,cs)
);
}
);
width = 1242;
}
);
unicode = 56;
}
{
glyphname = nine;
kernRight = nine;
layers = (
{
guides = (
{
pos = (-136,764);
},
{
pos = (-136,1240);
}
);
layerId = "5C20EF92-B63D-42A8-8878-93C2863E0093";
shapes = (
{
closed = 1;
nodes = (
(318,1468,o),
(80,1262,o),
(82,954,cs),
(84,690,o),
(258,498,o),
(520,498,cs),
(686,498,o),
(836,578,o),
(892,710,c),
(900,710,l),
(898,470,o),
(826,314,o),
(660,314,cs),
(576,314,o),
(504,350,o),
(486,438,c),
(100,438,l),
(124,184,o),
(338,-20,o),
(660,-20,cs),
(1040,-20,o),
(1292,270,o),
(1290,746,cs),
(1288,1266,o),
(1000,1468,o),
(662,1468,cs)
);
},
{
closed = 1;
nodes = (
(778,1172,o),
(864,1084,o),
(866,968,cs),
(868,852,o),
(778,764,o),
(664,764,cs),
(546,764,o),
(466,852,o),
(464,968,cs),
(462,1084,o),
(546,1172,o),
(664,1172,cs)
);
}
);
width = 1364;
},
{
layerId = "B1F27B51-9973-4381-9301-4FE46FE1CA59";
shapes = (
{
closed = 1;
nodes = (
(310,1468,o),
(138,1260,o),
(138,1018,cs),
(138,760,o),
(334,566,o),
(574,566,cs),
(748,566,o),
(914,670,o),
(962,814,c),
(970,814,l),
(970,304,o),
(828,26,o),
(550,26,cs),
(350,26,o),
(226,166,o),
(210,364,c),
(164,364,l),
(178,136,o),
(324,-20,o),
(550,-20,cs),
(916,-20,o),
(1016,404,o),
(1016,794,cs),
(1016,1250,o),
(822,1468,o),
(564,1468,cs)
);
},
{
closed = 1;
nodes = (
(752,1422,o),
(896,1292,o),
(946,1038,cs),
(990,812,o),
(810,612,o),
(578,612,cs),
(358,612,o),
(184,790,o),
(184,1018,cs),
(184,1240,o),
(344,1422,o),
(564,1422,cs)
);
}
);
width = 1154;
},
{
layerId = "CD0E3B44-F66A-4791-B84C-A1128DC61275";
shapes = (
{
closed = 1;
nodes = (
(310,1470,o),
(112,1250,o),
(112,982,cs),
(112,702,o),
(328,504,o),
(586,504,cs),
(740,504,o),
(872,576,o),
(956,696,c),
(976,696,l),
(974,344,o),
(830,140,o),
(594,140,cs),
(432,140,o),
(334,236,o),
(302,366,c),
(124,366,l),
(160,136,o),
(340,-20,o),
(594,-20,cs),
(934,-20,o),
(1144,268,o),
(1144,782,cs),
(1144,1316,o),
(866,1466,o),
(618,1468,cs)
);
},
{
closed = 1;
nodes = (
(808,1310,o),
(948,1154,o),
(948,988,cs),
(948,818,o),
(800,662,o),
(612,662,cs),
(422,662,o),
(288,804,o),
(288,984,cs),
(286,1162,o),
(428,1310,o),
(618,1310,cs)
);
}
);
width = 1256;
}
);
unicode = 57;
}
{
glyphname = less;
layers = (
{
guides = (
{
orientation = center;
pos = (260,832);
}
);
layerId = "5C20EF92-B63D-42A8-8878-93C2863E0093";
shapes = (
{
closed = 1;
nodes = (
(1216,-2,l),
(1216,354,l),
(546,586,l),
(558,568,l),
(558,608,l),
(546,592,l),
(1216,824,l),
(1216,1180,l),
(164,758,l),
(164,418,l)
);
}
);
width = 1380;
},
{
guides = (
{
orientation = center;
pos = (132,1384);
}
);
layerId = "B1F27B51-9973-4381-9301-4FE46FE1CA59";
shapes = (
{
closed = 1;
nodes = (
(998,40,l),
(998,94,l),
(266,568,l),
(274,554,l),
(274,578,l),
(266,562,l),
(998,1038,l),
(998,1092,l),
(224,588,l),
(224,544,l)
);
}
);
width = 1222;
},
{
layerId = "CD0E3B44-F66A-4791-B84C-A1128DC61275";
shapes = (
{
closed = 1;
nodes = (
(1100,44,l),
(1100,230,l),
(402,562,l),
(408,552,l),
(408,580,l),
(402,568,l),
(1100,904,l),
(1100,1090,l),
(186,626,l),
(186,506,l)
);
}
);
width = 1284;
}
);
metricWidth = plus;
unicode = 60;
userData = {
com.typemytype.robofont.guideline.magnetic.UCqMAsbNEX = 5;
com.typemytype.robofont.guideline.magnetic.abdyNxiJ0X = 5;
com.typemytype.robofont.guideline.magnetic.hl7wBCA74H = 5;
com.typemytype.robofont.guideline.magnetic.o3FB2ulJxh = 5;
com.typemytype.robofont.guideline.magnetic.oUvmdsbOwf = 5;
"interface.width-adjustments" = (
-16
);
};
}
{
glyphname = equal;
kernLeft = approxequal;
kernRight = approxequal;
layers = (
{
guides = (
{
orientation = center;
pos = (260,832);
}
);
layerId = "5C20EF92-B63D-42A8-8878-93C2863E0093";
shapes = (
{
closed = 1;
nodes = (
(1214,682,l),
(1214,998,l),
(166,998,l),
(166,682,l)
);
},
{
closed = 1;
nodes = (
(1214,178,l),
(1214,496,l),
(166,496,l),
(166,178,l)
);
}
);
width = 1380;
},
{
guides = (
{
pos = (132,1384);
}
);
layerId = "B1F27B51-9973-4381-9301-4FE46FE1CA59";
shapes = (
{
closed = 1;
nodes = (
(948,732,l),
(948,778,l),
(274,778,l),
(274,732,l)
);
},
{
closed = 1;
nodes = (
(948,354,l),
(948,398,l),
(274,398,l),
(274,354,l)
);
}
);
width = 1222;
},
{
layerId = "CD0E3B44-F66A-4791-B84C-A1128DC61275";
shapes = (
{
closed = 1;
nodes = (
(1080,698,l),
(1080,856,l),
(206,856,l),
(206,698,l)
);
},
{
closed = 1;
nodes = (
(1080,278,l),
(1080,434,l),
(206,434,l),
(206,278,l)
);
}
);
width = 1284;
}
);
metricWidth = plus;
unicode = 61;
userData = {
com.typemytype.robofont.guideline.magnetic.7d4CjnlrzW = 5;
interface.gridadjust.original = "{'width': 1664, 'leftMargin': 256, 'rightMargin': 256}";
"interface.width-adjustments" = (
-16
);
};
}
{
glyphname = greater;
layers = (
{
guides = (
{
orientation = center;
pos = (260,832);
}
);
layerId = "5C20EF92-B63D-42A8-8878-93C2863E0093";
shapes = (
{
closed = 1;
nodes = (
(1216,758,l),
(164,1180,l),
(164,824,l),
(834,592,l),
(824,608,l),
(824,568,l),
(834,586,l),
(164,354,l),
(164,-2,l),
(1216,418,l)
);
}
);
width = 1380;
},
{
guides = (
{
pos = (132,1384);
}
);
layerId = "B1F27B51-9973-4381-9301-4FE46FE1CA59";
shapes = (
{
closed = 1;
nodes = (
(998,588,l),
(224,1092,l),
(224,1038,l),
(956,562,l),
(948,578,l),
(948,554,l),
(956,568,l),
(224,94,l),
(224,40,l),
(998,544,l)
);
}
);
width = 1222;
},
{
layerId = "CD0E3B44-F66A-4791-B84C-A1128DC61275";
shapes = (
{
closed = 1;
nodes = (
(1100,626,l),
(186,1090,l),
(186,904,l),
(884,568,l),
(878,580,l),
(878,552,l),
(884,562,l),
(186,230,l),
(186,44,l),
(1100,506,l)
);
}
);
width = 1284;
}
);
metricWidth = plus;
unicode = 62;
userData = {
"interface.width-adjustments" = (
-16
);
};
}
{
glyphname = question;
layers = (
{
guides = (
{
pos = (-176,2352);
},
{
pos = (-176,836);
},
{
angle = 90;
pos = (284,0);
},
{
angle = 90;
pos = (632,632);
}
);
layerId = "5C20EF92-B63D-42A8-8878-93C2863E0093";
shapes = (
{
closed = 1;
nodes = (
(718,452,l),
(718,486,ls),
(718,598,o),
(772,656,o),
(874,716,cs),
(1012,796,o),
(1106,898,o),
(1106,1070,cs),
(1106,1336,o),
(882,1468,o),
(580,1468,cs),
(304,1468,o),
(76,1338,o),
(74,1026,c),
(436,1026,l),
(436,1108,o),
(502,1166,o),
(578,1166,cs),
(648,1166,o),
(704,1116,o),
(704,1046,cs),
(704,966,o),
(636,918,o),
(546,860,cs),
(440,792,o),
(384,718,o),
(384,486,cs),
(384,452,l)
);
},
{
pos = (246,0);
ref = period;
}
);
width = 1194;
},
{
guides = (
{
angle = 90;
pos = (480,1100);
},
{
pos = (340,1192);
}
);
layerId = "B1F27B51-9973-4381-9301-4FE46FE1CA59";
shapes = (
{
closed = 1;
nodes = (
(436,430,l),
(436,528,ls),
(436,642,o),
(472,702,o),
(608,800,cs),
(762,912,o),
(818,994,o),
(818,1114,cs),
(818,1318,o),
(658,1468,o),
(450,1468,cs),
(232,1468,o),
(70,1304,o),
(70,1086,c),
(116,1086,l),
(116,1278,o),
(258,1422,o),
(450,1422,cs),
(632,1422,o),
(772,1294,o),
(772,1114,cs),
(772,1012,o),
(726,940,o),
(582,838,cs),
(436,736,o),
(390,658,o),
(390,528,cs),
(390,430,l)
);
},
{
pos = (184,0);
ref = period;
}
);
width = 908;
},
{
layerId = "CD0E3B44-F66A-4791-B84C-A1128DC61275";
shapes = (
{
closed = 1;
nodes = (
(528,408,l),
(528,418,ls),
(530,592,o),
(578,668,o),
(702,744,cs),
(826,820,o),
(900,930,o),
(900,1086,cs),
(900,1306,o),
(736,1468,o),
(486,1468,cs),
(256,1468,o),
(74,1326,o),
(64,1084,c),
(246,1084,l),
(258,1248,o),
(372,1316,o),
(486,1316,cs),
(618,1316,o),
(724,1232,o),
(724,1094,cs),
(724,982,o),
(662,902,o),
(578,852,cs),
(440,768,o),
(358,686,o),
(356,418,cs),
(356,408,l)
);
},
{
alignment = -1;
pos = (188,0);
ref = period;
}
);
width = 982;
}
);
unicode = 63;
userData = {
"interface.width-adjustments" = (
-16
);
};
}
{
glyphname = at;
layers = (
{
guides = (
{
pos = (1208,2524);
},
{
pos = (1096,664);
},
{
pos = (1116,1928);
},
{
pos = (1240,72);
},
{
angle = 90;
pos = (-4,1312);
},
{
angle = 90;
pos = (580,1320);
},
{
angle = 90;
pos = (1648,1320);
},
{
angle = 90;
pos = (2288,1460);
},
{
orientation = center;
pos = (-312,1296);
}
);
layerId = "B1F27B51-9973-4381-9301-4FE46FE1CA59";
shapes = (
{
closed = 1;
nodes = (
(998,188,o),
(1104,274,o),
(1142,410,c),
(1192,410,l),
(1190,1020,l),
(1146,1020,l),
(1146,812,l),
(1142,812,l),
(1106,944,o),
(1000,1032,o),
(868,1032,cs),
(682,1032,o),
(554,862,o),
(554,612,cs),
(554,362,o),
(682,188,o),
(868,188,cs)
);
},
{
closed = 1;
nodes = (
(706,234,o),
(598,388,o),
(598,612,cs),
(598,838,o),
(708,988,o),
(872,988,cs),
(1032,988,o),
(1148,826,o),
(1148,612,cs),
(1148,400,o),
(1034,234,o),
(872,234,cs)
);
},
{
closed = 1;
nodes = (
(1000,-208,o),
(1110,-198,o),
(1192,-180,c),
(1192,-132,l),
(1100,-152,o),
(1012,-162,o),
(908,-162,cs),
(464,-162,o),
(166,148,o),
(166,612,cs),
(166,1066,o),
(472,1386,o),
(908,1386,cs),
(1352,1386,o),
(1650,1094,o),
(1650,684,cs),
(1650,408,o),
(1544,228,o),
(1380,228,cs),
(1270,228,o),
(1192,308,o),
(1192,446,c),
(1144,432,l),
(1144,282,o),
(1244,182,o),
(1380,182,cs),
(1572,182,o),
(1696,380,o),
(1696,682,cs),
(1696,1124,o),
(1372,1432,o),
(908,1432,cs),
(448,1432,o),
(122,1092,o),
(122,612,cs),
(122,124,o),
(440,-208,o),
(908,-208,cs)
);
}
);
width = 1816;
},
{
layerId = "CD0E3B44-F66A-4791-B84C-A1128DC61275";
shapes = (
{
closed = 1;
nodes = (
(1010,190,o),
(1070,302,o),
(1094,346,c),
(1246,346,l),
(1246,1016,l),
(1094,1016,l),
(1094,894,l),
(1084,894,l),
(1060,940,o),
(1000,1032,o),
(856,1032,cs),
(656,1032,o),
(508,870,o),
(508,612,cs),
(508,352,o),
(654,190,o),
(854,190,cs)
);
},
{
closed = 1;
nodes = (
(742,336,o),
(664,458,o),
(664,614,cs),
(664,766,o),
(740,886,o),
(880,886,cs),
(1024,886,o),
(1094,776,o),
(1096,614,cs),
(1094,448,o),
(1022,336,o),
(880,336,cs)
);
},
{
closed = 1;
nodes = (
(1024,-208,o),
(1142,-190,o),
(1246,-162,c),
(1246,-26,l),
(1124,-58,o),
(1034,-68,o),
(892,-70,cs),
(470,-74,o),
(248,206,o),
(248,612,cs),
(250,986,o),
(502,1290,o),
(900,1292,cs),
(1282,1292,o),
(1556,1044,o),
(1554,668,cs),
(1552,458,o),
(1470,316,o),
(1346,316,cs),
(1282,316,o),
(1248,354,o),
(1246,432,c),
(1106,360,l),
(1106,260,o),
(1204,182,o),
(1336,182,cs),
(1540,182,o),
(1698,364,o),
(1698,674,cs),
(1700,1106,o),
(1376,1430,o),
(900,1430,cs),
(434,1430,o),
(102,1086,o),
(104,612,cs),
(104,106,o),
(404,-208,o),
(892,-208,cs)
);
}
);
width = 1802;
},
{
layerId = "5C20EF92-B63D-42A8-8878-93C2863E0093";
shapes = (
{
closed = 1;
nodes = (
(892,220,o),
(966,270,o),
(998,346,c),
(1268,346,l),
(1268,976,l),
(1002,976,l),
(1002,872,l),
(996,872,l),
(964,946,o),
(892,1002,o),
(788,1004,cs),
(642,1002,o),
(490,896,o),
(490,612,cs),
(490,342,o),
(632,220,o),
(790,220,cs)
);
},
{
closed = 1;
nodes = (
(848,466,o),
(810,518,o),
(812,612,cs),
(810,706,o),
(848,758,o),
(910,760,cs),
(972,758,o),
(1012,706,o),
(1012,612,cs),
(1012,518,o),
(972,464,o),
(910,466,cs)
);
},
{
closed = 1;
nodes = (
(1026,-208,o),
(1158,-190,o),
(1268,-156,c),
(1268,110,l),
(1168,84,o),
(1036,66,o),
(892,66,cs),
(538,66,o),
(354,258,o),
(354,612,cs),
(354,948,o),
(566,1156,o),
(892,1156,cs),
(1230,1156,o),
(1428,956,o),
(1428,658,cs),
(1428,528,o),
(1392,452,o),
(1324,452,cs),
(1286,452,o),
(1268,476,o),
(1268,530,c),
(994,406,l),
(994,290,o),
(1118,210,o),
(1296,208,cs),
(1552,206,o),
(1694,370,o),
(1694,664,cs),
(1694,1112,o),
(1360,1430,o),
(892,1430,cs),
(418,1430,o),
(88,1088,o),
(88,612,cs),
(88,124,o),
(368,-208,o),
(892,-208,cs)
);
}
);
width = 1782;
}
);
unicode = 64;
userData = {
"interface.width-adjustments" = (
-16
);
};
}
{
glyphname = A;
kernLeft = A;
kernRight = A;
layers = (
{
anchors = (
{
name = bottom;
pos = (792,0);
},
{
name = ogonek;
pos = (1538,0);
},
{
name = tonos;
pos = (446,1448);
},
{
name = top;
pos = (792,1630);
}
);
guides = (
{
pos = (888,1364);
},
{
angle = 90;
orientation = center;
pos = (872,964);
}
);
layerId = "5C20EF92-B63D-42A8-8878-93C2863E0093";
shapes = (
{
closed = 1;
nodes = (
(786,1050,l),
(798,1050,l),
(1114,0,l),
(1538,0,l),
(1060,1448,l),
(524,1448,l),
(46,0,l),
(470,0,l)
);
},
{
closed = 1;
nodes = (
(390,278,l),
(1188,278,l),
(1188,572,l),
(390,572,l)
);
}
);
width = 1584;
},
{
anchors = (
{
name = bottom;
pos = (592,0);
},
{
name = ogonek;
pos = (1140,0);
},
{
name = tonos;
pos = (490,1448);
},
{
name = top;
pos = (592,1630);
}
);
layerId = "B1F27B51-9973-4381-9301-4FE46FE1CA59";
shapes = (
{
closed = 1;
nodes = (
(588,1392,l),
(594,1392,l),
(1092,0,l),
(1140,0,l),
(622,1448,l),
(560,1448,l),
(42,0,l),
(90,0,l)
);
},
{
closed = 1;
nodes = (
(254,490,l),
(928,490,l),
(928,534,l),
(254,534,l)
);
}
);
width = 1182;
},
{
anchors = (
{
name = bottom;
pos = (660,0);
},
{
name = ogonek;
pos = (1286,0);
},
{
name = tonos;
pos = (466,1448);
},
{
name = top;
pos = (660,1630);
}
);
layerId = "CD0E3B44-F66A-4791-B84C-A1128DC61275";
shapes = (
{
closed = 1;
nodes = (
(654,1214,l),
(666,1214,l),
(1096,0,l),
(1286,0,l),
(756,1448,l),
(566,1448,l),
(36,0,l),
(224,0,l)
);
},
{
closed = 1;
nodes = (
(290,408,l),
(1032,408,l),
(1032,566,l),
(290,566,l)
);
}
);
width = 1322;
}
);
unicode = 65;
userData = {
com.typemytype.robofont.guideline.magnetic.9EkLRXjahr = 5;
"interface.width-adjustments" = (
-16
);
};
}
{
glyphname = B;
kernLeft = B;
kernRight = B;
layers = (
{
anchors = (
{
name = bottom;
pos = (644,0);
},
{
name = top;
pos = (648,1630);
}
);
guides = (
{
angle = 90;
orientation = center;
pos = (612,716);
}
);
layerId = "5C20EF92-B63D-42A8-8878-93C2863E0093";
shapes = (
{
closed = 1;
nodes = (
(776,0,ls),
(1090,0,o),
(1284,172,o),
(1284,410,cs),
(1284,614,o),
(1134,748,o),
(948,756,c),
(948,770,l),
(1116,804,o),
(1228,926,o),
(1228,1086,cs),
(1228,1306,o),
(1052,1448,o),
(722,1448,cs),
(94,1448,l),
(94,0,l)
);
},
{
closed = 1;
nodes = (
(486,620,l),
(676,620,ls),
(796,620,o),
(868,564,o),
(868,462,cs),
(868,366,o),
(802,314,o),
(670,314,cs),
(486,314,l)
);
},
{
closed = 1;
nodes = (
(486,1140,l),
(654,1140,ls),
(752,1140,o),
(824,1092,o),
(824,1002,cs),
(824,912,o),
(752,862,o),
(648,862,cs),
(486,862,l)
);
}
);
width = 1330;
},
{
anchors = (
{
name = bottom;
pos = (596,0);
},
{
name = top;
pos = (580,1630);
}
);
guides = (
{
angle = 180;
orientation = center;
pos = (808,1624);
}
);
layerId = "B1F27B51-9973-4381-9301-4FE46FE1CA59";
shapes = (
{
closed = 1;
nodes = (
(704,0,ls),
(952,0,o),
(1100,146,o),
(1100,370,cs),
(1100,572,o),
(980,718,o),
(824,732,c),
(824,738,l),
(964,774,o),
(1044,910,o),
(1044,1080,cs),
(1044,1308,o),
(900,1448,o),
(656,1448,cs),
(204,1448,l),
(204,0,l)
);
},
{
closed = 1;
nodes = (
(248,712,l),
(704,712,ls),
(908,712,o),
(1056,570,o),
(1056,370,cs),
(1056,174,o),
(916,46,o),
(704,46,cs),
(248,46,l)
);
},
{
closed = 1;
nodes = (
(248,1404,l),
(656,1404,ls),
(866,1404,o),
(998,1286,o),
(998,1080,cs),
(998,908,o),
(902,758,o),
(704,758,cs),
(248,758,l)
);
}
);
width = 1230;
},
{
anchors = (
{
name = bottom;
pos = (614,0);
},
{
name = top;
pos = (606,1630);
}
);
layerId = "CD0E3B44-F66A-4791-B84C-A1128DC61275";
shapes = (
{
closed = 1;
nodes = (
(686,0,ls),
(1028,0,o),
(1172,166,o),
(1172,384,cs),
(1172,614,o),
(1012,738,o),
(878,746,c),
(878,760,l),
(1004,794,o),
(1114,878,o),
(1114,1064,cs),
(1114,1278,o),
(970,1448,o),
(668,1448,cs),
(160,1448,l),
(160,0,l)
);
},
{
closed = 1;
nodes = (
(340,658,l),
(694,658,ls),
(880,658,o),
(998,534,o),
(998,386,cs),
(998,260,o),
(910,160,o),
(684,160,cs),
(340,160,l)
);
},
{
closed = 1;
nodes = (
(340,1288,l),
(668,1288,ls),
(858,1288,o),
(942,1188,o),
(942,1062,cs),
(942,910,o),
(818,814,o),
(662,814,cs),
(340,814,l)
);
}
);
width = 1268;
}
);
metricLeft = H;
unicode = 66;
userData = {
com.typemytype.robofont.guideline.magnetic.olHMUUD5VH = 5;
com.typemytype.robofont.guideline.magnetic.rWKPWS6RQH = 5;
"interface.width-adjustments" = (
-16
);
};
}
{
glyphname = C;
kernLeft = C;
kernRight = C;
layers = (
{
anchors = (
{
name = cedilla;
pos = (778,6);
},
{
name = top;
pos = (786,1630);
}
);
guides = (
{
pos = (1012,1024);
},
{
pos = (-136,0);
}
);
layerId = "5C20EF92-B63D-42A8-8878-93C2863E0093";
shapes = (
{
closed = 1;
nodes = (
(1414,1266,o),
(1150,1468,o),
(786,1468,cs),
(396,1468,o),
(88,1208,o),
(88,724,c),
(88,242,o),
(388,-20,o),
(786,-20,cs),
(1210,-20,o),
(1426,274,o),
(1446,520,c),
(1046,524,l),
(1026,400,o),
(938,322,o),
(794,322,cs),
(602,322,o),
(492,458,o),
(492,724,c),
(492,976,o),
(600,1126,o),
(798,1126,cs),
(950,1126,o),
(1034,1038,o),
(1046,906,c),
(1446,906,l)
);
}
);
width = 1530;
},
{
anchors = (
{
name = cedilla;
pos = (722,0);
},
{
name = top;
pos = (722,1630);
}
);
layerId = "B1F27B51-9973-4381-9301-4FE46FE1CA59";
shapes = (
{
closed = 1;
nodes = (
(1240,1202,o),
(1062,1468,o),
(722,1468,cs),
(366,1468,o),
(122,1168,o),
(122,724,cs),
(122,280,o),
(366,-20,o),
(722,-20,cs),
(1062,-20,o),
(1240,248,o),
(1276,452,c),
(1228,452,l),
(1192,256,o),
(1018,26,o),
(722,26,cs),
(424,26,o),
(166,268,o),
(166,724,cs),
(166,1174,o),
(424,1422,o),
(722,1422,cs),
(1018,1422,o),
(1192,1188,o),
(1228,996,c),
(1276,996,l)
);
}
);
width = 1394;
},
{
anchors = (
{
name = cedilla;
pos = (742,-12);
},
{
name = top;
pos = (744,1630);
}
);
layerId = "CD0E3B44-F66A-4791-B84C-A1128DC61275";
shapes = (
{
closed = 1;
nodes = (
(1274,1292,o),
(1036,1468,o),
(744,1468,cs),
(372,1468,o),
(104,1182,o),
(104,724,c),
(104,266,o),
(372,-20,o),
(744,-20,cs),
(1038,-20,o),
(1276,158,o),
(1328,454,c),
(1148,454,l),
(1106,256,o),
(934,148,o),
(744,148,cs),
(482,148,o),
(278,350,o),
(278,724,c),
(278,1098,o),
(482,1300,o),
(744,1300,cs),
(934,1300,o),
(1106,1192,o),
(1148,992,c),
(1328,992,l)
);
}
);
width = 1420;
}
);
unicode = 67;
userData = {
com.typemytype.robofont.guideline.magnetic.ju3ppiFr9V = 5;
"interface.width-adjustments" = (
-16
);
};
}
{
glyphname = D;
kernLeft = B;
kernRight = D;
layers = (
{
anchors = (
{
name = bottom;
pos = (656,0);
},
{
name = cross;
pos = (288,766);
},
{
name = top;
pos = (578,1630);
}
);
guides = (
{
pos = (1772,1024);
},
{
pos = (-136,764);
},
{
pos = (-136,1548);
},
{
pos = (1736,1696);
},
{
pos = (1736,348);
},
{
pos = (1272,1480);
},
{
pos = (1336,560);
}
);
layerId = "5C20EF92-B63D-42A8-8878-93C2863E0093";
shapes = (
{
closed = 1;
nodes = (
(1092,0,o),
(1372,272,o),
(1372,724,c),
(1372,1176,o),
(1090,1448,o),
(644,1448,c),
(248,1448,l),
(248,1114,l),
(626,1114,l),
(852,1114,o),
(976,1026,o),
(976,724,c),
(976,422,o),
(850,334,o),
(636,334,c),
(254,334,l),
(254,0,l),
(650,0,l)
);
},
{
closed = 1;
nodes = (
(94,1448,l),
(94,0,l),
(486,0,l),
(486,1448,l)
);
}
);
width = 1460;
},
{
anchors = (
{
name = bottom;
pos = (552,0);
},
{
name = cross;
pos = (226,736);
},
{
name = top;
pos = (592,1630);
}
);
layerId = "B1F27B51-9973-4381-9301-4FE46FE1CA59";
shapes = (
{
closed = 1;
nodes = (
(1008,0,o),
(1254,268,o),
(1256,730,cs),
(1256,1180,o),
(1020,1448,o),
(620,1448,cs),
(226,1448,l),
(226,1404,l),
(620,1404,ls),
(996,1404,o),
(1208,1152,o),
(1210,730,cs),
(1212,300,o),
(984,46,o),
(582,46,cs),
(226,46,l),
(226,0,l),
(582,0,ls)
);
},
{
closed = 1;
nodes = (
(204,1448,l),
(204,0,l),
(248,0,l),
(248,1448,l)
);
}
);
width = 1376;
},
{
anchors = (
{
name = bottom;
pos = (592,0);
},
{
name = cross;
pos = (250,746);
},
{
name = top;
pos = (586,1630);
}
);
layerId = "CD0E3B44-F66A-4791-B84C-A1128DC61275";
shapes = (
{
closed = 1;
nodes = (
(1052,0,o),
(1300,274,o),
(1300,726,cs),
(1300,1176,o),
(1050,1448,o),
(628,1448,cs),
(252,1448,l),
(252,1288,l),
(616,1288,ls),
(952,1288,o),
(1124,1076,o),
(1124,726,cs),
(1124,374,o),
(954,160,o),
(598,160,cs),
(260,160,l),
(260,0,l),
(610,0,ls)
);
},
{
closed = 1;
nodes = (
(160,1448,l),
(160,0,l),
(340,0,l),
(340,1448,l)
);
}
);
width = 1404;
}
);
metricLeft = H;
metricRight = O;
unicode = 68;
userData = {
"interface.width-adjustments" = (
-16
);
};
}
{
glyphname = E;
kernLeft = B;
kernRight = E;
layers = (
{
anchors = (
{
name = bottom;
pos = (620,0);
},
{
name = cedilla;
pos = (622,0);
},
{
name = ogonek;
pos = (1134,0);
},
{
name = tonos;
pos = (54,1448);
},
{
name = top;
pos = (620,1630);
}
);
guides = (
{
pos = (-136,1360);
},
{
angle = 90;
orientation = center;
pos = (788,620);
}
);
layerId = "5C20EF92-B63D-42A8-8878-93C2863E0093";
shapes = (
{
closed = 1;
nodes = (
(1134,0,l),
(1134,316,l),
(486,316,l),
(486,566,l),
(1084,566,l),
(1084,882,l),
(486,882,l),
(486,1132,l),
(1138,1132,l),
(1138,1448,l),
(94,1448,l),
(94,0,l)
);
}
);
width = 1238;
},
{
anchors = (
{
name = bottom;
pos = (560,0);
},
{
name = cedilla;
pos = (562,0);
},
{
name = ogonek;
pos = (996,0);
},
{
name = tonos;
pos = (152,1448);
},
{
name = top;
pos = (594,1630);
}
);
layerId = "B1F27B51-9973-4381-9301-4FE46FE1CA59";
shapes = (
{
closed = 1;
nodes = (
(996,0,l),
(996,46,l),
(248,46,l),
(248,702,l),
(934,702,l),
(934,746,l),
(248,746,l),
(248,1404,l),
(976,1404,l),
(976,1448,l),
(204,1448,l),
(204,0,l)
);
}
);
width = 1118;
},
{
anchors = (
{
name = bottom;
pos = (582,0);
},
{
name = cedilla;
pos = (586,0);
},
{
name = ogonek;
pos = (1048,0);
},
{
name = tonos;
pos = (114,1448);
},
{
name = top;
pos = (596,1630);
}
);
layerId = "CD0E3B44-F66A-4791-B84C-A1128DC61275";
shapes = (
{
closed = 1;
nodes = (
(1048,0,l),
(1048,160,l),
(340,160,l),
(340,646,l),
(992,646,l),
(992,804,l),
(340,804,l),
(340,1288,l),
(1038,1288,l),
(1038,1448,l),
(160,1448,l),
(160,0,l)
);
}
);
width = 1162;
}
);
metricLeft = H;
unicode = 69;
userData = {
"interface.width-adjustments" = (
-16
);
};
}
{
glyphname = F;
kernLeft = B;
kernRight = F;
layers = (
{
anchors = (
{
name = bottom;
pos = (626,12);
},
{
name = cross;
pos = (288,244);
},
{
name = top;
pos = (606,1630);
}
);
guides = (
{
pos = (-136,1320);
}
);
layerId = "5C20EF92-B63D-42A8-8878-93C2863E0093";
shapes = (
{
closed = 1;
nodes = (
(486,0,l),
(486,566,l),
(1050,566,l),
(1050,882,l),
(486,882,l),
(486,1132,l),
(1112,1132,l),
(1112,1448,l),
(94,1448,l),
(94,0,l)
);
}
);
width = 1162;
},
{
anchors = (
{
name = bottom;
pos = (472,12);
},
{
name = cross;
pos = (226,398);
},
{
name = top;
pos = (594,1630);
}
);
guides = (
{
angle = 90;
pos = (736,2804);
}
);
layerId = "B1F27B51-9973-4381-9301-4FE46FE1CA59";
shapes = (
{
closed = 1;
nodes = (
(248,0,l),
(248,702,l),
(914,702,l),
(914,746,l),
(248,746,l),
(248,1404,l),
(982,1404,l),
(982,1448,l),
(204,1448,l),
(204,0,l)
);
}
);
width = 1120;
},
{
anchors = (
{
name = bottom;
pos = (532,12);
},
{
name = cross;
pos = (250,336);
},
{
name = top;
pos = (614,1630);
}
);
layerId = "CD0E3B44-F66A-4791-B84C-A1128DC61275";
shapes = (
{
closed = 1;
nodes = (
(340,0,l),
(340,646,l),
(966,646,l),
(966,804,l),
(340,804,l),
(340,1288,l),
(1032,1288,l),
(1032,1448,l),
(160,1448,l),
(160,0,l)
);
}
);
width = 1140;
}
);
unicode = 70;
userData = {
"interface.width-adjustments" = (
-16
);
};
}
{
glyphname = G;
kernLeft = C;
kernRight = G;
layers = (
{
anchors = (
{
name = bottom;
pos = (780,6);
},
{
name = top;
pos = (784,1630);
}
);
guides = (
{
angle = 7.9575;
pos = (888,1320);
},
{
angle = 90;
orientation = center;
pos = (888,528);
},
{
pos = (1224,756);
}
);
layerId = "5C20EF92-B63D-42A8-8878-93C2863E0093";
shapes = (
{
closed = 1;
nodes = (
(1432,970,l),
(1402,1260,o),
(1136,1468,o),
(794,1468,cs),
(404,1468,o),
(88,1200,o),
(88,722,cs),
(88,264,o),
(376,-20,o),
(798,-20,cs),
(1178,-20,o),
(1448,212,o),
(1448,608,cs),
(1448,810,l),
(806,810,l),
(806,528,l),
(1138,528,l),
(1070,536,l),
(1070,406,o),
(980,322,o),
(800,322,cs),
(596,322,o),
(492,472,o),
(492,726,cs),
(492,978,o),
(606,1126,o),
(804,1126,cs),
(928,1126,o),
(1010,1070,o),
(1034,970,c)
);
}
);
width = 1538;
},
{
anchors = (
{
name = bottom;
pos = (712,0);
},
{
name = top;
pos = (712,1630);
}
);
guides = (
{
pos = (1736,1992);
}
);
layerId = "B1F27B51-9973-4381-9301-4FE46FE1CA59";
shapes = (
{
closed = 1;
nodes = (
(1276,996,l),
(1242,1202,o),
(1060,1468,o),
(722,1468,cs),
(362,1468,o),
(122,1170,o),
(122,724,cs),
(122,280,o),
(358,-20,o),
(726,-20,cs),
(1052,-20,o),
(1288,216,o),
(1288,612,cs),
(1288,656,l),
(742,656,l),
(742,612,l),
(1262,612,l),
(1242,628,l),
(1248,248,o),
(1028,26,o),
(726,26,cs),
(384,26,o),
(166,310,o),
(166,724,cs),
(166,1142,o),
(390,1422,o),
(722,1422,cs),
(1020,1422,o),
(1196,1194,o),
(1230,996,c)
);
}
);
width = 1426;
},
{
anchors = (
{
name = bottom;
pos = (736,0);
},
{
name = top;
pos = (738,1630);
}
);
layerId = "CD0E3B44-F66A-4791-B84C-A1128DC61275";
shapes = (
{
closed = 1;
nodes = (
(1334,996,l),
(1280,1276,o),
(1044,1468,o),
(738,1468,cs),
(366,1468,o),
(104,1182,o),
(104,724,cs),
(104,266,o),
(364,-20,o),
(750,-20,cs),
(1096,-20,o),
(1342,210,o),
(1342,570,cs),
(1342,726,l),
(788,726,l),
(788,568,l),
(1220,568,l),
(1166,578,l),
(1166,314,o),
(998,148,o),
(750,148,cs),
(482,148,o),
(278,350,o),
(278,724,cs),
(278,1098,o),
(482,1300,o),
(738,1300,cs),
(944,1300,o),
(1088,1182,o),
(1148,996,c)
);
}
);
width = 1452;
}
);
unicode = 71;
userData = {
com.typemytype.robofont.guideline.magnetic.DBpTQJmUAf = 5;
com.typemytype.robofont.guideline.magnetic.Mdeh49HlEG = 5;
com.typemytype.robofont.guideline.magnetic.iFgX6ho5qJ = 5;
"interface.width-adjustments" = (
-16
);
};
}
{
glyphname = H;
kernLeft = B;
kernRight = H;
layers = (
{
anchors = (
{
name = bottom;
pos = (746,0);
},
{
name = cedilla;
pos = (280,0);
},
{
name = cyrtic;
pos = (1586,158);
},
{
name = right;
pos = (1400,0);
},
{
name = tonos;
pos = (60,1448);
},
{
name = top;
pos = (746,1630);
}
);
guides = (
{
pos = (-136,1652);
},
{
angle = 90;
orientation = center;
pos = (836,1344);
}
);
layerId = "5C20EF92-B63D-42A8-8878-93C2863E0093";
shapes = (
{
closed = 1;
nodes = (
(486,0,l),
(486,566,l),
(1008,566,l),
(1008,0,l),
(1400,0,l),
(1400,1448,l),
(1008,1448,l),
(1008,882,l),
(486,882,l),
(486,1448,l),
(94,1448,l),
(94,0,l)
);
}
);
width = 1494;
},
{
anchors = (
{
name = bottom;
pos = (710,0);
},
{
name = cedilla;
pos = (226,-6);
},
{
name = cyrtic;
pos = (1236,6);
},
{
name = right;
pos = (1216,0);
},
{
name = tonos;
pos = (170,1448);
},
{
name = top;
pos = (710,1630);
}
);
layerId = "B1F27B51-9973-4381-9301-4FE46FE1CA59";
shapes = (
{
closed = 1;
nodes = (
(248,0,l),
(248,702,l),
(1172,702,l),
(1172,0,l),
(1216,0,l),
(1216,1448,l),
(1172,1448,l),
(1172,746,l),
(248,746,l),
(248,1448,l),
(204,1448,l),
(204,0,l)
);
}
);
width = 1420;
},
{
anchors = (
{
name = bottom;
pos = (722,0);
},
{
name = cedilla;
pos = (272,-2);
},
{
name = cyrtic;
pos = (1354,66);
},
{
name = right;
pos = (1288,0);
},
{
name = tonos;
pos = (126,1448);
},
{
name = top;
pos = (730,1632);
}
);
layerId = "CD0E3B44-F66A-4791-B84C-A1128DC61275";
shapes = (
{
closed = 1;
nodes = (
(340,0,l),
(340,646,l),
(1106,646,l),
(1106,0,l),
(1288,0,l),
(1288,1448,l),
(1106,1448,l),
(1106,804,l),
(340,804,l),
(340,1448,l),
(160,1448,l),
(160,0,l)
);
}
);
width = 1446;
}
);
unicode = 72;
userData = {
"interface.width-adjustments" = (
-16
);
};
}
{
glyphname = I;
kernLeft = B;
kernRight = H;
layers = (
{
anchors = (
{
name = bottom;
pos = (288,0);
},
{
name = cross;
pos = (288,766);
},
{
name = ogonek;
pos = (486,0);
},
{
name = right;
pos = (512,0);
},
{
name = tonos;
pos = (94,1448);
},
{
name = top;
pos = (292,1630);
}
);
guides = (
{
angle = 90;
orientation = center;
pos = (144,1240);
}
);
layerId = "5C20EF92-B63D-42A8-8878-93C2863E0093";
shapes = (
{
closed = 1;
nodes = (
(94,1448,l),
(94,0,l),
(486,0,l),
(486,1448,l)
);
}
);
width = 580;
},
{
anchors = (
{
name = bottom;
pos = (226,0);
},
{
name = cross;
pos = (226,746);
},
{
name = ogonek;
pos = (248,0);
},
{
name = right;
pos = (258,0);
},
{
name = tonos;
pos = (204,1448);
},
{
name = top;
pos = (226,1630);
}
);
layerId = "B1F27B51-9973-4381-9301-4FE46FE1CA59";
shapes = (
{
closed = 1;
nodes = (
(204,1448,l),
(204,0,l),
(248,0,l),
(248,1448,l)
);
}
);
width = 452;
},
{
anchors = (
{
name = bottom;
pos = (250,0);
},
{
name = cross;
pos = (250,746);
},
{
name = ogonek;
pos = (340,0);
},
{
name = right;
pos = (356,0);
},
{
name = tonos;
pos = (160,1448);
},
{
name = top;
pos = (250,1630);
}
);
layerId = "CD0E3B44-F66A-4791-B84C-A1128DC61275";
shapes = (
{
closed = 1;
nodes = (
(160,1448,l),
(160,0,l),
(340,0,l),
(340,1448,l)
);
}
);
width = 498;
}
);
metricLeft = H;
metricRight = H;
unicode = 73;
userData = {
"interface.width-adjustments" = (
-16
);
};
}
{
glyphname = J;
kernLeft = J;
kernRight = J;
layers = (
{
anchors = (
{
name = cross;
pos = (880,860);
},
{
name = top;
pos = (882,1630);
}
);
guides = (
{
angle = 90;
pos = (1100,1476);
}
);
layerId = "5C20EF92-B63D-42A8-8878-93C2863E0093";
shapes = (
{
closed = 1;
nodes = (
(690,456,l),
(688,344,o),
(642,286,o),
(554,286,cs),
(468,286,o),
(420,342,o),
(416,452,c),
(22,452,l),
(20,118,o),
(250,-20,o),
(528,-20,cs),
(850,-20,o),
(1076,174,o),
(1078,456,c),
(1078,1448,l),
(690,1448,l)
);
}
);
width = 1172;
},
{
anchors = (
{
name = cross;
pos = (764,860);
},
{
name = top;
pos = (764,1630);
}
);
guides = (
{
angle = 90;
pos = (976,2840);
}
);
layerId = "B1F27B51-9973-4381-9301-4FE46FE1CA59";
shapes = (
{
closed = 1;
nodes = (
(742,384,ls),
(740,116,o),
(594,26,o),
(436,26,cs),
(264,26,o),
(128,130,o),
(130,272,c),
(84,272,l),
(82,106,o),
(236,-20,o),
(436,-20,cs),
(622,-20,o),
(784,90,o),
(786,384,cs),
(786,1448,l),
(742,1448,l)
);
}
);
width = 990;
},
{
anchors = (
{
name = cross;
pos = (804,860);
},
{
name = top;
pos = (804,1630);
}
);
layerId = "CD0E3B44-F66A-4791-B84C-A1128DC61275";
shapes = (
{
closed = 1;
nodes = (
(714,414,l),
(714,234,o),
(630,140,o),
(480,140,cs),
(344,140,o),
(244,218,o),
(244,342,c),
(66,342,l),
(66,118,o),
(240,-20,o),
(480,-20,cs),
(734,-20,o),
(896,136,o),
(896,414,c),
(896,1448,l),
(714,1448,l)
);
}
);
width = 1054;
}
);
metricRight = H;
unicode = 74;
}
{
glyphname = K;
kernLeft = B;
kernRight = K;
layers = (
{
anchors = (
{
name = bottom;
pos = (702,2);
},
{
name = top;
pos = (704,1630);
}
);
guides = (
{
angle = 90;
orientation = center;
pos = (900,1820);
}
);
layerId = "5C20EF92-B63D-42A8-8878-93C2863E0093";
shapes = (
{
closed = 1;
nodes = (
(486,0,l),
(486,374,l),
(616,544,l),
(942,0,l),
(1412,0,l),
(910,804,l),
(1400,1448,l),
(942,1448,l),
(506,862,l),
(486,862,l),
(486,1448,l),
(94,1448,l),
(94,0,l)
);
}
);
width = 1422;
},
{
anchors = (
{
name = bottom;
pos = (594,0);
},
{
name = top;
pos = (596,1630);
}
);
guides = (
{
angle = 227.6708;
pos = (1504,2632);
}
);
layerId = "B1F27B51-9973-4381-9301-4FE46FE1CA59";
shapes = (
{
closed = 1;
nodes = (
(248,0,l),
(248,472,l),
(466,712,l),
(1070,0,l),
(1128,0,l),
(498,746,l),
(1138,1448,l),
(1074,1448,l),
(254,546,l),
(248,546,l),
(248,1448,l),
(204,1448,l),
(204,0,l)
);
}
);
width = 1182;
},
{
anchors = (
{
name = bottom;
pos = (638,0);
},
{
name = top;
pos = (644,1630);
}
);
layerId = "CD0E3B44-F66A-4791-B84C-A1128DC61275";
shapes = (
{
closed = 1;
nodes = (
(340,0,l),
(340,466,l),
(520,670,l),
(1018,0,l),
(1238,0,l),
(632,794,l),
(1238,1448,l),
(1002,1448,l),
(358,732,l),
(340,732,l),
(340,1448,l),
(160,1448,l),
(160,0,l)
);
}
);
width = 1272;
}
);
metricLeft = H;
unicode = 75;
userData = {
com.typemytype.robofont.guideline.magnetic.bB6GeEoQ3O = 5;
"interface.width-adjustments" = (
-16
);
};
}
{
glyphname = L;
kernLeft = B;
kernRight = L;
layers = (
{
anchors = (
{
name = bottom;
pos = (582,0);
},
{
name = cross;
pos = (288,766);
},
{
name = dot;
pos = (588,848);
},
{
name = raccent;
pos = (684,1448);
},
{
name = top;
pos = (286,1630);
}
);
guides = (
{
pos = (-136,1304);
},
{
angle = 90;
pos = (676,584);
},
{
pos = (840,-416);
}
);
layerId = "5C20EF92-B63D-42A8-8878-93C2863E0093";
shapes = (
{
closed = 1;
nodes = (
(1072,0,l),
(1072,316,l),
(486,316,l),
(486,1448,l),
(94,1448,l),
(94,0,l)
);
}
);
width = 1138;
},
{
anchors = (
{
name = bottom;
pos = (588,0);
},
{
name = cross;
pos = (226,746);
},
{
name = dot;
pos = (566,726);
},
{
name = raccent;
pos = (586,1448);
},
{
name = top;
pos = (226,1630);
}
);
guides = (
{
angle = 90;
pos = (728,2672);
},
{
angle = 90;
pos = (216,2516);
}
);
layerId = "B1F27B51-9973-4381-9301-4FE46FE1CA59";
shapes = (
{
closed = 1;
nodes = (
(974,0,l),
(974,46,l),
(248,46,l),
(248,1448,l),
(204,1448,l),
(204,0,l)
);
}
);
width = 1074;
},
{
anchors = (
{
name = bottom;
pos = (586,0);
},
{
name = cross;
pos = (250,746);
},
{
name = dot;
pos = (574,774);
},
{
name = raccent;
pos = (586,1448);
},
{
name = top;
pos = (248,1630);
}
);
layerId = "CD0E3B44-F66A-4791-B84C-A1128DC61275";
shapes = (
{
closed = 1;
nodes = (
(1012,0,l),
(1012,160,l),
(340,160,l),
(340,1448,l),
(160,1448,l),
(160,0,l)
);
}
);
width = 1092;
}
);
metricLeft = H;
unicode = 76;
userData = {
"interface.width-adjustments" = (
-16
);
};
}
{
glyphname = M;
kernLeft = B;
kernRight = H;
layers = (
{
anchors = (
{
name = bottom;
pos = (928,0);
},
{
name = right;
pos = (1762,0);
},
{
name = top;
pos = (928,1630);
}
);
guides = (
{
pos = (40,1220);
},
{
angle = 90;
orientation = center;
pos = (940,2164);
}
);
layerId = "5C20EF92-B63D-42A8-8878-93C2863E0093";
shapes = (
{
closed = 1;
nodes = (
(94,0,l),
(478,0,l),
(478,842,l),
(490,842,l),
(812,12,l),
(1044,12,l),
(1366,838,l),
(1378,838,l),
(1378,0,l),
(1762,0,l),
(1762,1448,l),
(1272,1448,l),
(936,628,l),
(920,628,l),
(582,1448,l),
(94,1448,l)
);
}
);
width = 1856;
},
{
anchors = (
{
name = bottom;
pos = (838,0);
},
{
name = right;
pos = (1470,0);
},
{
name = top;
pos = (838,1630);
}
);
layerId = "B1F27B51-9973-4381-9301-4FE46FE1CA59";
shapes = (
{
closed = 1;
nodes = (
(204,0,l),
(248,0,l),
(248,1306,l),
(254,1306,l),
(814,0,l),
(860,0,l),
(1420,1306,l),
(1426,1306,l),
(1426,0,l),
(1470,0,l),
(1470,1448,l),
(1432,1448,l),
(840,68,l),
(834,68,l),
(244,1448,l),
(204,1448,l)
);
}
);
width = 1674;
},
{
anchors = (
{
name = bottom;
pos = (872,0);
},
{
name = right;
pos = (1586,0);
},
{
name = top;
pos = (872,1630);
}
);
layerId = "CD0E3B44-F66A-4791-B84C-A1128DC61275";
shapes = (
{
closed = 1;
nodes = (
(160,0,l),
(330,0,l),
(330,1094,l),
(342,1094,l),
(792,0,l),
(952,0,l),
(1402,1094,l),
(1416,1094,l),
(1416,0,l),
(1586,0,l),
(1586,1448,l),
(1370,1448,l),
(882,256,l),
(864,256,l),
(376,1448,l),
(160,1448,l)
);
}
);
width = 1744;
}
);
metricLeft = H;
metricRight = H;
unicode = 77;
userData = {
com.typemytype.robofont.guideline.magnetic.ezYETy42tZ = 5;
com.typemytype.robofont.guideline.magnetic.wu5HJlZVk6 = 5;
com.typemytype.robofont.guideline.magnetic.x5YoYrsuLC = 5;
"interface.width-adjustments" = (
-16
);
};
}
{
glyphname = N;
kernLeft = B;
kernRight = H;
layers = (
{
anchors = (
{
name = bottom;
pos = (722,0);
},
{
name = right;
pos = (1414,0);
},
{
name = top;
pos = (722,1630);
}
);
guides = (
{
pos = (-136,1652);
},
{
angle = 90;
orientation = center;
pos = (752,240);
}
);
layerId = "5C20EF92-B63D-42A8-8878-93C2863E0093";
shapes = (
{
closed = 1;
nodes = (
(954,1448,l),
(954,690,l),
(942,690,l),
(428,1448,l),
(94,1448,l),
(94,0,l),
(486,0,l),
(486,760,l),
(496,760,l),
(1018,0,l),
(1346,0,l),
(1346,1448,l)
);
}
);
width = 1440;
},
{
anchors = (
{
name = bottom;
pos = (746,0);
},
{
name = right;
pos = (1242,0);
},
{
name = top;
pos = (746,1630);
}
);
layerId = "B1F27B51-9973-4381-9301-4FE46FE1CA59";
shapes = (
{
closed = 1;
nodes = (
(1244,1448,l),
(1244,84,l),
(1238,84,l),
(248,1448,l),
(204,1448,l),
(204,0,l),
(248,0,l),
(248,1364,l),
(254,1364,l),
(1244,0,l),
(1290,0,l),
(1290,1448,l)
);
}
);
width = 1494;
},
{
anchors = (
{
name = bottom;
pos = (736,0);
},
{
name = right;
pos = (1310,0);
},
{
name = top;
pos = (736,1630);
}
);
layerId = "CD0E3B44-F66A-4791-B84C-A1128DC61275";
shapes = (
{
closed = 1;
nodes = (
(1132,1448,l),
(1132,318,l),
(1118,318,l),
(334,1448,l),
(160,1448,l),
(160,0,l),
(340,0,l),
(340,1128,l),
(354,1128,l),
(1138,0,l),
(1310,0,l),
(1310,1448,l)
);
}
);
width = 1468;
}
);
metricLeft = H;
metricRight = H;
unicode = 78;
userData = {
"interface.width-adjustments" = (
-16
);
};
}
{
glyphname = O;
kernLeft = C;
kernRight = D;
layers = (
{
anchors = (
{
name = bottom;
pos = (792,0);
},
{
name = ogonek;
pos = (992,6);
},
{
name = tonos;
pos = (166,1448);
},
{
name = top;
pos = (792,1630);
}
);
guides = (
{
angle = 90;
orientation = center;
pos = (1136,940);
}
);
layerId = "5C20EF92-B63D-42A8-8878-93C2863E0093";
shapes = (
{
closed = 1;
nodes = (
(1496,1208,o),
(1186,1468,o),
(792,1468,cs),
(396,1468,o),
(88,1208,o),
(88,724,cs),
(88,244,o),
(396,-20,o),
(792,-20,cs),
(1186,-20,o),
(1496,240,o),
(1496,724,cs)
);
},
{
closed = 1;
nodes = (
(1092,464,o),
(988,322,o),
(792,322,cs),
(596,322,o),
(492,464,o),
(492,724,cs),
(492,984,o),
(596,1126,o),
(792,1126,cs),
(988,1126,o),
(1092,984,o),
(1092,724,cs)
);
}
);
width = 1584;
},
{
anchors = (
{
name = bottom;
pos = (722,0);
},
{
name = ogonek;
pos = (756,0);
},
{
name = tonos;
pos = (192,1448);
},
{
name = top;
pos = (722,1630);
}
);
layerId = "B1F27B51-9973-4381-9301-4FE46FE1CA59";
shapes = (
{
closed = 1;
nodes = (
(1322,1166,o),
(1078,1468,o),
(722,1468,cs),
(364,1468,o),
(122,1166,o),
(122,724,cs),
(122,282,o),
(364,-20,o),
(722,-20,cs),
(1078,-20,o),
(1322,282,o),
(1322,724,cs)
);
},
{
closed = 1;
nodes = (
(1276,308,o),
(1052,26,o),
(722,26,cs),
(388,26,o),
(166,312,o),
(166,724,cs),
(166,1142,o),
(394,1422,o),
(722,1422,cs),
(1052,1422,o),
(1276,1140,o),
(1276,724,cs)
);
}
);
width = 1442;
},
{
anchors = (
{
name = bottom;
pos = (744,0);
},
{
name = ogonek;
pos = (884,-6);
},
{
name = tonos;
pos = (176,1448);
},
{
name = top;
pos = (744,1630);
}
);
layerId = "CD0E3B44-F66A-4791-B84C-A1128DC61275";
shapes = (
{
closed = 1;
nodes = (
(1384,1182,o),
(1114,1468,o),
(744,1468,cs),
(372,1468,o),
(104,1182,o),
(104,724,c),
(104,266,o),
(372,-20,o),
(744,-20,cs),
(1114,-20,o),
(1384,266,o),
(1384,724,c)
);
},
{
closed = 1;
nodes = (
(1210,350,o),
(1006,148,o),
(744,148,cs),
(482,148,o),
(278,350,o),
(278,724,c),
(278,1098,o),
(482,1300,o),
(744,1300,cs),
(1006,1300,o),
(1210,1098,o),
(1210,724,c)
);
}
);
width = 1488;
}
);
unicode = 79;
userData = {
com.typemytype.robofont.guideline.magnetic.GU6fgH972W = 5;
"interface.width-adjustments" = (
-16
);
};
}
{
glyphname = P;
kernLeft = B;
kernRight = P;
layers = (
{
anchors = (
{
name = tonos;
pos = (74,1448);
},
{
name = top;
pos = (640,1630);
}
);
guides = (
{
pos = (-136,1240);
},
{
pos = (-136,764);
},
{
pos = (-136,1552);
},
{
pos = (672,1372);
}
);
layerId = "5C20EF92-B63D-42A8-8878-93C2863E0093";
shapes = (
{
closed = 1;
nodes = (
(486,0,l),
(486,1134,l),
(626,1134,ls),
(764,1134,o),
(846,1060,o),
(846,936,cs),
(846,812,o),
(764,736,o),
(626,736,cs),
(330,736,l),
(330,430,l),
(704,430,ls),
(1034,430,o),
(1256,624,o),
(1256,936,cs),
(1256,1244,o),
(1040,1448,o),
(718,1448,cs),
(94,1448,l),
(94,0,l)
);
}
);
width = 1306;
},
{
anchors = (
{
name = tonos;
pos = (162,1448);
},
{
name = top;
pos = (596,1630);
}
);
layerId = "B1F27B51-9973-4381-9301-4FE46FE1CA59";
shapes = (
{
closed = 1;
nodes = (
(248,0,l),
(248,1404,l),
(628,1404,ls),
(846,1404,o),
(998,1246,o),
(998,1024,cs),
(998,804,o),
(846,648,o),
(628,648,cs),
(226,648,l),
(226,602,l),
(628,602,ls),
(872,602,o),
(1044,778,o),
(1044,1024,cs),
(1044,1272,o),
(872,1448,o),
(628,1448,cs),
(204,1448,l),
(204,0,l)
);
}
);
width = 1162;
},
{
anchors = (
{
name = tonos;
pos = (126,1448);
},
{
name = top;
pos = (616,1630);
}
);
layerId = "CD0E3B44-F66A-4791-B84C-A1128DC61275";
shapes = (
{
closed = 1;
nodes = (
(340,0,l),
(340,1288,l),
(644,1288,ls),
(876,1288,o),
(968,1160,o),
(968,988,cs),
(968,816,o),
(876,686,o),
(646,686,cs),
(302,686,l),
(302,526,l),
(654,526,ls),
(990,526,o),
(1146,730,o),
(1146,988,cs),
(1146,1246,o),
(992,1448,o),
(652,1448,cs),
(160,1448,l),
(160,0,l)
);
}
);
width = 1238;
}
);
metricLeft = H;
unicode = 80;
userData = {
com.typemytype.robofont.guideline.magnetic.fNIC4eKo9v = 5;
com.typemytype.robofont.guideline.magnetic.hdLF6WxJ6g = 5;
"interface.width-adjustments" = (
-16
);
};
}
{
glyphname = Q;
kernLeft = C;
kernRight = D;
layers = (
{
guides = (
{
angle = 90;
pos = (876,1432);
}
);
layerId = "5C20EF92-B63D-42A8-8878-93C2863E0093";
shapes = (
{
closed = 1;
nodes = (
(862,260,l),
(978,94,l),
(1152,-108,l),
(1500,-108,l),
(1256,186,l),
(1070,398,l),
(958,538,l),
(654,538,l)
);
},
{
ref = O;
}
);
width = 1588;
},
{
layerId = "B1F27B51-9973-4381-9301-4FE46FE1CA59";
shapes = (
{
closed = 1;
nodes = (
(1030,118,l),
(1038,108,l),
(1222,-136,l),
(1278,-136,l),
(1078,130,l),
(1070,142,l),
(834,452,l),
(778,452,l)
);
},
{
alignment = -1;
ref = O;
}
);
width = 1442;
},
{
layerId = "CD0E3B44-F66A-4791-B84C-A1128DC61275";
shapes = (
{
closed = 1;
nodes = (
(930,132,l),
(972,76,l),
(1130,-136,l),
(1326,-136,l),
(1086,184,l),
(1040,244,l),
(880,454,l),
(684,454,l)
);
},
{
alignment = -1;
ref = O;
}
);
width = 1488;
}
);
metricLeft = O;
metricRight = O;
unicode = 81;
userData = {
"interface.width-adjustments" = (
-16
);
};
}
{
glyphname = R;
kernLeft = B;
kernRight = R;
layers = (
{
anchors = (
{
name = bottom;
pos = (678,0);
},
{
name = top;
pos = (656,1630);
}
);
guides = (
{
pos = (-136,1552);
},
{
angle = 90;
pos = (1296,0);
},
{
angle = 90;
orientation = center;
pos = (692,220);
}
);
layerId = "5C20EF92-B63D-42A8-8878-93C2863E0093";
shapes = (
{
closed = 1;
nodes = (
(486,0,l),
(486,1134,l),
(626,1134,ls),
(764,1134,o),
(846,1080,o),
(846,956,cs),
(846,832,o),
(764,784,o),
(626,784,cs),
(330,784,l),
(330,478,l),
(704,478,ls),
(1034,478,o),
(1256,644,o),
(1256,956,cs),
(1256,1264,o),
(1040,1448,o),
(718,1448,cs),
(94,1448,l),
(94,0,l)
);
},
{
closed = 1;
nodes = (
(524,664,l),
(876,0,l),
(1304,0,l),
(942,664,l)
);
}
);
width = 1330;
},
{
anchors = (
{
name = bottom;
pos = (606,0);
},
{
name = top;
pos = (586,1630);
}
);
layerId = "B1F27B51-9973-4381-9301-4FE46FE1CA59";
shapes = (
{
closed = 1;
nodes = (
(248,0,l),
(248,1404,l),
(628,1404,ls),
(846,1404,o),
(998,1258,o),
(998,1036,cs),
(998,816,o),
(846,670,o),
(628,670,cs),
(226,670,l),
(226,626,l),
(628,626,ls),
(872,626,o),
(1044,790,o),
(1044,1036,cs),
(1044,1284,o),
(872,1448,o),
(628,1448,cs),
(204,1448,l),
(204,0,l)
);
},
{
closed = 1;
nodes = (
(704,660,l),
(1060,0,l),
(1112,0,l),
(756,660,l)
);
}
);
width = 1180;
},
{
anchors = (
{
name = bottom;
pos = (640,0);
},
{
name = top;
pos = (616,1630);
}
);
layerId = "CD0E3B44-F66A-4791-B84C-A1128DC61275";
shapes = (
{
closed = 1;
nodes = (
(340,0,l),
(340,1288,l),
(644,1288,ls),
(876,1288,o),
(968,1174,o),
(968,1002,cs),
(968,830,o),
(876,726,o),
(646,726,cs),
(258,726,l),
(258,562,l),
(654,562,ls),
(990,562,o),
(1146,744,o),
(1146,1002,cs),
(1146,1260,o),
(992,1448,o),
(652,1448,cs),
(160,1448,l),
(160,0,l)
);
},
{
closed = 1;
nodes = (
(642,650,l),
(992,0,l),
(1202,0,l),
(846,650,l)
);
}
);
width = 1246;
}
);
unicode = 82;
userData = {
com.typemytype.robofont.guideline.magnetic.vulxOItvKZ = 5;
"interface.width-adjustments" = (
-16
);
};
}
{
glyphname = S;
kernLeft = S;
kernRight = S;
layers = (
{
anchors = (
{
name = bottom;
pos = (670,0);
},
{
name = cedilla;
pos = (668,0);
},
{
name = top;
pos = (664,1630);
}
);
guides = (
{
pos = (-136,764);
},
{
pos = (-136,1552);
},
{
angle = 90;
orientation = center;
pos = (1024,-132);
}
);
layerId = "5C20EF92-B63D-42A8-8878-93C2863E0093";
shapes = (
{
closed = 1;
nodes = (
(1250,996,l),
(1248,1280,o),
(1028,1468,o),
(678,1468,cs),
(334,1468,o),
(92,1284,o),
(94,1008,cs),
(94,782,o),
(250,656,o),
(506,600,cs),
(650,568,ls),
(812,532,o),
(866,494,o),
(868,428,cs,{
name = hr00;
}),
(866,356,o),
(802,306,o),
(676,306,cs),
(526,306,o),
(436,378,o),
(430,510,c),
(56,510,l),
(58,146,o),
(304,-16,o),
(682,-16,cs),
(1050,-16,o),
(1268,142,o),
(1270,428,cs),
(1268,648,o),
(1138,804,o),
(818,872,cs),
(698,896,ls),
(560,924,o),
(500,966,o),
(504,1036,cs),
(504,1100,o),
(556,1146,o),
(678,1146,cs),
(806,1146,o),
(866,1090,o),
(874,996,c)
);
}
);
width = 1326;
},
{
anchors = (
{
name = bottom;
pos = (588,-22);
},
{
name = cedilla;
pos = (588,0);
},
{
name = top;
pos = (588,1630);
}
);
layerId = "B1F27B51-9973-4381-9301-4FE46FE1CA59";
shapes = (
{
closed = 1;
nodes = (
(1024,1086,l),
(1010,1310,o),
(842,1470,o),
(594,1470,cs),
(346,1470,o),
(164,1312,o),
(164,1098,cs),
(164,930,o),
(276,814,o),
(504,742,cs),
(668,690,ls),
(902,618,o),
(998,524,o),
(998,368,cs),
(998,162,o),
(830,22,o),
(582,22,cs),
(342,22,o),
(190,152,o),
(176,340,c),
(130,340,l),
(144,128,o),
(318,-22,o),
(582,-22,cs),
(856,-22,o),
(1044,140,o),
(1044,368,cs),
(1044,546,o),
(928,658,o),
(678,736,cs),
(514,786,ls),
(306,850,o),
(210,950,o),
(210,1098,cs),
(210,1288,o),
(372,1426,o),
(594,1426,cs),
(818,1426,o),
(964,1284,o),
(978,1086,c)
);
}
);
width = 1174;
},
{
anchors = (
{
name = bottom;
pos = (624,-26);
},
{
name = cedilla;
pos = (624,0);
},
{
name = top;
pos = (620,1630);
}
);
layerId = "CD0E3B44-F66A-4791-B84C-A1128DC61275";
shapes = (
{
closed = 1;
nodes = (
(1126,1084,l),
(1118,1304,o),
(918,1468,o),
(636,1468,cs),
(356,1468,o),
(138,1306,o),
(138,1062,cs),
(138,866,o),
(278,750,o),
(506,684,cs),
(684,636,ls),
(836,594,o),
(970,540,o),
(970,398,cs),
(970,242,o),
(820,138,o),
(620,138,cs),
(448,138,o),
(296,214,o),
(282,376,c),
(98,376,l),
(114,136,o),
(308,-26,o),
(620,-26,cs),
(956,-26,o),
(1146,158,o),
(1146,394,cs),
(1146,664,o),
(890,754,o),
(736,794,cs),
(592,834,ls),
(484,862,o),
(312,918,o),
(312,1070,cs),
(312,1208,o),
(440,1308,o),
(630,1308,cs),
(804,1308,o),
(934,1226,o),
(950,1084,c)
);
}
);
width = 1244;
}
);
unicode = 83;
userData = {
com.typemytype.robofont.guideline.magnetic.yXeOBXqbc8 = 5;
"interface.width-adjustments" = (
-16
);
};
}
{
glyphname = T;
kernLeft = T;
kernRight = T;
layers = (
{
anchors = (
{
name = bottom;
pos = (682,0);
},
{
name = cedilla;
pos = (676,0);
},
{
name = cross;
pos = (682,648);
},
{
name = cyrtic;
pos = (1046,158);
},
{
name = right;
pos = (832,0);
},
{
name = top;
pos = (684,1630);
}
);
guides = (
{
angle = 90;
orientation = center;
pos = (824,956);
}
);
layerId = "5C20EF92-B63D-42A8-8878-93C2863E0093";
shapes = (
{
closed = 1;
nodes = (
(490,1132,l),
(490,0,l),
(876,0,l),
(876,1132,l),
(1312,1132,l),
(1312,1448,l),
(54,1448,l),
(54,1132,l)
);
}
);
width = 1366;
},
{
anchors = (
{
name = bottom;
pos = (588,0);
},
{
name = cedilla;
pos = (588,-6);
},
{
name = cross;
pos = (588,746);
},
{
name = cyrtic;
pos = (630,6);
},
{
name = right;
pos = (600,0);
},
{
name = top;
pos = (588,1630);
}
);
layerId = "B1F27B51-9973-4381-9301-4FE46FE1CA59";
shapes = (
{
closed = 1;
nodes = (
(566,1404,l),
(566,0,l),
(612,0,l),
(612,1404,l),
(1078,1404,l),
(1078,1448,l),
(100,1448,l),
(100,1404,l)
);
}
);
width = 1176;
},
{
anchors = (
{
name = bottom;
pos = (626,0);
},
{
name = cedilla;
pos = (648,0);
},
{
name = cross;
pos = (626,744);
},
{
name = cyrtic;
pos = (798,66);
},
{
name = right;
pos = (668,0);
},
{
name = top;
pos = (626,1630);
}
);
layerId = "CD0E3B44-F66A-4791-B84C-A1128DC61275";
shapes = (
{
closed = 1;
nodes = (
(536,1288,l),
(536,0,l),
(718,0,l),
(718,1288,l),
(1172,1288,l),
(1172,1448,l),
(80,1448,l),
(80,1288,l)
);
}
);
width = 1252;
}
);
unicode = 84;
userData = {
"interface.width-adjustments" = (
-16
);
};
}
{
glyphname = U;
kernLeft = U;
kernRight = J;
layers = (
{
anchors = (
{
name = bottom;
pos = (718,8);
},
{
name = ogonek;
pos = (934,0);
},
{
name = right;
pos = (842,0);
},
{
name = top;
pos = (718,1630);
}
);
guides = (
{
pos = (-136,1240);
},
{
pos = (-136,764);
},
{
pos = (-136,1552);
},
{
angle = 90;
orientation = center;
pos = (884,564);
}
);
layerId = "5C20EF92-B63D-42A8-8878-93C2863E0093";
shapes = (
{
closed = 1;
nodes = (
(950,554,ls),
(950,418,o),
(854,322,o),
(718,322,cs),
(582,322,o),
(486,418,o),
(486,554,cs),
(486,1448,l),
(94,1448,l),
(94,520,ls),
(94,190,o),
(344,-16,o),
(718,-16,cs),
(1090,-16,o),
(1344,190,o),
(1344,520,cs),
(1344,1448,l),
(950,1448,l)
);
}
);
width = 1438;
},
{
anchors = (
{
name = bottom;
pos = (724,-22);
},
{
name = ogonek;
pos = (784,0);
},
{
name = right;
pos = (784,0);
},
{
name = top;
pos = (724,1630);
}
);
layerId = "B1F27B51-9973-4381-9301-4FE46FE1CA59";
shapes = (
{
closed = 1;
nodes = (
(1200,490,ls),
(1200,222,o),
(996,22,o),
(724,22,cs),
(452,22,o),
(248,222,o),
(248,490,cs),
(248,1448,l),
(204,1448,l),
(204,490,ls),
(202,198,o),
(428,-22,o),
(724,-22,cs),
(1022,-22,o),
(1244,196,o),
(1244,490,cs),
(1244,1448,l),
(1200,1448,l)
);
}
);
width = 1448;
},
{
anchors = (
{
name = bottom;
pos = (724,-20);
},
{
name = ogonek;
pos = (864,2);
},
{
name = right;
pos = (806,0);
},
{
name = top;
pos = (724,1630);
}
);
layerId = "CD0E3B44-F66A-4791-B84C-A1128DC61275";
shapes = (
{
closed = 1;
nodes = (
(1108,504,ls),
(1108,294,o),
(964,142,o),
(724,142,cs),
(484,142,o),
(340,294,o),
(340,504,cs),
(340,1448,l),
(160,1448,l),
(160,490,ls),
(160,192,o),
(382,-26,o),
(724,-26,cs),
(1064,-26,o),
(1288,192,o),
(1288,490,cs),
(1288,1448,l),
(1108,1448,l)
);
}
);
width = 1446;
}
);
unicode = 85;
userData = {
com.typemytype.robofont.guideline.magnetic.icXM2D4lH7 = 5;
"interface.width-adjustments" = (
-16
);
};
}
{
glyphname = V;
kernLeft = V;
kernRight = V;
layers = (
{
anchors = (
{
name = bottom;
pos = (792,0);
},
{
name = top;
pos = (792,1630);
}
);
guides = (
{
angle = 90;
orientation = center;
pos = (892,1048);
}
);
layerId = "5C20EF92-B63D-42A8-8878-93C2863E0093";
shapes = (
{
closed = 1;
nodes = (
(46,1448,l),
(524,0,l),
(1060,0,l),
(1538,1448,l),
(1094,1448,l),
(798,428,l),
(786,428,l),
(490,1448,l)
);
}
);
width = 1584;
},
{
anchors = (
{
name = bottom;
pos = (592,0);
},
{
name = top;
pos = (592,1630);
}
);
layerId = "B1F27B51-9973-4381-9301-4FE46FE1CA59";
shapes = (
{
closed = 1;
nodes = (
(42,1448,l),
(560,0,l),
(622,0,l),
(1140,1448,l),
(1092,1448,l),
(594,56,l),
(588,56,l),
(90,1448,l)
);
}
);
width = 1182;
},
{
anchors = (
{
name = bottom;
pos = (660,0);
},
{
name = top;
pos = (660,1630);
}
);
layerId = "CD0E3B44-F66A-4791-B84C-A1128DC61275";
shapes = (
{
closed = 1;
nodes = (
(36,1448,l),
(566,0,l),
(756,0,l),
(1286,1448,l),
(1096,1448,l),
(668,234,l),
(652,234,l),
(226,1448,l)
);
}
);
width = 1322;
}
);
metricLeft = A;
metricRight = A;
unicode = 86;
userData = {
com.typemytype.robofont.guideline.magnetic.IJvllllLzF = 5;
com.typemytype.robofont.guideline.magnetic.KeOP4W9VuQ = 5;
com.typemytype.robofont.guideline.magnetic.yHrbtxZ5FX = 5;
"interface.width-adjustments" = (
-16
);
};
}
{
glyphname = W;
kernLeft = W;
kernRight = W;
layers = (
{
anchors = (
{
name = bottom;
pos = (1086,0);
},
{
name = top;
pos = (1086,1630);
}
);
guides = (
{
angle = 90;
orientation = center;
pos = (191,2076);
}
);
layerId = "5C20EF92-B63D-42A8-8878-93C2863E0093";
metricLeft = "=A-16";
metricRight = "=A-16";
shapes = (
{
closed = 1;
nodes = (
(834,0,l),
(1080,810,l),
(1090,810,l),
(1336,0,l),
(1714,0,l),
(2140,1448,l),
(1702,1448,l),
(1504,554,l),
(1492,554,l),
(1258,1448,l),
(912,1448,l),
(678,558,l),
(666,558,l),
(468,1448,l),
(30,1448,l),
(458,0,l)
);
}
);
width = 2170;
},
{
anchors = (
{
name = bottom;
pos = (862,12);
},
{
name = top;
pos = (862,1630);
}
);
layerId = "B1F27B51-9973-4381-9301-4FE46FE1CA59";
metricLeft = "=A-12";
metricRight = "=A-12";
shapes = (
{
closed = 1;
nodes = (
(492,0,l),
(858,1378,l),
(864,1378,l),
(1232,0,l),
(1294,0,l),
(1694,1448,l),
(1646,1448,l),
(1266,70,l),
(1260,70,l),
(892,1448,l),
(830,1448,l),
(462,70,l),
(458,70,l),
(78,1448,l),
(30,1448,l),
(428,0,l)
);
}
);
width = 1724;
},
{
anchors = (
{
name = bottom;
pos = (938,12);
},
{
name = top;
pos = (938,1630);
}
);
layerId = "CD0E3B44-F66A-4791-B84C-A1128DC61275";
shapes = (
{
closed = 1;
nodes = (
(614,0,l),
(932,1146,l),
(944,1146,l),
(1260,0,l),
(1446,0,l),
(1842,1448,l),
(1660,1448,l),
(1358,276,l),
(1346,276,l),
(1038,1448,l),
(836,1448,l),
(530,276,l),
(516,276,l),
(214,1448,l),
(32,1448,l),
(428,0,l)
);
}
);
width = 1874;
}
);
unicode = 87;
userData = {
com.typemytype.robofont.guideline.magnetic.8gZT6dIVxI = 5;
com.typemytype.robofont.guideline.magnetic.ZoWqubfLj9 = 5;
com.typemytype.robofont.guideline.magnetic.k6chDe7LUI = 5;
com.typemytype.robofont.guideline.magnetic.tUpIEqa0MC = 5;
"interface.width-adjustments" = (
-16
);
};
}
{
glyphname = X;
kernLeft = X;
kernRight = X;
layers = (
{
anchors = (
{
name = bottom;
pos = (758,-6);
},
{
name = cross;
pos = (758,724);
},
{
name = cyrtic;
pos = (1386,158);
},
{
name = right;
pos = (1256,0);
},
{
name = top;
pos = (758,1630);
}
);
guides = (
{
angle = 90;
orientation = center;
pos = (848,2152);
},
{
angle = 90;
pos = (-52,2084);
},
{
angle = 90;
pos = (1748,2080);
},
{
orientation = center;
pos = (1008,1024);
}
);
layerId = "5C20EF92-B63D-42A8-8878-93C2863E0093";
shapes = (
{
closed = 1;
nodes = (
(74,1448,l),
(504,724,l),
(60,0,l),
(506,0,l),
(752,430,l),
(764,430,l),
(1010,0,l),
(1460,0,l),
(1010,724,l),
(1442,1448,l),
(1004,1448,l),
(764,1026,l),
(752,1026,l),
(514,1448,l)
);
}
);
width = 1520;
},
{
anchors = (
{
name = bottom;
pos = (560,12);
},
{
name = cross;
pos = (560,724);
},
{
name = cyrtic;
pos = (1072,6);
},
{
name = right;
pos = (1026,0);
},
{
name = top;
pos = (560,1630);
}
);
layerId = "B1F27B51-9973-4381-9301-4FE46FE1CA59";
shapes = (
{
closed = 1;
nodes = (
(46,1448,l),
(532,724,l),
(46,0,l),
(102,0,l),
(558,682,l),
(562,682,l),
(1018,0,l),
(1074,0,l),
(588,724,l),
(1074,1448,l),
(1018,1448,l),
(562,766,l),
(558,766,l),
(102,1448,l)
);
}
);
width = 1120;
},
{
anchors = (
{
name = bottom;
pos = (626,12);
},
{
name = cross;
pos = (626,724);
},
{
name = cyrtic;
pos = (1182,66);
},
{
name = right;
pos = (1086,0);
},
{
name = top;
pos = (626,1630);
}
);
layerId = "CD0E3B44-F66A-4791-B84C-A1128DC61275";
shapes = (
{
closed = 1;
nodes = (
(38,1448,l),
(504,724,l),
(38,0,l),
(250,0,l),
(620,586,l),
(632,586,l),
(1002,0,l),
(1214,0,l),
(760,724,l),
(1214,1448,l),
(1002,1448,l),
(632,850,l),
(620,850,l),
(252,1448,l)
);
}
);
width = 1254;
}
);
unicode = 88;
userData = {
com.typemytype.robofont.guideline.magnetic.1jwe8yH4eD = 5;
com.typemytype.robofont.guideline.magnetic.AJAcp0DKEy = 5;
com.typemytype.robofont.guideline.magnetic.QFtArEHSdm = 5;
com.typemytype.robofont.guideline.magnetic.TR4vAYYyfi = 5;
com.typemytype.robofont.guideline.magnetic.nnmV4p3je2 = 5;
"interface.width-adjustments" = (
-16
);
};
}
{
glyphname = Y;
kernLeft = Y;
kernRight = Y;
layers = (
{
anchors = (
{
name = bottom;
pos = (760,0);
},
{
name = cross;
pos = (760,540);
},
{
name = ogonek;
pos = (956,0);
},
{
name = tonos;
pos = (-68,1448);
},
{
name = top;
pos = (760,1630);
}
);
guides = (
{
angle = 90;
orientation = center;
pos = (832,1724);
}
);
layerId = "5C20EF92-B63D-42A8-8878-93C2863E0093";
shapes = (
{
closed = 1;
nodes = (
(566,456,l),
(566,0,l),
(956,0,l),
(956,456,l),
(1488,1448,l),
(1050,1448,l),
(766,860,l),
(756,860,l),
(472,1448,l),
(34,1448,l)
);
}
);
width = 1522;
},
{
anchors = (
{
name = bottom;
pos = (586,0);
},
{
name = cross;
pos = (588,588);
},
{
name = ogonek;
pos = (612,0);
},
{
name = tonos;
pos = (20,1448);
},
{
name = top;
pos = (588,1630);
}
);
layerId = "B1F27B51-9973-4381-9301-4FE46FE1CA59";
shapes = (
{
closed = 1;
nodes = (
(566,688,l),
(566,0,l),
(612,0,l),
(612,688,l),
(1132,1448,l),
(1074,1448,l),
(592,738,l),
(586,738,l),
(102,1448,l),
(46,1448,l)
);
}
);
width = 1176;
},
{
anchors = (
{
name = bottom;
pos = (650,0);
},
{
name = cross;
pos = (650,576);
},
{
name = ogonek;
pos = (740,0);
},
{
name = tonos;
pos = (-20,1448);
},
{
name = top;
pos = (650,1630);
}
);
layerId = "CD0E3B44-F66A-4791-B84C-A1128DC61275";
shapes = (
{
closed = 1;
nodes = (
(558,594,l),
(558,0,l),
(740,0,l),
(740,594,l),
(1264,1448,l),
(1056,1448,l),
(658,776,l),
(640,776,l),
(242,1448,l),
(36,1448,l)
);
}
);
width = 1298;
}
);
unicode = 89;
userData = {
com.typemytype.robofont.guideline.magnetic.KceIXUepDd = 5;
com.typemytype.robofont.guideline.magnetic.TWkdg41wEI = 5;
com.typemytype.robofont.guideline.magnetic.o5DXjGQkF9 = 5;
"interface.width-adjustments" = (
-16
);
};
}
{
glyphname = Z;
kernLeft = Z;
kernRight = Z;
layers = (
{
anchors = (
{
name = bottom;
pos = (694,0);
},
{
name = cross;
pos = (722,766);
},
{
name = top;
pos = (696,1630);
}
);
guides = (
{
pos = (-136,1552);
},
{
angle = 55.0453;
pos = (1544,1788);
},
{
angle = 55.0343;
pos = (-12,276);
},
{
angle = 90;
pos = (-16,1664);
},
{
angle = 90;
pos = (1536,384);
},
{
angle = 90;
orientation = center;
pos = (960,800);
}
);
layerId = "5C20EF92-B63D-42A8-8878-93C2863E0093";
shapes = (
{
closed = 1;
nodes = (
(1282,0,l),
(1282,316,l),
(600,316,l),
(1284,1230,l),
(1284,1448,l),
(102,1448,l),
(102,1132,l),
(784,1132,l),
(100,218,l),
(100,0,l)
);
}
);
width = 1384;
},
{
anchors = (
{
name = bottom;
pos = (580,0);
},
{
name = cross;
pos = (580,724);
},
{
name = top;
pos = (580,1630);
}
);
guides = (
{
angle = 90;
pos = (76,684);
},
{
angle = 90;
pos = (1356,684);
}
);
layerId = "B1F27B51-9973-4381-9301-4FE46FE1CA59";
shapes = (
{
closed = 1;
nodes = (
(1038,0,l),
(1038,46,l),
(182,46,l),
(1032,1404,l),
(1032,1448,l),
(132,1448,l),
(132,1404,l),
(978,1404,l),
(128,46,l),
(128,0,l)
);
}
);
width = 1160;
},
{
anchors = (
{
name = bottom;
pos = (602,0);
},
{
name = cross;
pos = (624,746);
},
{
name = top;
pos = (608,1630);
}
);
layerId = "CD0E3B44-F66A-4791-B84C-A1128DC61275";
shapes = (
{
closed = 1;
nodes = (
(1114,0,l),
(1114,160,l),
(328,160,l),
(1106,1318,l),
(1106,1448,l),
(104,1448,l),
(104,1288,l),
(890,1288,l),
(112,130,l),
(112,0,l)
);
}
);
width = 1218;
}
);
unicode = 90;
userData = {
com.typemytype.robofont.guideline.magnetic.7L9fK9Z9Br = 5;
com.typemytype.robofont.guideline.magnetic.DPCAFAyemJ = 5;
com.typemytype.robofont.guideline.magnetic.VxRM18zW9m = 5;
"interface.width-adjustments" = (
-16
);
};
}
{
glyphname = bracketleft;
kernLeft = parenleft;
kernRight = parenleft;
layers = (
{
layerId = "5C20EF92-B63D-42A8-8878-93C2863E0093";
shapes = (
{
closed = 1;
nodes = (
(846,-408,l),
(846,-124,l),
(574,-124,l),
(574,1228,l),
(846,1228,l),
(846,1510,l),
(196,1510,l),
(196,-408,l)
);
}
);
width = 876;
},
{
guides = (
{
pos = (-84,2728);
},
{
pos = (-84,168);
}
);
layerId = "B1F27B51-9973-4381-9301-4FE46FE1CA59";
shapes = (
{
closed = 1;
nodes = (
(476,-408,l),
(476,-362,l),
(272,-362,l),
(272,1466,l),
(476,1466,l),
(476,1510,l),
(226,1510,l),
(226,-408,l)
);
}
);
width = 582;
},
{
layerId = "CD0E3B44-F66A-4791-B84C-A1128DC61275";
shapes = (
{
closed = 1;
nodes = (
(644,-408,l),
(644,-264,l),
(382,-264,l),
(382,1368,l),
(644,1368,l),
(644,1510,l),
(220,1510,l),
(220,-408,l)
);
}
);
width = 698;
}
);
metricWidth = parenleft;
unicode = 91;
}
{
glyphname = backslash;
kernLeft = V;
kernRight = A;
layers = (
{
layerId = "5C20EF92-B63D-42A8-8878-93C2863E0093";
metricLeft = "=|slash";
metricRight = "=|slash";
shapes = (
{
closed = 1;
nodes = (
(808,-218,l),
(340,1516,l),
(10,1516,l),
(476,-218,l)
);
}
);
width = 820;
},
{
layerId = "B1F27B51-9973-4381-9301-4FE46FE1CA59";
metricLeft = "=|slash";
metricRight = "=|slash";
shapes = (
{
closed = 1;
nodes = (
(554,-218,l),
(88,1516,l),
(40,1516,l),
(506,-218,l)
);
}
);
width = 596;
},
{
layerId = "CD0E3B44-F66A-4791-B84C-A1128DC61275";
shapes = (
{
closed = 1;
nodes = (
(654,-218,l),
(186,1516,l),
(30,1516,l),
(496,-218,l)
);
}
);
width = 684;
}
);
unicode = 92;
userData = {
"interface.width-adjustments" = (
-16
);
};
}
{
glyphname = asciicircum;
kernLeft = asciicircum;
kernRight = asciicircum;
layers = (
{
guides = (
{
pos = (-140,248);
},
{
pos = (-140,724);
}
);
layerId = "5C20EF92-B63D-42A8-8878-93C2863E0093";
shapes = (
{
closed = 1;
nodes = (
(472,1054,l),
(524,1054,l),
(524,1136,l),
(472,1136,l)
);
},
{
closed = 1;
nodes = (
(382,792,l),
(514,1108,l),
(480,1108,l),
(614,792,l),
(940,792,l),
(636,1426,l),
(360,1426,l),
(56,792,l)
);
}
);
width = 996;
},
{
layerId = "B1F27B51-9973-4381-9301-4FE46FE1CA59";
shapes = (
{
closed = 1;
nodes = (
(362,1330,l),
(390,1330,l),
(390,1374,l),
(362,1374,l)
);
},
{
closed = 1;
nodes = (
(122,792,l),
(388,1358,l),
(364,1358,l),
(630,792,l),
(682,792,l),
(394,1404,l),
(360,1404,l),
(70,792,l)
);
}
);
width = 752;
},
{
layerId = "CD0E3B44-F66A-4791-B84C-A1128DC61275";
shapes = (
{
closed = 1;
nodes = (
(428,1252,l),
(478,1252,l),
(478,1322,l),
(428,1322,l)
);
},
{
closed = 1;
nodes = (
(234,792,l),
(462,1280,l),
(444,1280,l),
(672,792,l),
(842,792,l),
(548,1404,l),
(356,1404,l),
(64,792,l)
);
}
);
width = 906;
}
);
unicode = 94;
userData = {
interface.gridadjust.original = "{'width': 1178, 'leftMargin': 84, 'rightMargin': 86}";
"interface.width-adjustments" = (
-16
);
};
}
{
glyphname = underscore;
layers = (
{
anchors = (
{
name = _bottom;
pos = (492,122);
}
);
guides = (
{
angle = 90;
orientation = center;
pos = (732,132);
}
);
layerId = "5C20EF92-B63D-42A8-8878-93C2863E0093";
shapes = (
{
closed = 1;
nodes = (
(0,0,l),
(0,-278,l),
(982,-278,l),
(982,0,l)
);
}
);
width = 982;
},
{
anchors = (
{
name = _bottom;
pos = (398,172);
}
);
layerId = "B1F27B51-9973-4381-9301-4FE46FE1CA59";
shapes = (
{
closed = 1;
nodes = (
(-28,0,l),
(-28,-46,l),
(832,-46,l),
(832,0,l)
);
}
);
width = 804;
},
{
anchors = (
{
name = _bottom;
pos = (432,152);
}
);
layerId = "CD0E3B44-F66A-4791-B84C-A1128DC61275";
shapes = (
{
closed = 1;
nodes = (
(-18,0,l),
(-18,-158,l),
(888,-158,l),
(888,0,l)
);
}
);
width = 870;
}
);
unicode = 95;
}
{
glyphname = a;
kernLeft = a;
kernRight = a;
layers = (
{
anchors = (
{
name = bottom;
pos = (586,0);
},
{
name = ogonek;
pos = (1090,0);
},
{
name = rhalfring;
pos = (608,1268);
},
{
name = top;
pos = (600,1268);
}
);
guides = (
{
pos = (-172,2280);
},
{
angle = 90;
pos = (676,1164);
}
);
layerId = "5C20EF92-B63D-42A8-8878-93C2863E0093";
shapes = (
{
closed = 1;
nodes = (
(706,658,o),
(546,652,o),
(448,646,cs),
(224,634,o),
(48,538,o),
(48,300,cs),
(48,84,o),
(194,-16,o),
(402,-16,cs),
(544,-16,o),
(650,30,o),
(716,152,c),
(724,152,l),
(724,0,l),
(1090,0,l),
(1090,744,ls),
(1090,944,o),
(898,1100,o),
(588,1100,cs),
(264,1100,o),
(104,930,o),
(90,732,c),
(450,732,l),
(460,800,o),
(508,832,o),
(582,832,cs),
(650,832,o),
(698,800,o),
(698,744,cs),
(702,384,ls),
(702,284,o),
(616,230,o),
(528,230,cs),
(462,230,o),
(416,262,o),
(416,322,cs),
(416,378,o),
(456,422,o),
(518,430,cs),
(578,438,o),
(706,442,o),
(716,442,c),
(714,658,l)
);
}
);
width = 1176;
},
{
anchors = (
{
name = bottom;
pos = (518,0);
},
{
name = ogonek;
pos = (858,0);
},
{
name = rhalfring;
pos = (518,1268);
},
{
name = top;
pos = (514,1268);
}
);
guides = (
{
angle = 90;
pos = (612,2200);
}
);
layerId = "B1F27B51-9973-4381-9301-4FE46FE1CA59";
shapes = (
{
closed = 1;
nodes = (
(818,644,o),
(586,626,o),
(492,618,cs),
(186,594,o),
(110,442,o),
(110,294,cs),
(110,90,o),
(264,-22,o),
(442,-22,cs),
(606,-22,o),
(738,72,o),
(806,220,c),
(812,220,l),
(812,0,l),
(858,0,l),
(858,780,ls),
(858,964,o),
(722,1104,o),
(504,1104,cs),
(320,1104,o),
(164,1010,o),
(138,852,c),
(184,852,l),
(214,986,o),
(348,1058,o),
(504,1058,cs),
(690,1058,o),
(812,946,o),
(812,780,cs),
(812,464,ls),
(812,200,o),
(648,22,o),
(442,22,cs),
(280,22,o),
(156,130,o),
(156,294,cs),
(156,432,o),
(232,554,o),
(510,576,cs),
(584,582,o),
(818,602,o),
(828,602,c),
(828,644,l)
);
}
);
width = 1032;
},
{
anchors = (
{
name = bottom;
pos = (558,0);
},
{
name = ogonek;
pos = (960,0);
},
{
name = rhalfring;
pos = (558,1268);
},
{
name = top;
pos = (568,1268);
}
);
layerId = "CD0E3B44-F66A-4791-B84C-A1128DC61275";
shapes = (
{
closed = 1;
nodes = (
(784,644,o),
(574,634,o),
(494,628,cs),
(306,614,o),
(86,556,o),
(86,308,cs),
(86,96,o),
(250,-26,o),
(456,-26,cs),
(644,-26,o),
(744,76,o),
(780,148,c),
(788,148,l),
(788,0,l),
(958,0,l),
(958,716,ls),
(958,1058,o),
(692,1100,o),
(550,1100,cs),
(310,1100,o),
(140,980,o),
(118,804,c),
(298,804,l),
(324,888,o),
(404,950,o),
(542,950,cs),
(706,950,o),
(788,870,o),
(788,732,cs),
(788,394,ls),
(788,258,o),
(682,128,o),
(486,128,cs),
(354,128,o),
(258,186,o),
(258,300,cs),
(258,418,o),
(358,474,o),
(514,484,cs),
(574,488,o),
(790,504,o),
(802,504,c),
(800,644,l)
);
}
);
width = 1096;
}
);
unicode = 97;
userData = {
com.typemytype.robofont.guideline.magnetic.bPqRSFRUb5 = 5;
"interface.width-adjustments" = (
-16
);
};
}
{
glyphname = b;
kernLeft = B;
kernRight = b;
layers = (
{
anchors = (
{
name = bottom;
pos = (614,0);
},
{
name = cross;
pos = (286,1244);
},
{
name = top;
pos = (810,1268);
}
);
guides = (
{
angle = 90;
orientation = center;
pos = (904,128);
}
);
layerId = "5C20EF92-B63D-42A8-8878-93C2863E0093";
shapes = (
{
closed = 1;
nodes = (
(480,0,l),
(480,178,l),
(490,178,l),
(536,68,o),
(640,-14,o),
(792,-14,cs),
(1024,-14,o),
(1220,168,o),
(1220,544,c),
(1220,938,o),
(1008,1100,o),
(794,1100,cs),
(632,1100,o),
(532,1006,o),
(490,896,c),
(484,896,l),
(484,1448,l),
(94,1448,l),
(94,0,l)
);
},
{
closed = 1;
nodes = (
(476,706,o),
(540,800,o),
(648,800,cs),
(756,800,o),
(818,706,o),
(818,544,cs),
(818,382,o),
(756,286,o),
(648,286,cs),
(540,286,o),
(476,386,o),
(476,544,c)
);
}
);
width = 1284;
},
{
anchors = (
{
name = bottom;
pos = (622,0);
},
{
name = cross;
pos = (226,1244);
},
{
name = top;
pos = (622,1268);
}
);
guides = (
{
angle = 90;
pos = (776,2164);
}
);
layerId = "B1F27B51-9973-4381-9301-4FE46FE1CA59";
metricRight = "=e";
shapes = (
{
closed = 1;
nodes = (
(248,0,l),
(248,272,l),
(254,272,l),
(312,92,o),
(448,-22,o),
(622,-22,cs),
(878,-22,o),
(1040,218,o),
(1040,540,cs),
(1040,860,o),
(876,1104,o),
(622,1104,cs),
(450,1104,o),
(310,992,o),
(254,810,c),
(248,810,l),
(248,1448,l),
(204,1448,l),
(204,0,l)
);
},
{
closed = 1;
nodes = (
(248,834,o),
(392,1058,o),
(622,1058,cs),
(852,1058,o),
(996,834,o),
(996,540,cs),
(996,246,o),
(852,22,o),
(622,22,cs),
(392,22,o),
(248,246,o),
(248,540,cs)
);
}
);
width = 1146;
},
{
anchors = (
{
name = bottom;
pos = (654,0);
},
{
name = cross;
pos = (248,1244);
},
{
name = top;
pos = (658,1268);
}
);
layerId = "CD0E3B44-F66A-4791-B84C-A1128DC61275";
shapes = (
{
closed = 1;
nodes = (
(326,0,l),
(326,166,l),
(346,166,l),
(384,106,o),
(454,-22,o),
(662,-22,cs),
(932,-22,o),
(1124,194,o),
(1124,540,cs),
(1124,884,o),
(932,1100,o),
(660,1100,cs),
(450,1100,o),
(384,972,o),
(346,914,c),
(332,914,l),
(332,1448,l),
(160,1448,l),
(160,0,l)
);
},
{
closed = 1;
nodes = (
(328,786,o),
(436,946,o),
(636,946,cs),
(846,946,o),
(950,772,o),
(950,544,cs),
(950,314,o),
(842,132,o),
(636,132,cs),
(438,132,o),
(328,300,o),
(328,544,cs)
);
}
);
width = 1210;
}
);
unicode = 98;
userData = {
"interface.width-adjustments" = (
-16
);
};
}
{
glyphname = c;
kernLeft = c;
kernRight = c;
layers = (
{
anchors = (
{
name = cedilla;
pos = (626,0);
},
{
name = top;
pos = (626,1268);
}
);
guides = (
{
pos = (936,896);
},
{
angle = 90;
pos = (736,744);
},
{
pos = (936,768);
},
{
pos = (936,640);
}
);
layerId = "5C20EF92-B63D-42A8-8878-93C2863E0093";
shapes = (
{
closed = 1;
nodes = (
(944,-20,o),
(1142,164,o),
(1146,452,c),
(784,452,l),
(776,338,o),
(714,278,o),
(628,278,cs),
(526,278,o),
(458,366,o),
(458,544,cs),
(458,722,o),
(526,810,o),
(628,810,cs),
(714,810,o),
(774,748,o),
(784,634,c),
(1146,634,l),
(1144,916,o),
(942,1100,o),
(622,1100,cs),
(268,1100,o),
(60,874,o),
(60,540,cs),
(60,206,o),
(268,-20,o),
(622,-20,cs)
);
}
);
width = 1208;
},
{
anchors = (
{
name = cedilla;
pos = (548,0);
},
{
name = top;
pos = (548,1268);
}
);
guides = (
{
angle = 90;
pos = (672,2200);
}
);
layerId = "B1F27B51-9973-4381-9301-4FE46FE1CA59";
shapes = (
{
closed = 1;
nodes = (
(758,-22,o),
(918,110,o),
(950,316,c),
(902,316,l),
(876,138,o),
(734,22,o),
(560,22,cs),
(318,22,o),
(150,250,o),
(150,540,cs),
(150,838,o),
(326,1058,o),
(560,1058,cs),
(732,1058,o),
(872,940,o),
(900,770,c),
(948,770,l),
(914,968,o),
(754,1104,o),
(560,1104,cs),
(294,1104,o),
(104,858,o),
(104,540,cs),
(104,218,o),
(296,-22,o),
(560,-22,cs)
);
}
);
width = 1056;
},
{
anchors = (
{
name = cedilla;
pos = (576,0);
},
{
name = top;
pos = (576,1268);
}
);
layerId = "CD0E3B44-F66A-4791-B84C-A1128DC61275";
shapes = (
{
closed = 1;
nodes = (
(824,-22,o),
(984,126,o),
(1010,320,c),
(838,320,l),
(806,202,o),
(710,132,o),
(582,132,cs),
(386,132,o),
(258,294,o),
(258,544,cs),
(258,788,o),
(388,948,o),
(582,948,cs),
(728,948,o),
(812,858,o),
(838,758,c),
(1010,758,l),
(984,964,o),
(808,1100,o),
(578,1100,cs),
(282,1100,o),
(86,868,o),
(86,538,cs),
(86,212,o),
(276,-22,o),
(582,-22,cs)
);
}
);
width = 1084;
}
);
unicode = 99;
userData = {
com.typemytype.robofont.guideline.magnetic.woLfa0Gzpt = 5;
"interface.width-adjustments" = (
-16
);
};
}
{
glyphname = d;
kernLeft = c;
kernRight = H;
layers = (
{
anchors = (
{
name = bottom;
pos = (642,0);
},
{
name = cross;
pos = (914,1244);
},
{
name = raccent;
pos = (1304,1448);
},
{
name = top;
pos = (532,1448);
}
);
layerId = "5C20EF92-B63D-42A8-8878-93C2863E0093";
shapes = (
{
closed = 1;
nodes = (
(644,-14,o),
(748,68,o),
(794,178,c),
(804,178,l),
(804,0,l),
(1190,0,l),
(1190,1448,l),
(800,1448,l),
(800,896,l),
(794,896,l),
(752,1006,o),
(652,1100,o),
(490,1100,cs),
(276,1100,o),
(66,938,o),
(66,544,c),
(66,168,o),
(260,-14,o),
(492,-14,cs)
);
},
{
closed = 1;
nodes = (
(528,286,o),
(466,382,o),
(466,544,cs),
(466,706,o),
(528,800,o),
(636,800,cs),
(744,800,o),
(810,706,o),
(810,544,c),
(810,386,o),
(744,286,o),
(636,286,cs)
);
}
);
width = 1284;
},
{
anchors = (
{
name = bottom;
pos = (558,0);
},
{
name = cross;
pos = (862,1244);
},
{
name = raccent;
pos = (1070,1448);
},
{
name = top;
pos = (538,1448);
}
);
layerId = "B1F27B51-9973-4381-9301-4FE46FE1CA59";
metricLeft = "=o";
shapes = (
{
closed = 1;
nodes = (
(698,-22,o),
(832,92,o),
(892,272,c),
(896,272,l),
(896,0,l),
(942,0,l),
(942,1448,l),
(896,1448,l),
(896,810,l),
(892,810,l),
(836,992,o),
(696,1104,o),
(524,1104,cs),
(270,1104,o),
(104,860,o),
(104,540,cs),
(104,218,o),
(266,-22,o),
(524,-22,cs)
);
},
{
closed = 1;
nodes = (
(294,22,o),
(150,246,o),
(150,540,cs),
(150,834,o),
(294,1058,o),
(524,1058,cs),
(754,1058,o),
(896,834,o),
(896,540,cs),
(896,246,o),
(754,22,o),
(524,22,cs)
);
}
);
width = 1146;
},
{
anchors = (
{
name = bottom;
pos = (586,0);
},
{
name = cross;
pos = (892,1244);
},
{
name = raccent;
pos = (1188,1448);
},
{
name = top;
pos = (568,1448);
}
);
layerId = "CD0E3B44-F66A-4791-B84C-A1128DC61275";
shapes = (
{
closed = 1;
nodes = (
(756,-22,o),
(826,106,o),
(864,166,c),
(882,166,l),
(882,0,l),
(1050,0,l),
(1050,1448,l),
(876,1448,l),
(876,914,l),
(864,914,l),
(828,972,o),
(760,1100,o),
(550,1100,cs),
(278,1100,o),
(86,884,o),
(86,540,cs),
(86,194,o),
(278,-22,o),
(548,-22,cs)
);
},
{
closed = 1;
nodes = (
(366,132,o),
(260,314,o),
(260,544,cs),
(260,772,o),
(362,946,o),
(572,946,cs),
(772,946,o),
(882,786,o),
(882,544,cs),
(882,300,o),
(770,132,o),
(572,132,cs)
);
}
);
width = 1208;
}
);
metricRight = H;
unicode = 100;
userData = {
"interface.width-adjustments" = (
-16
);
};
}
{
glyphname = e;
kernLeft = c;
kernRight = e;
layers = (
{
anchors = (
{
name = bottom;
pos = (606,0);
},
{
name = cedilla;
pos = (612,0);
},
{
name = ogonek;
pos = (930,48);
},
{
name = top;
pos = (606,1268);
}
);
guides = (
{
angle = 90;
orientation = center;
pos = (700,1004);
},
{
pos = (584,768);
}
);
layerId = "5C20EF92-B63D-42A8-8878-93C2863E0093";
shapes = (
{
closed = 1;
nodes = (
(922,-20,o),
(1116,124,o),
(1152,350,c),
(794,350,l),
(772,288,o),
(708,254,o),
(628,254,cs),
(512,254,o),
(444,332,o),
(444,436,c),
(444,668,l),
(446,762,o),
(524,826,o),
(620,826,cs),
(716,826,o),
(790,762,o),
(792,668,c),
(182,668,l),
(182,452,l),
(1152,452,l),
(1152,544,ls),
(1152,890,o),
(940,1100,o),
(612,1100,cs),
(276,1100,o),
(60,876,o),
(60,540,c),
(60,188,o),
(272,-20,o),
(620,-20,c)
);
}
);
width = 1210;
},
{
anchors = (
{
name = bottom;
pos = (552,0);
},
{
name = cedilla;
pos = (554,0);
},
{
name = ogonek;
pos = (600,0);
},
{
name = top;
pos = (552,1268);
}
);
layerId = "B1F27B51-9973-4381-9301-4FE46FE1CA59";
shapes = (
{
closed = 1;
nodes = (
(790,-22,o),
(924,114,o),
(966,224,c),
(916,224,l),
(880,154,o),
(778,22,o),
(578,22,cs),
(304,22,o),
(150,262,o),
(150,546,cs),
(150,552,ls),
(150,840,o),
(330,1058,o),
(554,1058,cs),
(774,1058,o),
(954,848,o),
(954,588,c),
(128,588,l),
(128,544,l),
(998,544,l),
(998,588,ls),
(998,868,o),
(806,1104,o),
(554,1104,cs),
(298,1104,o),
(104,860,o),
(104,540,cs),
(104,220,o),
(294,-22,o),
(578,-22,cs)
);
}
);
width = 1104;
},
{
anchors = (
{
name = bottom;
pos = (568,0);
},
{
name = cedilla;
pos = (572,0);
},
{
name = ogonek;
pos = (736,2);
},
{
name = top;
pos = (568,1268);
}
);
layerId = "CD0E3B44-F66A-4791-B84C-A1128DC61275";
shapes = (
{
closed = 1;
nodes = (
(818,-22,o),
(980,88,o),
(1030,254,c),
(846,254,l),
(806,186,o),
(724,130,o),
(594,130,cs),
(394,130,o),
(258,264,o),
(258,508,cs),
(258,606,ls),
(258,782,o),
(380,948,o),
(578,948,c),
(756,948,o),
(872,814,o),
(872,632,c),
(206,632,l),
(206,486,l),
(1046,486,l),
(1046,558,ls),
(1046,962,o),
(808,1100,o),
(578,1100,cs),
(284,1100,o),
(86,868,o),
(86,534,cs),
(86,200,o),
(280,-22,o),
(594,-22,c)
);
}
);
width = 1132;
}
);
unicode = 101;
userData = {
com.typemytype.robofont.guideline.magnetic.5XWlAkuiPv = 5;
"interface.width-adjustments" = (
-16
);
};
}
{
glyphname = f;
kernLeft = f;
kernRight = f;
layers = (
{
anchors = (
{
name = bottom;
pos = (354,0);
}
);
guides = (
{
pos = (-180,1228);
},
{
pos = (-180,256);
}
);
layerId = "5C20EF92-B63D-42A8-8878-93C2863E0093";
shapes = (
{
closed = 1;
nodes = (
(22,1086,l),
(22,804,l),
(750,804,l),
(750,1086,l)
);
},
{
pos = (-16,0);
ref = _part.f_base;
}
);
width = 800;
},
{
anchors = (
{
name = bottom;
pos = (286,0);
}
);
guides = (
{
angle = 90;
pos = (300,1608);
}
);
layerId = "B1F27B51-9973-4381-9301-4FE46FE1CA59";
shapes = (
{
closed = 1;
nodes = (
(114,1086,l),
(114,1040,l),
(544,1040,l),
(544,1086,l)
);
},
{
ref = _part.f_base;
}
);
width = 614;
},
{
anchors = (
{
name = bottom;
pos = (298,0);
}
);
layerId = "CD0E3B44-F66A-4791-B84C-A1128DC61275";
shapes = (
{
closed = 1;
nodes = (
(36,1086,l),
(36,942,l),
(624,942,l),
(624,1086,l)
);
},
{
alignment = -1;
ref = _part.f_base;
}
);
width = 690;
}
);
unicode = 102;
userData = {
"interface.width-adjustments" = (
-16
);
};
}
{
glyphname = g;
kernLeft = c;
kernRight = g;
layers = (
{
anchors = (
{
name = bottom;
pos = (622,-404);
},
{
name = cross;
pos = (996,552);
},
{
name = top;
pos = (622,1268);
}
);
layerId = "5C20EF92-B63D-42A8-8878-93C2863E0093";
shapes = (
{
closed = 1;
nodes = (
(966,-430,o),
(1194,-274,o),
(1194,2,cs),
(1194,1086,l),
(804,1086,l),
(804,896,l),
(794,896,l),
(752,1006,o),
(652,1100,o),
(490,1100,cs),
(276,1100,o),
(66,938,o),
(66,544,cs),
(66,168,o),
(260,14,o),
(492,14,cs),
(640,14,o),
(756,76,o),
(798,186,c),
(810,186,l),
(810,2,ls),
(810,-126,o),
(736,-166,o),
(634,-166,cs),
(544,-166,o),
(478,-140,o),
(466,-70,c),
(90,-70,l),
(104,-280,o),
(296,-430,o),
(622,-430,cs)
);
},
{
closed = 1;
nodes = (
(528,292,o),
(466,382,o),
(466,544,cs),
(466,706,o),
(528,800,o),
(636,800,cs),
(744,800,o),
(810,706,o),
(810,544,cs),
(810,386,o),
(744,292,o),
(636,292,cs)
);
}
);
width = 1292;
},
{
anchors = (
{
name = bottom;
pos = (524,-424);
},
{
name = cross;
pos = (920,544);
},
{
name = top;
pos = (558,1268);
}
);
layerId = "B1F27B51-9973-4381-9301-4FE46FE1CA59";
shapes = (
{
closed = 1;
nodes = (
(790,-430,o),
(942,-290,o),
(942,-22,cs),
(942,1086,l),
(896,1086,l),
(896,810,l),
(892,810,l),
(832,992,o),
(700,1104,o),
(524,1104,cs),
(266,1104,o),
(104,862,o),
(104,540,cs),
(104,220,o),
(270,0,o),
(524,0,cs),
(686,0,o),
(836,90,o),
(892,272,c),
(896,272,l),
(896,-22,ls),
(896,-266,o),
(764,-384,o),
(538,-384,cs),
(374,-384,o),
(230,-324,o),
(196,-196,c),
(146,-196,l),
(188,-358,o),
(356,-430,o),
(538,-430,cs)
);
},
{
closed = 1;
nodes = (
(294,46,o),
(150,246,o),
(150,540,cs),
(150,834,o),
(294,1058,o),
(524,1058,cs),
(754,1058,o),
(896,834,o),
(896,540,cs),
(896,236,o),
(750,46,o),
(524,46,cs)
);
}
);
width = 1118;
},
{
anchors = (
{
name = bottom;
pos = (592,-430);
},
{
name = cross;
pos = (968,548);
},
{
name = top;
pos = (594,1268);
}
);
layerId = "CD0E3B44-F66A-4791-B84C-A1128DC61275";
shapes = (
{
closed = 1;
nodes = (
(842,-430,o),
(1050,-310,o),
(1050,-30,cs),
(1050,1086,l),
(882,1086,l),
(882,914,l),
(868,914,l),
(830,972,o),
(760,1100,o),
(550,1100,cs),
(278,1100,o),
(86,894,o),
(86,558,cs),
(86,218,o),
(284,16,o),
(548,16,cs),
(758,16,o),
(828,140,o),
(864,200,c),
(878,200,l),
(878,-20,ls),
(878,-200,o),
(764,-280,o),
(578,-280,cs),
(424,-280,o),
(320,-226,o),
(298,-114,c),
(118,-114,l),
(138,-316,o),
(314,-430,o),
(578,-430,cs)
);
},
{
closed = 1;
nodes = (
(366,170,o),
(260,328,o),
(260,552,cs),
(260,772,o),
(362,946,o),
(572,946,cs),
(772,946,o),
(882,786,o),
(882,552,cs),
(882,312,o),
(770,170,o),
(572,170,cs)
);
}
);
width = 1186;
}
);
metricLeft = d;
metricRight = idotless;
unicode = 103;
userData = {
"interface.width-adjustments" = (
-16
);
};
}
{
glyphname = h;
kernLeft = B;
kernRight = a;
layers = (
{
anchors = (
{
name = bottom;
pos = (644,0);
},
{
name = cedilla;
pos = (286,0);
},
{
name = cross;
pos = (286,1236);
},
{
name = top;
pos = (288,1630);
}
);
guides = (
{
pos = (-136,1240);
},
{
pos = (-136,764);
},
{
angle = 90;
pos = (260,1696);
}
);
layerId = "5C20EF92-B63D-42A8-8878-93C2863E0093";
shapes = (
{
closed = 1;
nodes = (
(490,720,o),
(552,784,o),
(648,784,cs),
(748,784,o),
(804,720,o),
(804,612,cs),
(804,0,l),
(1194,0,l),
(1194,694,ls),
(1194,932,o),
(1044,1100,o),
(814,1100,cs),
(654,1100,o),
(534,1018,o),
(486,880,c),
(476,880,l),
(476,1448,l),
(100,1448,l),
(100,0,l),
(490,0,l),
(490,612,ls)
);
}
);
width = 1286;
},
{
anchors = (
{
name = bottom;
pos = (544,0);
},
{
name = cedilla;
pos = (192,-6);
},
{
name = cross;
pos = (192,1288);
},
{
name = top;
pos = (192,1630);
}
);
guides = (
{
angle = 90;
pos = (168,2460);
}
);
layerId = "B1F27B51-9973-4381-9301-4FE46FE1CA59";
shapes = (
{
closed = 1;
nodes = (
(214,920,o),
(354,1056,o),
(546,1056,cs),
(738,1056,o),
(872,922,o),
(872,730,cs),
(872,0,l),
(916,0,l),
(916,730,ls),
(916,948,o),
(764,1100,o),
(546,1100,cs),
(396,1100,o),
(270,1028,o),
(220,914,c),
(214,914,l),
(214,1448,l),
(170,1448,l),
(170,0,l),
(214,0,l),
(214,730,ls)
);
}
);
width = 1086;
},
{
anchors = (
{
name = bottom;
pos = (572,0);
},
{
name = cedilla;
pos = (242,0);
},
{
name = cross;
pos = (224,1266);
},
{
name = top;
pos = (224,1630);
}
);
layerId = "CD0E3B44-F66A-4791-B84C-A1128DC61275";
shapes = (
{
closed = 1;
nodes = (
(310,840,o),
(430,946,o),
(592,946,cs),
(748,946,o),
(842,850,o),
(842,678,cs),
(842,0,l),
(1014,0,l),
(1014,690,ls),
(1014,968,o),
(866,1100,o),
(644,1100,cs),
(472,1100,o),
(374,1030,o),
(324,916,c),
(310,916,l),
(310,1448,l),
(138,1448,l),
(138,0,l),
(310,0,l),
(310,652,ls)
);
}
);
width = 1152;
}
);
metricLeft = l;
metricRight = m;
unicode = 104;
userData = {
"interface.width-adjustments" = (
-16
);
};
}
{
glyphname = k;
kernLeft = B;
kernRight = k;
layers = (
{
anchors = (
{
name = bottom;
pos = (612,0);
},
{
name = top;
pos = (294,1630);
}
);
guides = (
{
angle = 90;
pos = (268,1952);
}
);
layerId = "5C20EF92-B63D-42A8-8878-93C2863E0093";
shapes = (
{
closed = 1;
nodes = (
(654,518,l),
(764,518,l),
(1206,1086,l),
(766,1086,l),
(504,722,l),
(452,722,l),
(450,258,l)
);
},
{
closed = 1;
nodes = (
(490,0,l),
(490,1448,l),
(100,1448,l),
(100,0,l)
);
},
{
closed = 1;
nodes = (
(1216,0,l),
(776,708,l),
(520,430,l),
(770,0,l)
);
}
);
width = 1208;
},
{
anchors = (
{
name = bottom;
pos = (500,0);
},
{
name = top;
pos = (192,1630);
}
);
guides = (
{
angle = 90;
pos = (168,2408);
}
);
layerId = "B1F27B51-9973-4381-9301-4FE46FE1CA59";
shapes = (
{
closed = 1;
nodes = (
(362,594,l),
(368,600,l),
(862,1086,l),
(798,1086,l),
(220,520,l),
(204,520,l),
(204,438,l)
);
},
{
closed = 1;
nodes = (
(214,0,l),
(214,1448,l),
(170,1448,l),
(170,0,l)
);
},
{
closed = 1;
nodes = (
(880,0,l),
(380,628,l),
(346,600,l),
(820,0,l)
);
}
);
width = 924;
},
{
anchors = (
{
name = bottom;
pos = (548,0);
},
{
name = top;
pos = (224,1630);
}
);
layerId = "CD0E3B44-F66A-4791-B84C-A1128DC61275";
shapes = (
{
closed = 1;
nodes = (
(490,572,l),
(506,572,l),
(1012,1086,l),
(800,1086,l),
(330,606,l),
(296,606,l),
(298,394,l)
);
},
{
closed = 1;
nodes = (
(310,0,l),
(310,1448,l),
(138,1448,l),
(138,0,l)
);
},
{
closed = 1;
nodes = (
(1046,0,l),
(528,654,l),
(408,534,l),
(828,0,l)
);
}
);
width = 1058;
}
);
metricLeft = h;
unicode = 107;
userData = {
"interface.width-adjustments" = (
-16
);
};
}
{
glyphname = l;
kernLeft = B;
kernRight = H;
layers = (
{
anchors = (
{
name = bottom;
pos = (294,0);
},
{
name = cross;
pos = (294,746);
},
{
name = raccent;
pos = (602,1448);
},
{
name = top;
pos = (294,1630);
}
);
layerId = "5C20EF92-B63D-42A8-8878-93C2863E0093";
shapes = (
{
closed = 1;
nodes = (
(100,1448,l),
(100,0,l),
(490,0,l),
(490,1448,l)
);
}
);
width = 588;
},
{
anchors = (
{
name = bottom;
pos = (192,0);
},
{
name = cross;
pos = (192,746);
},
{
name = raccent;
pos = (348,1448);
},
{
name = top;
pos = (192,1630);
}
);
layerId = "B1F27B51-9973-4381-9301-4FE46FE1CA59";
shapes = (
{
closed = 1;
nodes = (
(170,1448,l),
(170,0,l),
(214,0,l),
(214,1448,l)
);
}
);
width = 384;
},
{
anchors = (
{
name = bottom;
pos = (224,0);
},
{
name = cross;
pos = (224,746);
},
{
name = raccent;
pos = (448,1448);
},
{
name = top;
pos = (222,1630);
}
);
layerId = "CD0E3B44-F66A-4791-B84C-A1128DC61275";
shapes = (
{
closed = 1;
nodes = (
(138,1448,l),
(138,0,l),
(310,0,l),
(310,1448,l)
);
}
);
width = 446;
}
);
metricLeft = h;
metricRight = l;
unicode = 108;
userData = {
"interface.width-adjustments" = (
-16
);
};
}
{
glyphname = m;
kernLeft = m;
kernRight = a;
layers = (
{
anchors = (
{
name = bottom;
pos = (940,0);
},
{
name = top;
pos = (940,1268);
}
);
guides = (
{
angle = 90;
orientation = center;
pos = (1232,32);
}
);
layerId = "5C20EF92-B63D-42A8-8878-93C2863E0093";
shapes = (
{
closed = 1;
nodes = (
(490,0,l),
(490,634,ls),
(490,728,o),
(540,786,o),
(620,786,cs),
(700,786,o),
(752,728,o),
(752,634,cs),
(752,0,l),
(1126,0,l),
(1126,634,ls),
(1126,728,o),
(1176,786,o),
(1256,786,cs),
(1336,786,o),
(1388,728,o),
(1388,634,cs),
(1388,0,l),
(1780,0,l),
(1780,732,ls),
(1780,954,o),
(1636,1100,o),
(1428,1100,cs),
(1266,1100,o),
(1136,1012,o),
(1100,880,c),
(1090,880,l),
(1068,1012,o),
(944,1100,o),
(792,1100,cs),
(642,1100,o),
(526,1016,o),
(480,880,c),
(470,880,l),
(470,1086,l),
(100,1086,l),
(100,0,l)
);
}
);
width = 1872;
},
{
anchors = (
{
name = bottom;
pos = (810,0);
},
{
name = top;
pos = (810,1268);
}
);
layerId = "B1F27B51-9973-4381-9301-4FE46FE1CA59";
shapes = (
{
closed = 1;
nodes = (
(214,0,l),
(214,730,ls),
(214,920,o),
(320,1056,o),
(512,1056,cs),
(704,1056,o),
(786,922,o),
(786,730,cs),
(786,0,l),
(832,0,l),
(832,730,ls),
(832,920,o),
(936,1056,o),
(1128,1056,cs),
(1320,1056,o),
(1404,922,o),
(1404,730,cs),
(1404,0,l),
(1448,0,l),
(1448,730,ls),
(1448,948,o),
(1346,1100,o),
(1128,1100,cs),
(964,1100,o),
(850,1012,o),
(814,876,c),
(810,876,l),
(774,1012,o),
(676,1100,o),
(512,1100,cs),
(368,1100,o),
(260,1030,o),
(220,924,c),
(214,924,l),
(214,1086,l),
(170,1086,l),
(170,0,l)
);
}
);
width = 1618;
},
{
anchors = (
{
name = bottom;
pos = (852,0);
},
{
name = top;
pos = (852,1268);
}
);
layerId = "CD0E3B44-F66A-4791-B84C-A1128DC61275";
shapes = (
{
closed = 1;
nodes = (
(310,0,l),
(310,678,ls),
(310,836,o),
(426,946,o),
(554,946,cs),
(680,946,o),
(766,866,o),
(766,742,cs),
(766,0,l),
(940,0,l),
(940,706,ls),
(940,844,o),
(1026,946,o),
(1178,946,cs),
(1296,946,o),
(1398,884,o),
(1398,724,cs),
(1398,0,l),
(1570,0,l),
(1570,726,ls),
(1570,980,o),
(1432,1100,o),
(1238,1100,cs),
(1082,1100,o),
(968,1030,o),
(912,916,c),
(900,916,l),
(848,1034,o),
(752,1100,o),
(610,1100,cs),
(468,1100,o),
(364,1034,o),
(318,916,c),
(304,916,l),
(304,1086,l),
(138,1086,l),
(138,0,l)
);
}
);
width = 1708;
}
);
unicode = 109;
userData = {
"interface.width-adjustments" = (
-16
);
};
}
{
glyphname = n;
kernLeft = m;
kernRight = a;
layers = (
{
anchors = (
{
name = bottom;
pos = (644,0);
},
{
name = top;
pos = (644,1268);
}
);
guides = (
{
angle = 90;
orientation = center;
pos = (680,-164);
}
);
layerId = "5C20EF92-B63D-42A8-8878-93C2863E0093";
shapes = (
{
closed = 1;
nodes = (
(490,720,o),
(552,784,o),
(648,784,cs),
(746,784,o),
(804,720,o),
(804,612,cs),
(804,0,l),
(1194,0,l),
(1194,694,ls),
(1194,930,o),
(1044,1100,o),
(814,1100,cs),
(654,1100,o),
(528,1018,o),
(480,880,c),
(470,880,l),
(470,1086,l),
(100,1086,l),
(100,0,l),
(490,0,l),
(490,612,ls)
);
}
);
width = 1288;
},
{
anchors = (
{
name = bottom;
pos = (544,0);
},
{
name = top;
pos = (546,1268);
}
);
layerId = "B1F27B51-9973-4381-9301-4FE46FE1CA59";
shapes = (
{
closed = 1;
nodes = (
(214,920,o),
(354,1056,o),
(546,1056,cs),
(738,1056,o),
(872,922,o),
(872,730,cs),
(872,0,l),
(916,0,l),
(916,730,ls),
(916,948,o),
(764,1100,o),
(546,1100,cs),
(396,1100,o),
(270,1028,o),
(220,914,c),
(214,914,l),
(214,1086,l),
(170,1086,l),
(170,0,l),
(214,0,l),
(214,730,ls)
);
}
);
width = 1086;
},
{
anchors = (
{
name = bottom;
pos = (570,0);
},
{
name = top;
pos = (570,1268);
}
);
layerId = "CD0E3B44-F66A-4791-B84C-A1128DC61275";
shapes = (
{
closed = 1;
nodes = (
(310,840,o),
(426,946,o),
(584,946,cs),
(738,946,o),
(830,846,o),
(830,678,cs),
(830,0,l),
(1002,0,l),
(1002,690,ls),
(1002,966,o),
(856,1100,o),
(636,1100,cs),
(472,1100,o),
(368,1028,o),
(318,916,c),
(304,916,l),
(304,1086,l),
(138,1086,l),
(138,0,l),
(310,0,l),
(310,652,ls)
);
}
);
width = 1140;
}
);
metricLeft = m;
unicode = 110;
userData = {
"interface.width-adjustments" = (
-16
);
};
}
{
glyphname = o;
kernLeft = c;
kernRight = b;
layers = (
{
anchors = (
{
name = bottom;
pos = (622,0);
},
{
name = ogonek;
pos = (784,0);
},
{
name = top;
pos = (622,1268);
}
);
guides = (
{
pos = (-188,2860);
},
{
pos = (584,768);
},
{
angle = 90;
orientation = center;
pos = (696,768);
}
);
layerId = "5C20EF92-B63D-42A8-8878-93C2863E0093";
shapes = (
{
closed = 1;
nodes = (
(976,-20,o),
(1186,206,o),
(1186,540,cs),
(1186,874,o),
(976,1100,o),
(622,1100,cs),
(268,1100,o),
(60,874,o),
(60,540,cs),
(60,206,o),
(268,-20,o),
(622,-20,cs)
);
},
{
closed = 1;
nodes = (
(522,268,o),
(458,374,o),
(458,544,cs),
(458,714,o),
(522,818,o),
(626,818,cs),
(726,818,o),
(786,714,o),
(786,544,cs),
(786,374,o),
(726,268,o),
(626,268,cs)
);
}
);
width = 1244;
},
{
anchors = (
{
name = bottom;
pos = (554,0);
},
{
name = ogonek;
pos = (602,0);
},
{
name = top;
pos = (554,1268);
}
);
layerId = "B1F27B51-9973-4381-9301-4FE46FE1CA59";
shapes = (
{
closed = 1;
nodes = (
(810,-22,o),
(1004,220,o),
(1004,540,cs),
(1004,860,o),
(810,1104,o),
(554,1104,cs),
(298,1104,o),
(104,860,o),
(104,540,cs),
(104,220,o),
(298,-22,o),
(554,-22,cs)
);
},
{
closed = 1;
nodes = (
(324,22,o),
(150,246,o),
(150,540,cs),
(150,834,o),
(324,1058,o),
(554,1058,cs),
(784,1058,o),
(958,834,o),
(958,540,cs),
(958,246,o),
(784,22,o),
(554,22,cs)
);
}
);
width = 1108;
},
{
anchors = (
{
name = bottom;
pos = (582,0);
},
{
name = ogonek;
pos = (706,0);
},
{
name = top;
pos = (582,1268);
}
);
layerId = "CD0E3B44-F66A-4791-B84C-A1128DC61275";
shapes = (
{
closed = 1;
nodes = (
(878,-22,o),
(1074,202,o),
(1074,538,cs),
(1074,878,o),
(878,1100,o),
(582,1100,cs),
(286,1100,o),
(86,878,o),
(86,538,cs),
(86,202,o),
(286,-22,o),
(582,-22,cs)
);
},
{
closed = 1;
nodes = (
(362,130,o),
(258,322,o),
(258,538,cs),
(258,754,o),
(362,948,o),
(582,948,cs),
(802,948,o),
(902,754,o),
(902,538,cs),
(902,322,o),
(802,130,o),
(582,130,cs)
);
}
);
width = 1162;
}
);
unicode = 111;
userData = {
com.typemytype.robofont.guideline.magnetic.k4vPhVkDP6 = 5;
"interface.width-adjustments" = (
-16
);
};
}
{
glyphname = p;
kernLeft = m;
kernRight = b;
layers = (
{
anchors = (
{
name = bottom;
pos = (298,-390);
},
{
name = bottom0315;
pos = (1350,-464);
},
{
name = cross;
pos = (292,-158);
},
{
name = top;
pos = (708,1268);
}
);
layerId = "5C20EF92-B63D-42A8-8878-93C2863E0093";
shapes = (
{
closed = 1;
nodes = (
(490,-408,l),
(490,178,l),
(496,178,l),
(542,68,o),
(646,-14,o),
(798,-14,cs),
(1030,-14,o),
(1224,168,o),
(1224,544,c),
(1224,938,o),
(1014,1100,o),
(800,1100,cs),
(638,1100,o),
(538,1006,o),
(496,896,c),
(486,896,l),
(486,1086,l),
(100,1086,l),
(100,-408,l)
);
},
{
closed = 1;
nodes = (
(480,706,o),
(546,800,o),
(654,800,cs),
(762,800,o),
(824,706,o),
(824,544,cs),
(824,382,o),
(762,286,o),
(654,286,cs),
(546,286,o),
(480,386,o),
(480,544,c)
);
}
);
width = 1290;
},
{
anchors = (
{
name = bottom;
pos = (192,-408);
},
{
name = bottom0315;
pos = (1098,-492);
},
{
name = cross;
pos = (192,-158);
},
{
name = top;
pos = (588,1268);
}
);
guides = (
{
angle = 90;
pos = (728,2252);
}
);
layerId = "B1F27B51-9973-4381-9301-4FE46FE1CA59";
metricRight = "=e";
shapes = (
{
closed = 1;
nodes = (
(214,-408,l),
(214,272,l),
(220,272,l),
(276,90,o),
(416,-22,o),
(588,-22,cs),
(842,-22,o),
(1008,220,o),
(1008,540,cs),
(1008,862,o),
(844,1104,o),
(588,1104,cs),
(414,1104,o),
(278,990,o),
(220,810,c),
(214,810,l),
(214,1086,l),
(170,1086,l),
(170,-408,l)
);
},
{
closed = 1;
nodes = (
(214,834,o),
(358,1058,o),
(588,1058,cs),
(818,1058,o),
(962,834,o),
(962,540,cs),
(962,246,o),
(818,22,o),
(588,22,cs),
(358,22,o),
(214,246,o),
(214,540,cs)
);
}
);
width = 1114;
},
{
anchors = (
{
name = bottom;
pos = (222,-408);
},
{
name = bottom0315;
pos = (1192,-480);
},
{
name = cross;
pos = (224,-158);
},
{
name = top;
pos = (626,1268);
}
);
layerId = "CD0E3B44-F66A-4791-B84C-A1128DC61275";
shapes = (
{
closed = 1;
nodes = (
(310,-408,l),
(310,166,l),
(324,166,l),
(360,106,o),
(432,-22,o),
(640,-22,cs),
(910,-22,o),
(1100,194,o),
(1100,540,cs),
(1100,884,o),
(910,1100,o),
(638,1100,cs),
(428,1100,o),
(360,972,o),
(324,914,c),
(304,914,l),
(304,1086,l),
(138,1086,l),
(138,-408,l)
);
},
{
closed = 1;
nodes = (
(306,786,o),
(414,946,o),
(616,946,cs),
(826,946,o),
(928,772,o),
(928,544,cs),
(928,314,o),
(822,132,o),
(616,132,cs),
(416,132,o),
(306,300,o),
(306,544,cs)
);
}
);
width = 1186;
}
);
metricLeft = m;
unicode = 112;
userData = {
"interface.width-adjustments" = (
-16
);
};
}
{
glyphname = q;
kernLeft = c;
kernRight = g;
layers = (
{
anchors = (
{
name = bottom;
pos = (992,-390);
},
{
name = cross;
pos = (998,-158);
},
{
name = top;
pos = (582,1268);
}
);
layerId = "5C20EF92-B63D-42A8-8878-93C2863E0093";
shapes = (
{
closed = 1;
nodes = (
(1190,-408,l),
(1190,1086,l),
(804,1086,l),
(804,896,l),
(794,896,l),
(752,1006,o),
(652,1100,o),
(490,1100,cs),
(276,1100,o),
(66,938,o),
(66,544,c),
(66,168,o),
(260,-14,o),
(492,-14,cs),
(644,-14,o),
(748,68,o),
(794,178,c),
(800,178,l),
(800,-408,l)
);
},
{
closed = 1;
nodes = (
(528,286,o),
(466,382,o),
(466,544,cs),
(466,706,o),
(528,800,o),
(636,800,cs),
(744,800,o),
(810,706,o),
(810,544,c),
(810,386,o),
(744,286,o),
(636,286,cs)
);
}
);
width = 1290;
},
{
anchors = (
{
name = bottom;
pos = (920,-408);
},
{
name = cross;
pos = (920,-158);
},
{
name = top;
pos = (524,1268);
}
);
layerId = "B1F27B51-9973-4381-9301-4FE46FE1CA59";
shapes = (
{
closed = 1;
nodes = (
(942,-408,l),
(942,1086,l),
(896,1086,l),
(896,810,l),
(892,810,l),
(834,990,o),
(698,1104,o),
(524,1104,cs),
(268,1104,o),
(104,862,o),
(104,540,cs),
(104,220,o),
(270,-22,o),
(524,-22,cs),
(696,-22,o),
(836,90,o),
(892,272,c),
(896,272,l),
(896,-408,l)
);
},
{
closed = 1;
nodes = (
(294,22,o),
(150,246,o),
(150,540,cs),
(150,834,o),
(294,1058,o),
(524,1058,cs),
(754,1058,o),
(896,834,o),
(896,540,cs),
(896,246,o),
(754,22,o),
(524,22,cs)
);
}
);
width = 1112;
},
{
anchors = (
{
name = bottom;
pos = (964,-408);
},
{
name = cross;
pos = (962,-158);
},
{
name = top;
pos = (560,1268);
}
);
layerId = "CD0E3B44-F66A-4791-B84C-A1128DC61275";
shapes = (
{
closed = 1;
nodes = (
(1050,-408,l),
(1050,1086,l),
(882,1086,l),
(882,914,l),
(864,914,l),
(828,972,o),
(760,1100,o),
(550,1100,cs),
(278,1100,o),
(86,884,o),
(86,540,cs),
(86,194,o),
(278,-22,o),
(548,-22,cs),
(756,-22,o),
(826,106,o),
(864,166,c),
(876,166,l),
(876,-408,l)
);
},
{
closed = 1;
nodes = (
(366,132,o),
(260,314,o),
(260,544,cs),
(260,772,o),
(362,946,o),
(572,946,cs),
(772,946,o),
(882,786,o),
(882,544,cs),
(882,300,o),
(770,132,o),
(572,132,cs)
);
}
);
width = 1186;
}
);
metricLeft = q;
metricRight = q;
unicode = 113;
userData = {
"interface.width-adjustments" = (
-16
);
};
}
{
glyphname = r;
kernLeft = m;
kernRight = r;
layers = (
{
anchors = (
{
name = bottom;
pos = (298,0);
},
{
name = cross;
pos = (294,520);
},
{
name = top;
pos = (470,1268);
}
);
layerId = "5C20EF92-B63D-42A8-8878-93C2863E0093";
shapes = (
{
closed = 1;
nodes = (
(490,0,l),
(490,566,ls),
(490,690,o),
(574,772,o),
(690,772,cs),
(730,772,o),
(796,766,o),
(834,752,c),
(834,1086,l),
(802,1094,o),
(770,1100,o),
(736,1100,c),
(620,1100,o),
(530,1032,o),
(490,880,c),
(478,880,l),
(478,1086,l),
(100,1086,l),
(100,0,l)
);
}
);
width = 862;
},
{
anchors = (
{
name = bottom;
pos = (192,0);
},
{
name = cross;
pos = (192,520);
},
{
name = top;
pos = (394,1268);
}
);
layerId = "B1F27B51-9973-4381-9301-4FE46FE1CA59";
shapes = (
{
closed = 1;
nodes = (
(214,0,l),
(214,730,ls),
(214,920,o),
(354,1056,o),
(546,1056,cs),
(558,1056,o),
(556,1056,o),
(568,1056,c),
(568,1100,l),
(556,1100,o),
(558,1100,o),
(546,1100,cs),
(396,1100,o),
(270,1028,o),
(220,914,c),
(214,914,l),
(214,1086,l),
(170,1086,l),
(170,0,l)
);
}
);
width = 602;
},
{
anchors = (
{
name = bottom;
pos = (222,0);
},
{
name = cross;
pos = (224,520);
},
{
name = top;
pos = (398,1268);
}
);
layerId = "CD0E3B44-F66A-4791-B84C-A1128DC61275";
shapes = (
{
closed = 1;
nodes = (
(310,0,l),
(310,684,ls),
(310,830,o),
(426,938,o),
(582,938,cs),
(626,938,o),
(674,928,o),
(686,926,c),
(686,1100,l),
(666,1102,o),
(622,1104,o),
(596,1104,cs),
(468,1104,o),
(356,1028,o),
(316,920,c),
(304,920,l),
(304,1086,l),
(138,1086,l),
(138,0,l)
);
}
);
width = 716;
}
);
metricLeft = r;
unicode = 114;
}
{
glyphname = s;
kernLeft = s;
kernRight = m;
layers = (
{
anchors = (
{
name = bottom;
pos = (588,0);
},
{
name = cedilla;
pos = (596,0);
},
{
name = top;
pos = (588,1268);
}
);
guides = (
{
pos = (-152,2280);
}
);
layerId = "5C20EF92-B63D-42A8-8878-93C2863E0093";
shapes = (
{
closed = 1;
nodes = (
(1082,962,o),
(892,1100,o),
(578,1100,cs),
(268,1100,o),
(74,972,o),
(76,746,cs),
(74,574,o),
(186,466,o),
(408,428,cs),
(600,394,ls),
(684,378,o),
(722,356,o),
(724,314,cs),
(722,268,o),
(672,244,o),
(600,244,cs),
(512,244,o),
(448,280,o),
(438,350,c),
(50,350,l),
(72,128,o),
(264,-20,o),
(596,-20,cs),
(896,-20,o),
(1118,128,o),
(1120,360,cs),
(1118,520,o),
(1012,614,o),
(790,654,cs),
(568,694,ls),
(486,708,o),
(462,738,o),
(464,770,cs),
(462,816,o),
(518,840,o),
(586,840,cs),
(664,840,o),
(726,798,o),
(732,732,c),
(1092,732,l)
);
}
);
width = 1172;
},
{
anchors = (
{
name = bottom;
pos = (478,0);
},
{
name = cedilla;
pos = (476,0);
},
{
name = top;
pos = (480,1268);
}
);
guides = (
{
angle = 90;
pos = (576,2204);
}
);
layerId = "B1F27B51-9973-4381-9301-4FE46FE1CA59";
shapes = (
{
closed = 1;
nodes = (
(792,998,o),
(670,1102,o),
(486,1104,cs),
(288,1106,o),
(150,988,o),
(150,818,cs),
(150,682,o),
(238,586,o),
(404,544,cs),
(574,500,ls),
(714,466,o),
(784,384,o),
(784,272,cs),
(784,122,o),
(656,22,o),
(466,22,cs),
(292,22,o),
(182,104,o),
(156,254,c),
(108,254,l),
(134,80,o),
(268,-22,o),
(466,-22,cs),
(682,-22,o),
(828,98,o),
(828,274,cs),
(828,406,o),
(746,506,o),
(586,546,cs),
(416,588,ls),
(268,624,o),
(196,706,o),
(196,818,cs),
(196,960,o),
(314,1060,o),
(486,1058,cs),
(638,1056,o),
(746,980,o),
(772,852,c),
(820,852,l)
);
}
);
width = 936;
},
{
anchors = (
{
name = bottom;
pos = (520,0);
},
{
name = cedilla;
pos = (516,0);
},
{
name = top;
pos = (524,1268);
}
);
layerId = "CD0E3B44-F66A-4791-B84C-A1128DC61275";
shapes = (
{
closed = 1;
nodes = (
(888,980,o),
(746,1100,o),
(522,1100,cs),
(282,1100,o),
(120,966,o),
(120,780,cs),
(120,634,o),
(220,532,o),
(410,488,cs),
(574,450,ls),
(698,422,o),
(752,370,o),
(752,294,cs),
(752,192,o),
(654,128,o),
(500,128,cs),
(362,128,o),
(286,178,o),
(266,284,c),
(86,284,l),
(114,86,o),
(260,-22,o),
(504,-22,cs),
(776,-22,o),
(930,116,o),
(930,304,cs),
(930,456,o),
(834,552,o),
(640,598,cs),
(478,638,ls),
(350,670,o),
(292,718,o),
(292,790,cs),
(292,880,o),
(388,954,o),
(522,954,cs),
(650,954,o),
(720,894,o),
(742,804,c),
(910,804,l)
);
}
);
width = 1016;
}
);
unicode = 115;
userData = {
com.typemytype.robofont.guideline.magnetic.1Y8sphnsuc = 5;
com.typemytype.robofont.guideline.magnetic.DuqEUxnaaT = 5;
com.typemytype.robofont.guideline.magnetic.XmDxFVnKBu = 5;
"interface.width-adjustments" = (
-16
);
};
}
{
glyphname = t;
kernLeft = t;
kernRight = t;
layers = (
{
anchors = (
{
name = raccent;
pos = (686,1520);
}
);
guides = (
{
angle = 90;
pos = (368,2408);
}
);
layerId = "5C20EF92-B63D-42A8-8878-93C2863E0093";
shapes = (
{
closed = 1;
nodes = (
(32,1086,l),
(32,804,l),
(746,804,l),
(746,1086,l)
);
},
{
ref = _part.t_base;
}
);
width = 806;
},
{
anchors = (
{
name = raccent;
pos = (420,1520);
}
);
guides = (
{
angle = 90;
pos = (264,1608);
}
);
layerId = "B1F27B51-9973-4381-9301-4FE46FE1CA59";
shapes = (
{
closed = 1;
nodes = (
(80,1086,l),
(80,1040,l),
(510,1040,l),
(510,1086,l)
);
},
{
ref = _part.t_base;
}
);
width = 648;
},
{
anchors = (
{
name = raccent;
pos = (502,1520);
}
);
layerId = "CD0E3B44-F66A-4791-B84C-A1128DC61275";
shapes = (
{
closed = 1;
nodes = (
(46,1086,l),
(46,942,l),
(612,942,l),
(612,1086,l)
);
},
{
alignment = -1;
ref = _part.t_base;
}
);
width = 696;
}
);
unicode = 116;
userData = {
com.typemytype.robofont.guideline.magnetic.y5AZhPlfwM = 5;
"interface.width-adjustments" = (
-16
);
};
}
{
glyphname = u;
kernLeft = u;
kernRight = u;
layers = (
{
anchors = (
{
name = bottom;
pos = (722,0);
},
{
name = ogonek;
pos = (1194,0);
},
{
name = top;
pos = (648,1268);
}
);
layerId = "5C20EF92-B63D-42A8-8878-93C2863E0093";
shapes = (
{
closed = 1;
nodes = (
(804,368,o),
(740,302,o),
(644,302,cs),
(546,302,o),
(490,368,o),
(490,476,cs),
(490,1086,l),
(100,1086,l),
(100,394,ls),
(100,156,o),
(250,-14,o),
(478,-14,cs),
(640,-14,o),
(764,68,o),
(812,206,c),
(824,206,l),
(824,0,l),
(1194,0,l),
(1194,1086,l),
(804,1086,l),
(804,476,ls)
);
}
);
width = 1292;
},
{
anchors = (
{
name = bottom;
pos = (544,0);
},
{
name = ogonek;
pos = (916,0);
},
{
name = top;
pos = (544,1268);
}
);
layerId = "B1F27B51-9973-4381-9301-4FE46FE1CA59";
shapes = (
{
closed = 1;
nodes = (
(872,166,o),
(732,32,o),
(540,32,cs),
(348,32,o),
(214,164,o),
(214,356,cs),
(214,1086,l),
(170,1086,l),
(170,356,ls),
(170,138,o),
(322,-14,o),
(540,-14,cs),
(690,-14,o),
(816,58,o),
(866,172,c),
(872,172,l),
(872,0,l),
(916,0,l),
(916,1086,l),
(872,1086,l),
(872,356,ls)
);
}
);
width = 1086;
},
{
anchors = (
{
name = bottom;
pos = (570,0);
},
{
name = ogonek;
pos = (994,0);
},
{
name = top;
pos = (568,1268);
}
);
layerId = "CD0E3B44-F66A-4791-B84C-A1128DC61275";
shapes = (
{
closed = 1;
nodes = (
(824,244,o),
(670,152,o),
(546,152,cs),
(408,152,o),
(310,252,o),
(310,408,cs),
(310,1086,l),
(138,1086,l),
(138,396,ls),
(138,120,o),
(284,-14,o),
(490,-14,cs),
(654,-14,o),
(762,74,o),
(812,184,c),
(824,184,l),
(824,0,l),
(994,0,l),
(994,1086,l),
(824,1086,l),
(824,446,ls)
);
}
);
width = 1132;
}
);
metricLeft = m;
unicode = 117;
userData = {
com.typemytype.robofont.guideline.magnetic.nBhGDD3LHZ = 5;
"interface.width-adjustments" = (
-16
);
};
}
{
glyphname = v;
kernLeft = v;
kernRight = v;
layers = (
{
anchors = (
{
name = bottom;
pos = (602,0);
},
{
name = top;
pos = (602,1268);
}
);
layerId = "5C20EF92-B63D-42A8-8878-93C2863E0093";
shapes = (
{
closed = 1;
nodes = (
(784,1086,l),
(608,368,l),
(596,368,l),
(422,1086,l),
(12,1086,l),
(376,0,l),
(828,0,l),
(1194,1086,l)
);
}
);
width = 1206;
},
{
anchors = (
{
name = bottom;
pos = (498,0);
},
{
name = top;
pos = (498,1268);
}
);
layerId = "B1F27B51-9973-4381-9301-4FE46FE1CA59";
shapes = (
{
closed = 1;
nodes = (
(868,1086,l),
(500,56,l),
(496,56,l),
(128,1086,l),
(80,1086,l),
(466,0,l),
(528,0,l),
(916,1086,l)
);
}
);
width = 996;
},
{
anchors = (
{
name = bottom;
pos = (542,0);
},
{
name = top;
pos = (542,1268);
}
);
layerId = "CD0E3B44-F66A-4791-B84C-A1128DC61275";
shapes = (
{
closed = 1;
nodes = (
(844,1086,l),
(548,224,l),
(536,224,l),
(240,1086,l),
(52,1086,l),
(452,0,l),
(630,0,l),
(1032,1086,l)
);
}
);
width = 1084;
}
);
unicode = 118;
userData = {
com.typemytype.robofont.guideline.magnetic.HsEeMarF5L = 5;
"interface.width-adjustments" = (
-16
);
};
}
{
glyphname = w;
kernLeft = w;
kernRight = w;
layers = (
{
anchors = (
{
name = bottom;
pos = (862,0);
},
{
name = top;
pos = (872,1268);
}
);
layerId = "5C20EF92-B63D-42A8-8878-93C2863E0093";
shapes = (
{
closed = 1;
nodes = (
(712,0,l),
(866,582,l),
(876,582,l),
(1030,0,l),
(1452,0,l),
(1722,1086,l),
(1332,1086,l),
(1214,430,l),
(1206,430,l),
(1060,1086,l),
(682,1086,l),
(544,424,l),
(534,424,l),
(410,1086,l),
(20,1086,l),
(292,0,l)
);
}
);
width = 1742;
},
{
anchors = (
{
name = bottom;
pos = (764,0);
},
{
name = top;
pos = (764,1268);
}
);
guides = (
{
angle = 90;
pos = (508,548);
},
{
angle = 90;
pos = (1428,568);
}
);
layerId = "B1F27B51-9973-4381-9301-4FE46FE1CA59";
shapes = (
{
closed = 1;
nodes = (
(464,0,l),
(760,1002,l),
(766,1002,l),
(1064,0,l),
(1126,0,l),
(1448,1086,l),
(1400,1086,l),
(1098,62,l),
(1092,62,l),
(786,1086,l),
(742,1086,l),
(436,62,l),
(430,62,l),
(128,1086,l),
(80,1086,l),
(402,0,l)
);
}
);
width = 1528;
},
{
anchors = (
{
name = bottom;
pos = (796,0);
},
{
name = top;
pos = (796,1268);
}
);
layerId = "CD0E3B44-F66A-4791-B84C-A1128DC61275";
shapes = (
{
closed = 1;
nodes = (
(554,0,l),
(788,828,l),
(804,828,l),
(1040,0,l),
(1210,0,l),
(1540,1086,l),
(1360,1086,l),
(1128,262,l),
(1116,262,l),
(890,1086,l),
(706,1086,l),
(476,258,l),
(466,258,l),
(234,1086,l),
(52,1086,l),
(382,0,l)
);
}
);
width = 1592;
}
);
unicode = 119;
userData = {
com.typemytype.robofont.guideline.magnetic.p3iasCA57f = 5;
"interface.width-adjustments" = (
-16
);
};
}
{
glyphname = x;
kernLeft = x;
kernRight = x;
layers = (
{
anchors = (
{
name = bottom;
pos = (476,0);
},
{
name = cross;
pos = (476,544);
},
{
name = cyrtic;
pos = (842,6);
},
{
name = right;
pos = (742,0);
},
{
name = top;
pos = (476,1268);
}
);
layerId = "B1F27B51-9973-4381-9301-4FE46FE1CA59";
shapes = (
{
closed = 1;
nodes = (
(102,1086,l),
(448,544,l),
(102,0,l),
(156,0,l),
(476,502,l),
(794,0,l),
(848,0,l),
(502,544,l),
(848,1086,l),
(794,1086,l),
(476,584,l),
(156,1086,l)
);
}
);
width = 950;
},
{
anchors = (
{
name = bottom;
pos = (594,0);
},
{
name = cross;
pos = (594,544);
},
{
name = cyrtic;
pos = (1112,158);
},
{
name = right;
pos = (950,0);
},
{
name = top;
pos = (594,1268);
}
);
layerId = "5C20EF92-B63D-42A8-8878-93C2863E0093";
shapes = (
{
closed = 1;
nodes = (
(46,1086,l),
(334,544,l),
(26,0,l),
(416,0,l),
(594,346,l),
(778,0,l),
(1162,0,l),
(858,544,l),
(1148,1086,l),
(760,1086,l),
(594,750,l),
(436,1086,l)
);
}
);
width = 1188;
},
{
anchors = (
{
name = bottom;
pos = (524,0);
},
{
name = cross;
pos = (524,544);
},
{
name = cyrtic;
pos = (952,66);
},
{
name = right;
pos = (826,0);
},
{
name = top;
pos = (524,1268);
}
);
layerId = "CD0E3B44-F66A-4791-B84C-A1128DC61275";
shapes = (
{
closed = 1;
nodes = (
(70,1086,l),
(412,544,l),
(70,0,l),
(268,0,l),
(524,420,l),
(784,0,l),
(980,0,l),
(630,544,l),
(980,1086,l),
(782,1086,l),
(524,644,l),
(268,1086,l)
);
}
);
width = 1050;
}
);
unicode = 120;
userData = {
com.typemytype.robofont.guideline.magnetic.lFaJLQuFPv = 5;
"interface.width-adjustments" = (
-16
);
};
}
{
glyphname = y;
kernLeft = v;
kernRight = v;
layers = (
{
anchors = (
{
name = bottom;
pos = (982,0);
},
{
name = ogonek;
pos = (788,-408);
},
{
name = top;
pos = (600,1268);
}
);
layerId = "5C20EF92-B63D-42A8-8878-93C2863E0093";
shapes = (
{
closed = 1;
nodes = (
(610,-408,o),
(738,-270,o),
(798,-90,cs),
(1194,1086,l),
(784,1086,l),
(606,334,l),
(594,334,l),
(418,1086,l),
(12,1086,l),
(394,-48,l),
(386,-66,ls),
(366,-112,o),
(330,-116,o),
(278,-116,cs),
(234,-116,o),
(184,-116,o),
(130,-112,c),
(130,-402,l),
(182,-406,o),
(248,-408,o),
(322,-408,cs)
);
}
);
width = 1206;
},
{
anchors = (
{
name = bottom;
pos = (696,-84);
},
{
name = ogonek;
pos = (522,-408);
},
{
name = top;
pos = (498,1268);
}
);
layerId = "B1F27B51-9973-4381-9301-4FE46FE1CA59";
shapes = (
{
closed = 1;
nodes = (
(324,-408,o),
(412,-334,o),
(460,-198,cs),
(916,1086,l),
(868,1086,l),
(500,56,l),
(496,56,l),
(128,1086,l),
(80,1086,l),
(476,-20,l),
(418,-182,ls),
(360,-342,o),
(262,-364,o),
(190,-364,cs),
(182,-364,o),
(176,-362,o),
(172,-362,c),
(172,-408,l),
(176,-408,o),
(182,-408,o),
(190,-408,cs)
);
}
);
width = 996;
},
{
anchors = (
{
name = bottom;
pos = (814,-46);
},
{
name = ogonek;
pos = (692,-408);
},
{
name = top;
pos = (542,1268);
}
);
layerId = "CD0E3B44-F66A-4791-B84C-A1128DC61275";
shapes = (
{
closed = 1;
nodes = (
(402,-408,o),
(508,-326,o),
(572,-156,cs),
(1032,1086,l),
(844,1086,l),
(548,224,l),
(536,224,l),
(240,1086,l),
(52,1086,l),
(454,-8,l),
(422,-90,ls),
(364,-248,o),
(306,-254,o),
(236,-254,cs),
(210,-254,o),
(168,-252,o),
(152,-250,c),
(152,-404,l),
(174,-406,o),
(212,-408,o),
(248,-408,cs)
);
}
);
width = 1084;
}
);
unicode = 121;
userData = {
com.typemytype.robofont.guideline.magnetic.lsCjxlYELh = 5;
"interface.width-adjustments" = (
-16
);
};
}
{
glyphname = z;
kernLeft = z;
kernRight = z;
layers = (
{
anchors = (
{
name = bottom;
pos = (594,0);
},
{
name = cross;
pos = (586,544);
},
{
name = top;
pos = (588,1268);
}
);
guides = (
{
angle = 51.5719;
pos = (964,736);
},
{
angle = 90;
pos = (1356,484);
},
{
angle = 51.5719;
pos = (372,740);
},
{
angle = 90;
pos = (8,484);
}
);
layerId = "5C20EF92-B63D-42A8-8878-93C2863E0093";
shapes = (
{
closed = 1;
nodes = (
(1064,0,l),
(1064,298,l),
(614,298,l),
(614,302,l),
(1046,848,l),
(1046,1086,l),
(128,1086,l),
(128,790,l),
(586,790,l),
(586,784,l),
(110,214,l),
(110,0,l)
);
}
);
width = 1180;
},
{
anchors = (
{
name = bottom;
pos = (466,0);
},
{
name = cross;
pos = (484,544);
},
{
name = top;
pos = (484,1268);
}
);
guides = (
{
angle = 90;
pos = (1080,2016);
},
{
angle = 90;
pos = (80,540);
}
);
layerId = "B1F27B51-9973-4381-9301-4FE46FE1CA59";
shapes = (
{
closed = 1;
nodes = (
(866,0,l),
(866,46,l),
(186,46,l),
(186,50,l),
(838,1040,l),
(838,1086,l),
(172,1086,l),
(172,1040,l),
(780,1040,l),
(780,1036,l),
(130,46,l),
(130,0,l)
);
}
);
width = 968;
},
{
anchors = (
{
name = bottom;
pos = (518,0);
},
{
name = cross;
pos = (524,544);
},
{
name = top;
pos = (524,1268);
}
);
layerId = "CD0E3B44-F66A-4791-B84C-A1128DC61275";
shapes = (
{
closed = 1;
nodes = (
(960,0,l),
(960,158,l),
(346,158,l),
(346,170,l),
(940,950,l),
(940,1086,l),
(126,1086,l),
(126,928,l),
(718,928,l),
(718,916,l),
(106,130,l),
(106,0,l)
);
}
);
width = 1050;
}
);
unicode = 122;
userData = {
com.typemytype.robofont.guideline.magnetic.R2Ni5F405P = 5;
"interface.width-adjustments" = (
-16
);
};
}
{
glyphname = braceleft;
kernLeft = parenleft;
kernRight = parenleft;
layers = (
{
guides = (
{
pos = (1064,792);
},
{
pos = (1068,-464);
}
);
layerId = "5C20EF92-B63D-42A8-8878-93C2863E0093";
shapes = (
{
closed = 1;
nodes = (
(556,544,o),
(654,684,o),
(654,826,cs),
(654,1052,ls),
(654,1170,o),
(676,1228,o),
(846,1228,c),
(846,1510,l),
(554,1510,o),
(274,1512,o),
(274,1104,cs),
(274,922,ls),
(274,784,o),
(220,722,o),
(54,722,c),
(54,544,l)
);
},
{
closed = 1;
nodes = (
(846,-124,l),
(676,-124,o),
(654,-68,o),
(654,50,cs),
(654,278,ls),
(654,420,o),
(556,560,o),
(54,560,c),
(54,382,l),
(220,382,o),
(274,320,o),
(274,182,cs),
(274,0,ls),
(274,-408,o),
(554,-408,o),
(846,-408,c)
);
},
{
closed = 1;
nodes = (
(364,382,l),
(364,722,l),
(54,722,l),
(54,382,l)
);
}
);
width = 876;
},
{
guides = (
{
pos = (-84,2728);
},
{
pos = (-84,168);
},
{
pos = (500,1448);
}
);
layerId = "B1F27B51-9973-4381-9301-4FE46FE1CA59";
shapes = (
{
closed = 1;
nodes = (
(296,528,o),
(362,596,o),
(362,784,cs),
(362,1208,ls),
(362,1388,o),
(426,1466,o),
(574,1466,c),
(574,1510,l),
(400,1510,o),
(316,1412,o),
(316,1208,cs),
(316,784,ls),
(316,622,o),
(272,574,o),
(108,574,c),
(108,528,l)
);
},
{
closed = 1;
nodes = (
(574,-362,l),
(426,-362,o),
(362,-284,o),
(362,-104,cs),
(362,320,ls),
(362,506,o),
(296,572,o),
(108,574,c),
(108,528,l),
(272,528,o),
(316,482,o),
(316,320,cs),
(316,-104,ls),
(316,-308,o),
(400,-408,o),
(574,-408,c)
);
},
{
closed = 1;
nodes = (
(260,528,l),
(260,574,l),
(108,574,l),
(108,528,l)
);
}
);
width = 582;
},
{
layerId = "CD0E3B44-F66A-4791-B84C-A1128DC61275";
shapes = (
{
closed = 1;
nodes = (
(368,548,o),
(428,648,o),
(428,796,cs),
(428,1130,ls),
(428,1294,o),
(480,1368,o),
(644,1368,c),
(644,1510,l),
(366,1510,o),
(270,1396,o),
(270,1132,cs),
(270,852,ls),
(270,698,o),
(216,638,o),
(58,638,c),
(58,548,l)
);
},
{
closed = 1;
nodes = (
(644,-264,l),
(480,-264,o),
(428,-190,o),
(428,-26,cs),
(428,306,ls),
(428,454,o),
(368,554,o),
(58,554,c),
(58,466,l),
(216,466,o),
(270,404,o),
(270,250,cs),
(270,-28,ls),
(270,-292,o),
(366,-408,o),
(644,-408,c)
);
},
{
closed = 1;
nodes = (
(228,466,l),
(228,638,l),
(58,638,l),
(58,466,l)
);
}
);
width = 698;
}
);
metricWidth = parenleft;
unicode = 123;
}
{
glyphname = bar;
kernLeft = B;
kernRight = H;
layers = (
{
guides = (
{
pos = (-180,1240);
},
{
pos = (-180,764);
}
);
layerId = "5C20EF92-B63D-42A8-8878-93C2863E0093";
shapes = (
{
closed = 1;
nodes = (
(212,1652,l),
(212,-204,l),
(594,-204,l),
(594,1652,l)
);
}
);
width = 806;
},
{
layerId = "B1F27B51-9973-4381-9301-4FE46FE1CA59";
shapes = (
{
closed = 1;
nodes = (
(226,1652,l),
(226,-204,l),
(272,-204,l),
(272,1652,l)
);
}
);
width = 498;
},
{
layerId = "CD0E3B44-F66A-4791-B84C-A1128DC61275";
shapes = (
{
closed = 1;
nodes = (
(240,1652,l),
(240,-204,l),
(388,-204,l),
(388,1652,l)
);
}
);
width = 626;
}
);
unicode = 124;
userData = {
"interface.width-adjustments" = (
-16
);
};
}
{
glyphname = asciitilde;
kernLeft = hyphen;
kernRight = hyphen;
layers = (
{
guides = (
{
orientation = center;
pos = (260,832);
}
);
layerId = "5C20EF92-B63D-42A8-8878-93C2863E0093";
shapes = (
{
closed = 1;
nodes = (
(258,438,o),
(346,472,o),
(442,472,cs),
(618,472,o),
(758,360,o),
(932,360,cs),
(1032,360,o),
(1122,398,o),
(1192,468,c),
(1192,770,l),
(1122,706,o),
(1034,674,o),
(938,674,cs),
(762,674,o),
(620,784,o),
(446,784,cs),
(346,784,o),
(258,748,o),
(188,678,c),
(188,374,l)
);
}
);
width = 1380;
},
{
guides = (
{
pos = (132,1384);
}
);
layerId = "B1F27B51-9973-4381-9301-4FE46FE1CA59";
shapes = (
{
closed = 1;
nodes = (
(242,574,o),
(316,608,o),
(400,608,cs),
(540,608,o),
(662,494,o),
(822,494,cs),
(908,494,o),
(984,528,o),
(1046,592,c),
(1046,662,l),
(980,574,o),
(906,538,o),
(822,538,cs),
(682,538,o),
(560,654,o),
(400,654,cs),
(314,654,o),
(238,618,o),
(176,554,c),
(176,486,l)
);
}
);
width = 1222;
},
{
layerId = "CD0E3B44-F66A-4791-B84C-A1128DC61275";
shapes = (
{
closed = 1;
nodes = (
(254,510,o),
(332,554,o),
(420,554,cs),
(568,554,o),
(706,438,o),
(858,438,cs),
(948,438,o),
(1024,478,o),
(1090,552,c),
(1090,718,l),
(1030,636,o),
(952,592,o),
(862,592,cs),
(714,592,o),
(578,708,o),
(426,708,cs),
(338,708,o),
(260,668,o),
(194,594,c),
(194,428,l)
);
}
);
width = 1284;
}
);
metricWidth = plus;
unicode = 126;
userData = {
com.typemytype.robofont.guideline.magnetic.3xFHrd4wHk = 5;
com.typemytype.robofont.guideline.magnetic.7O4U9XRpHd = 5;
"interface.width-adjustments" = (
-16
);
};
}
{
glyphname = idotless;
kernLeft = idotless;
kernRight = idotless;
layers = (
{
anchors = (
{
name = bottom;
pos = (298,0);
},
{
name = cross;
pos = (292,594);
},
{
name = ogonek;
pos = (490,0);
},
{
name = top;
pos = (294,1268);
}
);
guides = (
{
angle = 90;
orientation = center;
pos = (228,1504);
}
);
layerId = "5C20EF92-B63D-42A8-8878-93C2863E0093";
shapes = (
{
closed = 1;
nodes = (
(490,0,l),
(490,1086,l),
(100,1086,l),
(100,0,l)
);
}
);
width = 588;
},
{
anchors = (
{
name = bottom;
pos = (198,0);
},
{
name = cross;
pos = (198,566);
},
{
name = ogonek;
pos = (220,0);
},
{
name = top;
pos = (198,1268);
}
);
layerId = "B1F27B51-9973-4381-9301-4FE46FE1CA59";
shapes = (
{
closed = 1;
nodes = (
(220,0,l),
(220,1086,l),
(176,1086,l),
(176,0,l)
);
}
);
width = 396;
},
{
anchors = (
{
name = bottom;
pos = (224,0);
},
{
name = cross;
pos = (224,578);
},
{
name = ogonek;
pos = (310,0);
},
{
name = top;
pos = (224,1268);
}
);
layerId = "CD0E3B44-F66A-4791-B84C-A1128DC61275";
shapes = (
{
closed = 1;
nodes = (
(310,0,l),
(310,1086,l),
(138,1086,l),
(138,0,l)
);
}
);
width = 446;
}
);
unicode = 305;
userData = {
"interface.width-adjustments" = (
-16
);
};
}
{
glyphname = jdotless;
kernLeft = jdotless;
kernRight = idotless;
layers = (
{
anchors = (
{
name = _right;
pos = (436,0);
},
{
name = bottom;
pos = (238,-388);
},
{
name = cross;
pos = (294,668);
},
{
name = top;
pos = (294,1268);
}
);
guides = (
{
angle = 90;
pos = (268,1416);
}
);
layerId = "5C20EF92-B63D-42A8-8878-93C2863E0093";
shapes = (
{
closed = 1;
nodes = (
(100,-28,ls),
(100,-90,o),
(72,-118,o),
(-22,-118,cs),
(-36,-118,o),
(-50,-118,o),
(-68,-116,c),
(-68,-404,l),
(-40,-406,o),
(-16,-408,o),
(12,-408,cs),
(298,-408,o),
(490,-322,o),
(490,-36,cs),
(490,1086,l),
(100,1086,l)
);
}
);
width = 588;
},
{
anchors = (
{
name = _right;
pos = (472,0);
},
{
name = bottom;
pos = (170,-430);
},
{
name = cross;
pos = (198,612);
},
{
name = top;
pos = (198,1268);
}
);
layerId = "B1F27B51-9973-4381-9301-4FE46FE1CA59";
shapes = (
{
closed = 1;
nodes = (
(176,-158,ls),
(176,-284,o),
(80,-362,o),
(-28,-362,cs),
(-34,-362,o),
(-40,-362,o),
(-46,-362,c),
(-46,-408,l),
(-40,-408,o),
(-34,-408,o),
(-28,-408,cs),
(104,-408,o),
(220,-310,o),
(220,-158,cs),
(220,1086,l),
(176,1086,l)
);
}
);
width = 396;
},
{
anchors = (
{
name = _right;
pos = (446,0);
},
{
name = bottom;
pos = (168,-446);
},
{
name = cross;
pos = (222,632);
},
{
name = top;
pos = (222,1268);
}
);
layerId = "CD0E3B44-F66A-4791-B84C-A1128DC61275";
shapes = (
{
closed = 1;
nodes = (
(138,-78,l),
(138,-186,o),
(92,-248,o),
(-8,-248,cs),
(-20,-248,o),
(-30,-248,o),
(-42,-248,c),
(-42,-408,l),
(-30,-408,o),
(-18,-408,o),
(-6,-408,cs),
(204,-408,o),
(310,-282,o),
(310,-78,c),
(310,1086,l),
(138,1086,l)
);
}
);
width = 446;
}
);
metricRight = idotless;
unicode = 567;
userData = {
com.typemytype.robofont.guideline.magnetic.Zernh6wcOg = 5;
interface.gridadjust.original = "{'width': 723, 'leftMargin': -92, 'rightMargin': 213}";
"interface.width-adjustments" = (
-16
);
};
}
{
glyphname = dotaccent;
layers = (
{
anchors = (
{
name = _top;
pos = (326,1268);
}
);
guides = (
{
angle = 90;
orientation = center;
pos = (396,1500);
},
{
pos = (508,1948);
}
);
layerId = "5C20EF92-B63D-42A8-8878-93C2863E0093";
shapes = (
{
closed = 1;
nodes = (
(432,1200,o),
(518,1280,o),
(518,1378,cs),
(518,1476,o),
(432,1556,o),
(326,1556,cs),
(220,1556,o),
(132,1476,o),
(132,1378,cs),
(132,1280,o),
(220,1200,o),
(326,1200,cs)
);
}
);
width = 650;
},
{
anchors = (
{
name = _top;
pos = (158,1268);
}
);
guides = (
{
pos = (616,2464);
}
);
layerId = "B1F27B51-9973-4381-9301-4FE46FE1CA59";
shapes = (
{
closed = 1;
nodes = (
(182,1284,o),
(204,1306,o),
(204,1330,cs),
(204,1354,o),
(182,1374,o),
(158,1374,cs),
(134,1374,o),
(114,1354,o),
(114,1330,cs),
(114,1306,o),
(134,1284,o),
(158,1284,cs)
);
}
);
width = 316;
},
{
anchors = (
{
name = _top;
pos = (224,1268);
}
);
layerId = "CD0E3B44-F66A-4791-B84C-A1128DC61275";
shapes = (
{
closed = 1;
nodes = (
(290,1266,o),
(346,1316,o),
(346,1380,cs),
(346,1444,o),
(290,1494,o),
(224,1494,cs),
(158,1494,o),
(104,1444,o),
(104,1380,cs),
(104,1316,o),
(158,1266,o),
(224,1266,cs)
);
}
);
width = 448;
}
);
unicode = 729;
userData = {
interface.gridadjust.original = "{'width': 696, 'leftMargin': 193, 'rightMargin': 186}";
"interface.width-adjustments" = (
-16
);
};
}
{
glyphname = quoteleft;
kernLeft = quotedblleft;
kernRight = quotedblleft;
layers = (
{
layerId = "5C20EF92-B63D-42A8-8878-93C2863E0093";
shapes = (
{
closed = 1;
nodes = (
(436,860,l),
(526,1448,l),
(266,1448,l),
(80,860,l)
);
}
);
width = 606;
},
{
layerId = "B1F27B51-9973-4381-9301-4FE46FE1CA59";
shapes = (
{
closed = 1;
nodes = (
(104,996,l),
(220,1448,l),
(184,1448,l),
(60,996,l)
);
}
);
width = 280;
},
{
layerId = "CD0E3B44-F66A-4791-B84C-A1128DC61275";
shapes = (
{
closed = 1;
nodes = (
(268,904,l),
(378,1448,l),
(230,1448,l),
(74,904,l)
);
}
);
width = 452;
}
);
unicode = 8216;
userData = {
"interface.width-adjustments" = (
-16
);
};
}
{
glyphname = fraction;
kernLeft = fraction;
kernRight = fraction;
layers = (
{
anchors = (
{
name = dnom;
pos = (518,770);
},
{
name = numr;
pos = (22,678);
}
);
guides = (
{
pos = (-192,1024);
},
{
angle = 90;
orientation = center;
pos = (-192,764);
}
);
layerId = "5C20EF92-B63D-42A8-8878-93C2863E0093";
shapes = (
{
closed = 1;
nodes = (
(-90,0,l),
(906,1448,l),
(634,1448,l),
(-362,0,l)
);
}
);
width = 544;
},
{
anchors = (
{
name = dnom;
pos = (476,770);
},
{
name = numr;
pos = (22,678);
}
);
layerId = "B1F27B51-9973-4381-9301-4FE46FE1CA59";
shapes = (
{
closed = 1;
nodes = (
(-220,0,l),
(772,1448,l),
(718,1448,l),
(-274,0,l)
);
}
);
width = 498;
},
{
anchors = (
{
name = dnom;
pos = (486,770);
},
{
name = numr;
pos = (32,678);
}
);
layerId = "CD0E3B44-F66A-4791-B84C-A1128DC61275";
shapes = (
{
closed = 1;
nodes = (
(-160,0,l),
(836,1448,l),
(674,1448,l),
(-322,0,l)
);
}
);
width = 514;
}
);
unicode = 8260;
userData = {
interface.gridadjust.original = "{'width': 1284, 'leftMargin': 81, 'rightMargin': 73}";
"interface.width-adjustments" = (
-16
);
};
}
{
glyphname = "kiyeokCompa-ko";
layers = (
{
anchors = (
{
name = _symbol;
pos = (886,706);
}
);
layerId = "B1F27B51-9973-4381-9301-4FE46FE1CA59";
shapes = (
{
closed = 1;
nodes = (
(356,1142,l),
(356,1094,l),
(1368,1094,l),
(1368,270,l),
(1416,270,l),
(1416,1142,l)
);
}
);
width = 1770;
},
{
anchors = (
{
name = _symbol;
pos = (886,744);
}
);
layerId = "5C20EF92-B63D-42A8-8878-93C2863E0093";
shapes = (
{
closed = 1;
nodes = (
(288,1254,l),
(288,992,l),
(1156,992,l),
(1156,236,l),
(1484,236,l),
(1484,1254,l)
);
}
);
width = 1770;
},
{
anchors = (
{
name = _symbol;
pos = (886,720);
}
);
layerId = "CD0E3B44-F66A-4791-B84C-A1128DC61275";
shapes = (
{
closed = 1;
nodes = (
(328,1184,l),
(328,1054,l),
(1286,1054,l),
(1286,258,l),
(1442,258,l),
(1442,1184,l)
);
}
);
width = 1770;
}
);
unicode = (12593,65441);
}
{
glyphname = "ssangkiyeokCompa-ko";
layers = (
{
layerId = "B1F27B51-9973-4381-9301-4FE46FE1CA59";
shapes = (
{
closed = 1;
nodes = (
(320,1142,l),
(320,1094,l),
(828,1094,l),
(828,270,l),
(876,270,l),
(876,1142,l)
);
},
{
closed = 1;
nodes = (
(998,1144,l),
(998,1098,l),
(1524,1098,l),
(1524,276,l),
(1572,276,l),
(1572,1144,l)
);
}
);
width = 1770;
},
{
layerId = "5C20EF92-B63D-42A8-8878-93C2863E0093";
shapes = (
{
closed = 1;
nodes = (
(148,1254,l),
(148,992,l),
(534,992,l),
(534,236,l),
(858,236,l),
(858,1254,l)
);
},
{
closed = 1;
nodes = (
(934,1258,l),
(934,996,l),
(1272,996,l),
(1272,236,l),
(1600,236,l),
(1600,1258,l)
);
}
);
width = 1770;
},
{
layerId = "CD0E3B44-F66A-4791-B84C-A1128DC61275";
shapes = (
{
closed = 1;
nodes = (
(252,1184,l),
(252,1054,l),
(716,1054,l),
(716,258,l),
(868,258,l),
(868,1184,l)
);
},
{
closed = 1;
nodes = (
(974,1188,l),
(974,1058,l),
(1428,1058,l),
(1428,260,l),
(1582,260,l),
(1582,1188,l)
);
}
);
width = 1770;
}
);
unicode = (12594,65442);
}
{
glyphname = "kiyeokSiosCompa-ko";
layers = (
{
layerId = "B1F27B51-9973-4381-9301-4FE46FE1CA59";
shapes = (
{
closed = 1;
nodes = (
(290,1142,l),
(290,1094,l),
(742,1094,l),
(742,270,l),
(790,270,l),
(790,1142,l)
);
},
{
closed = 1;
nodes = (
(1226,1164,l),
(1226,818,ls),
(1224,630,o),
(1106,400,o),
(902,302,c),
(934,264,l),
(1148,368,o),
(1270,610,o),
(1272,818,cs),
(1272,1164,l)
);
},
{
closed = 1;
nodes = (
(1230,1164,l),
(1230,818,ls),
(1230,610,o),
(1350,368,o),
(1568,264,c),
(1602,302,l),
(1394,400,o),
(1276,630,o),
(1276,818,cs),
(1276,1164,l)
);
}
);
width = 1770;
},
{
layerId = "5C20EF92-B63D-42A8-8878-93C2863E0093";
shapes = (
{
closed = 1;
nodes = (
(158,1248,l),
(158,986,l),
(494,986,l),
(494,236,l),
(818,236,l),
(818,1248,l)
);
},
{
closed = 1;
nodes = (
(1062,1264,l),
(1062,946,ls),
(1060,724,o),
(988,530,o),
(732,450,c),
(900,214,l),
(1210,330,o),
(1304,598,o),
(1304,946,cs),
(1304,1264,l)
);
},
{
closed = 1;
nodes = (
(1130,1264,l),
(1130,946,ls),
(1128,598,o),
(1220,330,o),
(1532,214,c),
(1700,450,l),
(1444,530,o),
(1374,724,o),
(1374,946,cs),
(1374,1264,l)
);
}
);
width = 1770;
},
{
layerId = "CD0E3B44-F66A-4791-B84C-A1128DC61275";
shapes = (
{
closed = 1;
nodes = (
(240,1182,l),
(240,1052,l),
(646,1052,l),
(646,258,l),
(802,258,l),
(802,1182,l)
);
},
{
closed = 1;
nodes = (
(1162,1202,l),
(1162,868,ls),
(1160,668,o),
(1060,450,o),
(836,360,c),
(922,244,l),
(1172,352,o),
(1282,606,o),
(1284,868,cs),
(1284,1202,l)
);
},
{
closed = 1;
nodes = (
(1192,1202,l),
(1192,868,ls),
(1192,606,o),
(1298,352,o),
(1552,244,c),
(1640,360,l),
(1416,450,o),
(1314,668,o),
(1314,868,cs),
(1314,1202,l)
);
}
);
width = 1770;
}
);
unicode = (12595,65443);
}
{
glyphname = "nieunCompa-ko";
layers = (
{
anchors = (
{
name = _symbol;
pos = (886,706);
}
);
layerId = "B1F27B51-9973-4381-9301-4FE46FE1CA59";
shapes = (
{
closed = 1;
nodes = (
(378,318,l),
(378,270,l),
(1462,270,l),
(1462,318,l)
);
},
{
closed = 1;
nodes = (
(378,1142,l),
(378,300,l),
(422,300,l),
(422,1142,l)
);
}
);
width = 1770;
},
{
anchors = (
{
name = _symbol;
pos = (886,764);
}
);
layerId = "5C20EF92-B63D-42A8-8878-93C2863E0093";
shapes = (
{
closed = 1;
nodes = (
(282,536,l),
(282,274,l),
(1494,274,l),
(1494,536,l)
);
},
{
closed = 1;
nodes = (
(282,1254,l),
(282,434,l),
(614,434,l),
(614,1254,l)
);
}
);
width = 1770;
},
{
anchors = (
{
name = _symbol;
pos = (886,728);
}
);
layerId = "CD0E3B44-F66A-4791-B84C-A1128DC61275";
shapes = (
{
closed = 1;
nodes = (
(340,400,l),
(340,272,l),
(1476,272,l),
(1476,400,l)
);
},
{
closed = 1;
nodes = (
(340,1184,l),
(340,352,l),
(496,352,l),
(496,1184,l)
);
}
);
width = 1770;
}
);
unicode = (12596,65444);
}
{
glyphname = "nieunCieucCompa-ko";
layers = (
{
layerId = "B1F27B51-9973-4381-9301-4FE46FE1CA59";
shapes = (
{
closed = 1;
nodes = (
(370,1152,l),
(370,282,l),
(418,282,l),
(418,1152,l)
);
},
{
closed = 1;
nodes = (
(1158,1094,l),
(1158,814,ls),
(1158,626,o),
(1044,394,o),
(842,292,c),
(876,252,l),
(1090,362,o),
(1200,608,o),
(1202,814,cs),
(1202,1094,l)
);
},
{
closed = 1;
nodes = (
(1162,1094,l),
(1162,814,ls),
(1162,608,o),
(1276,362,o),
(1488,252,c),
(1524,292,l),
(1318,394,o),
(1208,626,o),
(1208,814,cs),
(1208,1094,l)
);
},
{
closed = 1;
nodes = (
(878,1134,l),
(878,1086,l),
(1488,1086,l),
(1488,1134,l)
);
},
{
closed = 1;
nodes = (
(370,310,l),
(370,264,l),
(434,264,ls),
(544,264,o),
(692,268,o),
(844,324,c),
(828,374,l),
(692,316,o),
(534,310,o),
(434,310,cs)
);
}
);
width = 1770;
},
{
layerId = "5C20EF92-B63D-42A8-8878-93C2863E0093";
shapes = (
{
closed = 1;
nodes = (
(162,1254,l),
(162,432,l),
(492,432,l),
(492,1254,l)
);
},
{
closed = 1;
nodes = (
(1016,1202,l),
(1016,1016,ls),
(1016,760,o),
(954,536,o),
(698,436,c),
(886,200,l),
(1180,334,o),
(1258,636,o),
(1258,1016,cs),
(1258,1202,l)
);
},
{
closed = 1;
nodes = (
(1082,1202,l),
(1082,1016,ls),
(1082,636,o),
(1166,330,o),
(1476,196,c),
(1654,436,l),
(1394,536,o),
(1326,760,o),
(1326,1016,cs),
(1326,1202,l)
);
},
{
closed = 1;
nodes = (
(782,1252,l),
(782,996,l),
(1568,996,l),
(1568,1252,l)
);
},
{
closed = 1;
nodes = (
(162,466,l),
(162,208,l),
(276,208,ls),
(504,208,o),
(640,210,o),
(804,244,c),
(776,502,l),
(620,474,o),
(490,466,o),
(276,466,cs)
);
}
);
width = 1770;
},
{
layerId = "CD0E3B44-F66A-4791-B84C-A1128DC61275";
shapes = (
{
closed = 1;
nodes = (
(288,1190,l),
(288,342,l),
(446,342,l),
(446,1190,l)
);
},
{
closed = 1;
nodes = (
(1104,1136,l),
(1104,894,ls),
(1102,680,o),
(1010,450,o),
(786,350,c),
(880,234,l),
(1124,352,o),
(1222,622,o),
(1224,894,cs),
(1224,1136,l)
);
},
{
closed = 1;
nodes = (
(1132,1136,l),
(1132,894,ls),
(1132,622,o),
(1234,350,o),
(1484,230,c),
(1574,350,l),
(1348,450,o),
(1254,680,o),
(1254,894,cs),
(1254,1136,l)
);
},
{
closed = 1;
nodes = (
(842,1180,l),
(842,1052,l),
(1520,1052,l),
(1520,1180,l)
);
},
{
closed = 1;
nodes = (
(288,370,l),
(288,244,l),
(374,244,ls),
(530,242,o),
(670,246,o),
(828,292,c),
(806,422,l),
(664,376,o),
(516,370,o),
(374,370,cs)
);
}
);
width = 1770;
}
);
unicode = (12597,65445);
}
{
glyphname = "nieunHieuhCompa-ko";
layers = (
{
layerId = "B1F27B51-9973-4381-9301-4FE46FE1CA59";
shapes = (
{
closed = 1;
nodes = (
(370,1106,l),
(370,282,l),
(418,282,l),
(418,1106,l)
);
},
{
closed = 1;
nodes = (
(370,312,l),
(370,268,l),
(434,268,ls),
(544,268,o),
(692,268,o),
(844,326,c),
(828,374,l),
(692,316,o),
(534,312,o),
(434,312,cs)
);
},
{
closed = 1;
nodes = (
(862,968,l),
(862,924,l),
(1466,924,l),
(1466,968,l)
);
},
{
closed = 1;
nodes = (
(1012,830,o),
(898,712,o),
(900,536,cs),
(898,360,o),
(1012,244,o),
(1162,244,cs),
(1312,244,o),
(1426,360,o),
(1428,536,cs),
(1426,712,o),
(1312,830,o),
(1162,830,cs)
);
},
{
closed = 1;
nodes = (
(1292,786,o),
(1382,676,o),
(1382,536,cs),
(1382,398,o),
(1292,288,o),
(1162,288,cs),
(1034,288,o),
(944,398,o),
(946,536,cs),
(944,676,o),
(1034,786,o),
(1162,788,cs)
);
},
{
closed = 1;
nodes = (
(1142,1172,l),
(1142,942,l),
(1190,942,l),
(1190,1172,l)
);
}
);
width = 1770;
},
{
layerId = "5C20EF92-B63D-42A8-8878-93C2863E0093";
shapes = (
{
closed = 1;
nodes = (
(156,1234,l),
(156,410,l),
(480,410,l),
(480,1234,l)
);
},
{
closed = 1;
nodes = (
(156,488,l),
(156,228,l),
(276,228,ls),
(500,226,o),
(640,230,o),
(804,264,c),
(776,520,l),
(620,492,o),
(490,488,o),
(276,488,cs)
);
},
{
closed = 1;
nodes = (
(748,1138,l),
(748,876,l),
(1598,876,l),
(1598,1138,l)
);
},
{
closed = 1;
nodes = (
(978,848,o),
(820,702,o),
(820,510,cs),
(820,314,o),
(978,168,o),
(1180,168,cs),
(1378,168,o),
(1534,314,o),
(1534,510,cs),
(1534,702,o),
(1378,848,o),
(1180,848,cs)
);
},
{
closed = 1;
nodes = (
(1224,594,o),
(1264,576,o),
(1264,510,cs),
(1264,444,o),
(1224,422,o),
(1180,422,cs),
(1136,422,o),
(1098,444,o),
(1098,510,cs),
(1098,576,o),
(1136,594,o),
(1180,594,cs)
);
},
{
closed = 1;
nodes = (
(1030,1278,l),
(1030,912,l),
(1348,912,l),
(1348,1278,l)
);
}
);
width = 1770;
},
{
layerId = "CD0E3B44-F66A-4791-B84C-A1128DC61275";
shapes = (
{
closed = 1;
nodes = (
(288,1156,l),
(288,332,l),
(442,332,l),
(442,1156,l)
);
},
{
closed = 1;
nodes = (
(288,380,l),
(288,252,l),
(374,252,ls),
(526,252,o),
(670,252,o),
(828,302,c),
(806,432,l),
(664,386,o),
(516,380,o),
(374,380,cs)
);
},
{
closed = 1;
nodes = (
(818,1034,l),
(818,906,l),
(1518,906,l),
(1518,1034,l)
);
},
{
closed = 1;
nodes = (
(998,840,o),
(868,708,o),
(870,526,cs),
(868,342,o),
(998,214,o),
(1170,214,cs),
(1338,214,o),
(1468,342,o),
(1468,526,cs),
(1468,708,o),
(1338,840,o),
(1170,838,cs)
);
},
{
closed = 1;
nodes = (
(1266,710,o),
(1334,636,o),
(1336,526,cs),
(1334,416,o),
(1266,340,o),
(1170,340,cs),
(1072,340,o),
(1004,416,o),
(1004,526,cs),
(1004,636,o),
(1072,710,o),
(1170,712,cs)
);
},
{
closed = 1;
nodes = (
(1098,1214,l),
(1098,930,l),
(1250,930,l),
(1250,1214,l)
);
}
);
width = 1770;
}
);
unicode = (12598,65446);
}
{
glyphname = "tikeutCompa-ko";
layers = (
{
anchors = (
{
name = _symbol;
pos = (886,714);
}
);
layerId = "B1F27B51-9973-4381-9301-4FE46FE1CA59";
shapes = (
{
closed = 1;
nodes = (
(380,1152,l),
(380,298,l),
(424,298,l),
(424,1104,l),
(1414,1104,l),
(1414,1152,l)
);
},
{
closed = 1;
nodes = (
(380,326,l),
(380,278,l),
(1434,278,l),
(1434,326,l)
);
}
);
width = 1770;
},
{
anchors = (
{
name = _symbol;
pos = (886,748);
}
);
layerId = "5C20EF92-B63D-42A8-8878-93C2863E0093";
shapes = (
{
closed = 1;
nodes = (
(288,1258,l),
(288,412,l),
(622,412,l),
(622,998,l),
(1470,998,l),
(1470,1258,l)
);
},
{
closed = 1;
nodes = (
(288,494,l),
(288,238,l),
(1486,238,l),
(1486,494,l)
);
}
);
width = 1770;
},
{
anchors = (
{
name = _symbol;
pos = (886,728);
}
);
layerId = "CD0E3B44-F66A-4791-B84C-A1128DC61275";
shapes = (
{
closed = 1;
nodes = (
(344,1194,l),
(344,342,l),
(500,342,l),
(500,1064,l),
(1436,1064,l),
(1436,1194,l)
);
},
{
closed = 1;
nodes = (
(344,388,l),
(344,262,l),
(1456,262,l),
(1456,388,l)
);
}
);
width = 1770;
}
);
unicode = (12599,65447);
}
{
glyphname = "ssangtikeutCompa-ko";
layers = (
{
layerId = "B1F27B51-9973-4381-9301-4FE46FE1CA59";
shapes = (
{
closed = 1;
nodes = (
(346,1152,l),
(346,298,l),
(394,298,l),
(394,1104,l),
(872,1104,l),
(872,1152,l)
);
},
{
closed = 1;
nodes = (
(924,1152,l),
(924,298,l),
(972,298,l),
(972,1104,l),
(1452,1104,l),
(1452,1152,l)
);
},
{
closed = 1;
nodes = (
(924,322,l),
(924,276,l),
(1458,276,l),
(1458,322,l)
);
},
{
closed = 1;
nodes = (
(346,326,l),
(346,280,l),
(418,280,ls),
(532,280,o),
(688,284,o),
(880,332,c),
(866,380,l),
(690,332,o),
(526,326,o),
(418,326,cs)
);
}
);
width = 1770;
},
{
layerId = "5C20EF92-B63D-42A8-8878-93C2863E0093";
shapes = (
{
closed = 1;
nodes = (
(198,1258,l),
(198,412,l),
(522,412,l),
(522,998,l),
(822,998,l),
(822,1258,l)
);
},
{
closed = 1;
nodes = (
(948,1258,l),
(948,412,l),
(1272,412,l),
(1272,998,l),
(1560,998,l),
(1560,1258,l)
);
},
{
closed = 1;
nodes = (
(948,524,l),
(948,262,l),
(1572,262,l),
(1572,524,l)
);
},
{
closed = 1;
nodes = (
(198,534,l),
(198,260,l),
(316,260,ls),
(554,262,o),
(700,268,o),
(862,304,c),
(838,568,l),
(678,536,o),
(544,534,o),
(316,534,cs)
);
}
);
width = 1770;
},
{
layerId = "CD0E3B44-F66A-4791-B84C-A1128DC61275";
shapes = (
{
closed = 1;
nodes = (
(288,1194,l),
(288,342,l),
(442,342,l),
(442,1064,l),
(852,1064,l),
(852,1194,l)
);
},
{
closed = 1;
nodes = (
(932,1194,l),
(932,342,l),
(1088,342,l),
(1088,1064,l),
(1494,1064,l),
(1494,1194,l)
);
},
{
closed = 1;
nodes = (
(932,398,l),
(932,270,l),
(1502,270,l),
(1502,398,l)
);
},
{
closed = 1;
nodes = (
(288,406,l),
(288,272,l),
(380,272,ls),
(542,272,o),
(692,280,o),
(872,322,c),
(854,452,l),
(684,410,o),
(534,406,o),
(380,406,cs)
);
}
);
width = 1770;
}
);
unicode = (12600,65448);
}
{
glyphname = "rieulCompa-ko";
layers = (
{
anchors = (
{
name = _symbol;
pos = (886,710);
}
);
layerId = "B1F27B51-9973-4381-9301-4FE46FE1CA59";
shapes = (
{
closed = 1;
nodes = (
(354,1172,l),
(354,1128,l),
(1384,1128,l),
(1384,732,l),
(360,732,l),
(360,260,l),
(408,260,l),
(408,686,l),
(1430,686,l),
(1430,1172,l)
);
},
{
closed = 1;
nodes = (
(360,292,l),
(360,246,l),
(1464,246,l),
(1464,292,l)
);
}
);
width = 1770;
},
{
anchors = (
{
name = _symbol;
pos = (886,762);
}
);
layerId = "5C20EF92-B63D-42A8-8878-93C2863E0093";
shapes = (
{
closed = 1;
nodes = (
(276,1278,l),
(276,1020,l),
(1156,1020,l),
(1156,900,l),
(274,900,l),
(274,366,l),
(588,366,l),
(588,646,l),
(1470,646,l),
(1470,1278,l)
);
},
{
closed = 1;
nodes = (
(274,510,l),
(274,244,l),
(1498,244,l),
(1498,510,l)
);
}
);
width = 1770;
},
{
anchors = (
{
name = _symbol;
pos = (886,730);
}
);
layerId = "CD0E3B44-F66A-4791-B84C-A1128DC61275";
shapes = (
{
closed = 1;
nodes = (
(322,1214,l),
(322,1086,l),
(1294,1086,l),
(1294,796,l),
(328,796,l),
(328,302,l),
(476,302,l),
(476,670,l),
(1446,670,l),
(1446,1214,l)
);
},
{
closed = 1;
nodes = (
(328,376,l),
(328,246,l),
(1476,246,l),
(1476,376,l)
);
}
);
width = 1770;
}
);
unicode = (12601,65449);
}
{
glyphname = "rieulKiyeokCompa-ko";
layers = (
{
layerId = "B1F27B51-9973-4381-9301-4FE46FE1CA59";
shapes = (
{
closed = 1;
nodes = (
(334,1162,l),
(334,1114,l),
(834,1114,l),
(834,742,l),
(340,742,l),
(340,288,l),
(386,288,l),
(386,700,l),
(882,700,l),
(882,1162,l)
);
},
{
closed = 1;
nodes = (
(946,1162,l),
(946,1114,l),
(1440,1114,l),
(1440,274,l),
(1486,274,l),
(1486,1162,l)
);
},
{
closed = 1;
nodes = (
(340,314,l),
(340,268,l),
(424,268,ls),
(566,268,o),
(748,274,o),
(988,320,c),
(978,366,l),
(748,320,o),
(560,314,o),
(424,314,cs)
);
}
);
width = 1770;
},
{
layerId = "5C20EF92-B63D-42A8-8878-93C2863E0093";
shapes = (
{
closed = 1;
nodes = (
(170,1268,l),
(170,1006,l),
(504,1006,l),
(504,888,l),
(170,888,l),
(170,276,l),
(500,276,l),
(500,626,l),
(830,626,l),
(830,1268,l)
);
},
{
closed = 1;
nodes = (
(890,1268,l),
(890,1006,l),
(1240,1006,l),
(1240,240,l),
(1568,240,l),
(1568,1268,l)
);
},
{
closed = 1;
nodes = (
(170,500,l),
(170,240,l),
(306,240,ls),
(588,240,o),
(760,242,o),
(944,278,c),
(916,538,l),
(740,502,o),
(578,500,o),
(306,500,cs)
);
}
);
width = 1770;
},
{
layerId = "CD0E3B44-F66A-4791-B84C-A1128DC61275";
shapes = (
{
closed = 1;
nodes = (
(270,1202,l),
(270,1072,l),
(706,1072,l),
(706,800,l),
(272,800,l),
(272,284,l),
(428,284,l),
(428,670,l),
(862,670,l),
(862,1202,l)
);
},
{
closed = 1;
nodes = (
(924,1202,l),
(924,1072,l),
(1364,1072,l),
(1364,262,l),
(1518,262,l),
(1518,1202,l)
);
},
{
closed = 1;
nodes = (
(272,384,l),
(272,258,l),
(380,258,ls),
(576,258,o),
(750,260,o),
(970,302,c),
(954,432,l),
(744,390,o),
(568,384,o),
(380,384,cs)
);
}
);
width = 1770;
}
);
unicode = (12602,65450);
}
{
glyphname = "rieulMieumCompa-ko";
layers = (
{
layerId = "B1F27B51-9973-4381-9301-4FE46FE1CA59";
shapes = (
{
closed = 1;
nodes = (
(336,1156,l),
(336,1108,l),
(818,1108,l),
(818,742,l),
(340,742,l),
(340,284,l),
(386,284,l),
(386,698,l),
(864,698,l),
(864,1156,l)
);
},
{
closed = 1;
nodes = (
(340,316,l),
(340,268,l),
(414,268,ls),
(526,268,o),
(684,272,o),
(908,308,c),
(900,356,l),
(684,320,o),
(522,316,o),
(414,316,cs)
);
},
{
closed = 1;
nodes = (
(944,1156,l),
(944,268,l),
(1486,268,l),
(1486,1156,l)
);
},
{
closed = 1;
nodes = (
(1440,1110,l),
(1440,312,l),
(992,312,l),
(992,1110,l)
);
}
);
width = 1770;
},
{
layerId = "5C20EF92-B63D-42A8-8878-93C2863E0093";
shapes = (
{
closed = 1;
nodes = (
(158,1268,l),
(158,1008,l),
(496,1008,l),
(496,888,l),
(160,888,l),
(160,274,l),
(488,274,l),
(488,624,l),
(824,624,l),
(824,1268,l)
);
},
{
closed = 1;
nodes = (
(160,496,l),
(160,240,l),
(292,240,ls),
(548,240,o),
(704,244,o),
(880,280,c),
(848,534,l),
(680,500,o),
(534,496,o),
(292,496,cs)
);
},
{
closed = 1;
nodes = (
(924,1268,l),
(924,244,l),
(1624,244,l),
(1624,1268,l)
);
},
{
closed = 1;
nodes = (
(1338,1008,l),
(1338,504,l),
(1212,504,l),
(1212,1008,l)
);
}
);
width = 1770;
},
{
layerId = "CD0E3B44-F66A-4791-B84C-A1128DC61275";
shapes = (
{
closed = 1;
nodes = (
(268,1200,l),
(268,1070,l),
(694,1070,l),
(694,800,l),
(270,800,l),
(270,282,l),
(426,282,l),
(426,668,l),
(848,668,l),
(848,1200,l)
);
},
{
closed = 1;
nodes = (
(270,384,l),
(270,258,l),
(366,258,ls),
(532,258,o),
(690,262,o),
(896,298,c),
(880,422,l),
(684,388,o),
(528,384,o),
(366,384,cs)
);
},
{
closed = 1;
nodes = (
(936,1200,l),
(936,260,l),
(1540,260,l),
(1540,1200,l)
);
},
{
closed = 1;
nodes = (
(1402,1072,l),
(1402,386,l),
(1076,386,l),
(1076,1072,l)
);
}
);
width = 1770;
}
);
unicode = (12603,65451);
}
{
glyphname = "rieulPieupCompa-ko";
layers = (
{
layerId = "B1F27B51-9973-4381-9301-4FE46FE1CA59";
shapes = (
{
closed = 1;
nodes = (
(336,1156,l),
(336,1108,l),
(818,1108,l),
(818,742,l),
(340,742,l),
(340,284,l),
(386,284,l),
(386,698,l),
(864,698,l),
(864,1156,l)
);
},
{
closed = 1;
nodes = (
(956,1158,l),
(956,268,l),
(1494,268,l),
(1494,1158,l),
(1448,1158,l),
(1448,788,l),
(1002,788,l),
(1002,1158,l)
);
},
{
closed = 1;
nodes = (
(1002,742,l),
(1448,742,l),
(1448,316,l),
(1002,316,l)
);
},
{
closed = 1;
nodes = (
(340,314,l),
(340,268,l),
(418,268,ls),
(542,268,o),
(710,272,o),
(932,316,c),
(920,362,l),
(712,318,o),
(536,314,o),
(418,314,cs)
);
}
);
width = 1770;
},
{
layerId = "5C20EF92-B63D-42A8-8878-93C2863E0093";
shapes = (
{
closed = 1;
nodes = (
(158,1268,l),
(158,1008,l),
(496,1008,l),
(496,888,l),
(160,888,l),
(160,274,l),
(488,274,l),
(488,624,l),
(824,624,l),
(824,1268,l)
);
},
{
closed = 1;
nodes = (
(906,1270,l),
(906,234,l),
(1620,234,l),
(1620,1270,l),
(1312,1270,l),
(1312,1008,l),
(1210,1008,l),
(1210,1270,l)
);
},
{
closed = 1;
nodes = (
(1210,742,l),
(1312,742,l),
(1312,502,l),
(1210,502,l)
);
},
{
closed = 1;
nodes = (
(160,496,l),
(160,234,l),
(288,234,ls),
(542,234,o),
(694,238,o),
(868,276,c),
(840,536,l),
(672,500,o),
(530,496,o),
(288,496,cs)
);
}
);
width = 1770;
},
{
layerId = "CD0E3B44-F66A-4791-B84C-A1128DC61275";
shapes = (
{
closed = 1;
nodes = (
(268,1200,l),
(268,1070,l),
(694,1070,l),
(694,800,l),
(270,800,l),
(270,282,l),
(426,282,l),
(426,668,l),
(848,668,l),
(848,1200,l)
);
},
{
closed = 1;
nodes = (
(936,1202,l),
(936,256,l),
(1544,256,l),
(1544,1202,l),
(1396,1202,l),
(1396,872,l),
(1084,872,l),
(1084,1202,l)
);
},
{
closed = 1;
nodes = (
(1084,742,l),
(1396,742,l),
(1396,386,l),
(1084,386,l)
);
},
{
closed = 1;
nodes = (
(270,384,l),
(270,256,l),
(368,256,ls),
(544,256,o),
(704,260,o),
(906,302,c),
(890,428,l),
(698,388,o),
(534,384,o),
(368,384,cs)
);
}
);
width = 1770;
}
);
unicode = (12604,65452);
}
{
glyphname = "rieulSiosCompa-ko";
layers = (
{
layerId = "B1F27B51-9973-4381-9301-4FE46FE1CA59";
shapes = (
{
closed = 1;
nodes = (
(336,1156,l),
(336,1108,l),
(822,1108,l),
(822,742,l),
(344,742,l),
(344,284,l),
(388,284,l),
(388,698,l),
(868,698,l),
(868,1156,l)
);
},
{
closed = 1;
nodes = (
(344,316,l),
(344,268,l),
(420,268,ls),
(550,268,o),
(716,276,o),
(916,330,c),
(906,376,l),
(720,322,o),
(544,316,o),
(420,316,cs)
);
},
{
closed = 1;
nodes = (
(1238,1162,l),
(1238,816,ls),
(1238,628,o),
(1118,398,o),
(914,302,c),
(948,264,l),
(1162,368,o),
(1284,608,o),
(1284,816,cs),
(1284,1162,l)
);
},
{
closed = 1;
nodes = (
(1246,1162,l),
(1246,816,ls),
(1244,608,o),
(1364,368,o),
(1582,264,c),
(1618,302,l),
(1408,398,o),
(1288,628,o),
(1288,816,cs),
(1288,1162,l)
);
}
);
width = 1770;
},
{
layerId = "5C20EF92-B63D-42A8-8878-93C2863E0093";
shapes = (
{
closed = 1;
nodes = (
(152,1268,l),
(152,1008,l),
(486,1008,l),
(486,888,l),
(152,888,l),
(152,274,l),
(480,274,l),
(480,624,l),
(816,624,l),
(816,1268,l)
);
},
{
closed = 1;
nodes = (
(152,496,l),
(152,240,l),
(278,240,ls),
(538,240,o),
(694,244,o),
(872,278,c),
(842,534,l),
(672,502,o),
(526,496,o),
(278,496,cs)
);
},
{
closed = 1;
nodes = (
(1074,1274,l),
(1074,956,ls),
(1074,740,o),
(1004,552,o),
(770,466,c),
(936,234,l),
(1230,346,o),
(1314,620,o),
(1314,956,cs),
(1314,1274,l)
);
},
{
closed = 1;
nodes = (
(1144,1274,l),
(1144,956,ls),
(1144,620,o),
(1228,346,o),
(1520,234,c),
(1690,466,l),
(1448,552,o),
(1384,740,o),
(1384,956,cs),
(1384,1274,l)
);
}
);
width = 1770;
},
{
layerId = "CD0E3B44-F66A-4791-B84C-A1128DC61275";
shapes = (
{
closed = 1;
nodes = (
(264,1200,l),
(264,1070,l),
(692,1070,l),
(692,800,l),
(268,800,l),
(268,282,l),
(424,282,l),
(424,668,l),
(846,668,l),
(846,1200,l)
);
},
{
closed = 1;
nodes = (
(268,384,l),
(268,258,l),
(364,258,ls),
(546,258,o),
(708,264,o),
(898,308,c),
(882,438,l),
(702,392,o),
(536,384,o),
(364,384,cs)
);
},
{
closed = 1;
nodes = (
(1176,1206,l),
(1176,870,ls),
(1176,672,o),
(1074,458,o),
(858,366,c),
(944,252,l),
(1190,360,o),
(1294,612,o),
(1296,870,cs),
(1296,1206,l)
);
},
{
closed = 1;
nodes = (
(1208,1206,l),
(1208,870,ls),
(1206,612,o),
(1310,360,o),
(1558,252,c),
(1644,366,l),
(1424,458,o),
(1326,672,o),
(1326,870,cs),
(1326,1206,l)
);
}
);
width = 1770;
}
);
unicode = (12605,65453);
}
{
glyphname = "rieulThieuthCompa-ko";
layers = (
{
layerId = "B1F27B51-9973-4381-9301-4FE46FE1CA59";
shapes = (
{
closed = 1;
nodes = (
(336,1156,l),
(336,1108,l),
(820,1108,l),
(820,742,l),
(342,742,l),
(342,284,l),
(388,284,l),
(388,698,l),
(866,698,l),
(866,1156,l)
);
},
{
closed = 1;
nodes = (
(978,1156,l),
(978,298,l),
(1026,298,l),
(1026,1108,l),
(1530,1108,l),
(1530,1156,l)
);
},
{
closed = 1;
nodes = (
(978,322,l),
(978,272,l),
(1538,272,l),
(1538,322,l)
);
},
{
closed = 1;
nodes = (
(998,750,l),
(998,702,l),
(1508,702,l),
(1508,750,l)
);
},
{
closed = 1;
nodes = (
(342,320,l),
(342,272,l),
(418,272,ls),
(548,272,o),
(718,280,o),
(916,334,c),
(906,380,l),
(720,328,o),
(544,320,o),
(418,320,cs)
);
}
);
width = 1770;
},
{
layerId = "5C20EF92-B63D-42A8-8878-93C2863E0093";
shapes = (
{
closed = 1;
nodes = (
(162,1268,l),
(162,1008,l),
(498,1008,l),
(498,888,l),
(162,888,l),
(162,274,l),
(490,274,l),
(490,624,l),
(822,624,l),
(822,1268,l)
);
},
{
closed = 1;
nodes = (
(918,1268,l),
(918,362,l),
(1242,362,l),
(1242,1008,l),
(1574,1008,l),
(1574,1268,l)
);
},
{
closed = 1;
nodes = (
(918,496,l),
(918,234,l),
(1596,234,l),
(1596,496,l)
);
},
{
closed = 1;
nodes = (
(998,880,l),
(998,622,l),
(1554,622,l),
(1554,880,l)
);
},
{
closed = 1;
nodes = (
(162,500,l),
(162,240,l),
(288,240,ls),
(548,240,o),
(706,240,o),
(882,276,c),
(854,538,l),
(678,500,o),
(536,500,o),
(288,500,cs)
);
}
);
width = 1770;
},
{
layerId = "CD0E3B44-F66A-4791-B84C-A1128DC61275";
shapes = (
{
closed = 1;
nodes = (
(268,1200,l),
(268,1070,l),
(696,1070,l),
(696,800,l),
(272,800,l),
(272,282,l),
(428,282,l),
(428,668,l),
(848,668,l),
(848,1200,l)
);
},
{
closed = 1;
nodes = (
(954,1200,l),
(954,322,l),
(1112,322,l),
(1112,1070,l),
(1548,1070,l),
(1548,1200,l)
);
},
{
closed = 1;
nodes = (
(954,386,l),
(954,258,l),
(1560,258,l),
(1560,386,l)
);
},
{
closed = 1;
nodes = (
(998,800,l),
(998,670,l),
(1526,670,l),
(1526,800,l)
);
},
{
closed = 1;
nodes = (
(272,388,l),
(272,260,l),
(368,260,ls),
(550,260,o),
(712,266,o),
(902,312,c),
(884,442,l),
(702,396,o),
(542,390,o),
(368,388,cs)
);
}
);
width = 1770;
}
);
unicode = (12606,65454);
}
{
glyphname = "rieulPhieuphCompa-ko";
layers = (
{
layerId = "B1F27B51-9973-4381-9301-4FE46FE1CA59";
shapes = (
{
closed = 1;
nodes = (
(336,1156,l),
(336,1108,l),
(794,1108,l),
(794,742,l),
(340,742,l),
(340,284,l),
(386,284,l),
(386,698,l),
(842,698,l),
(842,1156,l)
);
},
{
closed = 1;
nodes = (
(940,1156,l),
(940,1108,l),
(1504,1108,l),
(1504,1156,l)
);
},
{
closed = 1;
nodes = (
(930,316,l),
(930,268,l),
(1524,268,l),
(1524,316,l)
);
},
{
closed = 1;
nodes = (
(1060,1126,l),
(1060,304,l),
(1114,304,l),
(1114,1126,l)
);
},
{
closed = 1;
nodes = (
(1336,1126,l),
(1336,304,l),
(1384,304,l),
(1384,1126,l)
);
},
{
closed = 1;
nodes = (
(340,316,l),
(340,268,l),
(414,268,ls),
(546,268,o),
(710,276,o),
(908,328,c),
(896,376,l),
(714,322,o),
(538,316,o),
(414,316,cs)
);
}
);
width = 1770;
},
{
layerId = "5C20EF92-B63D-42A8-8878-93C2863E0093";
shapes = (
{
closed = 1;
nodes = (
(164,1268,l),
(164,1008,l),
(482,1008,l),
(482,888,l),
(166,888,l),
(166,274,l),
(488,274,l),
(488,624,l),
(808,624,l),
(808,1268,l)
);
},
{
closed = 1;
nodes = (
(874,1264,l),
(874,1002,l),
(1656,1002,l),
(1656,1264,l)
);
},
{
closed = 1;
nodes = (
(874,496,l),
(874,240,l),
(1654,240,l),
(1654,496,l)
);
},
{
closed = 1;
nodes = (
(954,1056,l),
(954,376,l),
(1232,376,l),
(1232,1056,l)
);
},
{
closed = 1;
nodes = (
(1294,1056,l),
(1294,376,l),
(1582,376,l),
(1582,1056,l)
);
},
{
closed = 1;
nodes = (
(166,496,l),
(166,240,l),
(292,240,ls),
(540,240,o),
(694,242,o),
(868,276,c),
(838,534,l),
(672,502,o),
(532,496,o),
(292,496,cs)
);
}
);
width = 1770;
},
{
layerId = "CD0E3B44-F66A-4791-B84C-A1128DC61275";
shapes = (
{
closed = 1;
nodes = (
(268,1200,l),
(268,1070,l),
(674,1070,l),
(674,800,l),
(272,800,l),
(272,282,l),
(426,282,l),
(426,668,l),
(828,668,l),
(828,1200,l)
);
},
{
closed = 1;
nodes = (
(916,1198,l),
(916,1068,l),
(1562,1068,l),
(1562,1198,l)
);
},
{
closed = 1;
nodes = (
(908,384,l),
(908,258,l),
(1572,258,l),
(1572,384,l)
);
},
{
closed = 1;
nodes = (
(1020,1098,l),
(1020,330,l),
(1158,330,l),
(1158,1098,l)
);
},
{
closed = 1;
nodes = (
(1320,1098,l),
(1320,330,l),
(1462,330,l),
(1462,1098,l)
);
},
{
closed = 1;
nodes = (
(272,384,l),
(272,258,l),
(366,258,ls),
(542,258,o),
(704,264,o),
(892,306,c),
(872,438,l),
(696,392,o),
(534,384,o),
(366,384,cs)
);
}
);
width = 1770;
}
);
unicode = (12607,65455);
}
{
glyphname = "rieulHieuhCompa-ko";
layers = (
{
layerId = "B1F27B51-9973-4381-9301-4FE46FE1CA59";
shapes = (
{
closed = 1;
nodes = (
(334,1156,l),
(334,1108,l),
(764,1108,l),
(764,742,l),
(340,742,l),
(340,284,l),
(384,284,l),
(384,698,l),
(812,698,l),
(812,1156,l)
);
},
{
closed = 1;
nodes = (
(864,964,l),
(864,918,l),
(1474,918,l),
(1474,964,l)
);
},
{
closed = 1;
nodes = (
(1020,828,o),
(908,716,o),
(908,544,cs),
(908,372,o),
(1020,262,o),
(1170,262,cs),
(1320,262,o),
(1432,372,o),
(1432,544,cs),
(1432,716,o),
(1320,828,o),
(1170,828,cs)
);
},
{
closed = 1;
nodes = (
(1298,780,o),
(1388,676,o),
(1388,544,cs),
(1388,410,o),
(1298,306,o),
(1170,306,cs),
(1040,306,o),
(950,410,o),
(952,544,cs),
(950,676,o),
(1040,780,o),
(1170,782,cs)
);
},
{
closed = 1;
nodes = (
(1150,1192,l),
(1150,962,l),
(1196,962,l),
(1196,1192,l)
);
},
{
closed = 1;
nodes = (
(340,316,l),
(340,268,l),
(410,268,ls),
(530,268,o),
(688,276,o),
(882,322,c),
(868,370,l),
(688,320,o),
(524,316,o),
(410,316,cs)
);
}
);
width = 1770;
},
{
layerId = "5C20EF92-B63D-42A8-8878-93C2863E0093";
shapes = (
{
closed = 1;
nodes = (
(178,1268,l),
(178,1018,l),
(468,1018,l),
(468,894,l),
(180,894,l),
(180,280,l),
(510,280,l),
(510,646,l),
(794,646,l),
(794,1268,l)
);
},
{
closed = 1;
nodes = (
(886,1184,l),
(886,922,l),
(1694,922,l),
(1694,1184,l)
);
},
{
closed = 1;
nodes = (
(1088,894,o),
(930,748,o),
(930,554,cs),
(930,360,o),
(1088,210,o),
(1290,212,cs),
(1488,210,o),
(1642,360,o),
(1642,554,cs),
(1642,748,o),
(1488,894,o),
(1290,894,cs)
);
},
{
closed = 1;
nodes = (
(1332,640,o),
(1366,620,o),
(1366,554,cs),
(1366,488,o),
(1334,464,o),
(1290,464,cs),
(1238,464,o),
(1206,488,o),
(1206,554,cs),
(1206,620,o),
(1240,640,o),
(1290,640,cs)
);
},
{
closed = 1;
nodes = (
(1140,1322,l),
(1140,954,l),
(1458,954,l),
(1458,1322,l)
);
},
{
closed = 1;
nodes = (
(180,496,l),
(180,240,l),
(310,240,ls),
(552,240,o),
(706,240,o),
(876,272,c),
(848,532,l),
(686,502,o),
(548,496,o),
(310,496,cs)
);
}
);
width = 1770;
},
{
layerId = "CD0E3B44-F66A-4791-B84C-A1128DC61275";
shapes = (
{
closed = 1;
nodes = (
(272,1200,l),
(272,1074,l),
(650,1074,l),
(650,802,l),
(278,802,l),
(278,282,l),
(432,282,l),
(432,676,l),
(804,676,l),
(804,1200,l)
);
},
{
closed = 1;
nodes = (
(872,1050,l),
(872,920,l),
(1560,920,l),
(1560,1050,l)
);
},
{
closed = 1;
nodes = (
(1046,852,o),
(914,728,o),
(916,548,cs),
(914,366,o),
(1046,242,o),
(1216,244,cs),
(1384,242,o),
(1512,366,o),
(1514,548,cs),
(1512,728,o),
(1384,852,o),
(1216,852,cs)
);
},
{
closed = 1;
nodes = (
(1310,726,o),
(1380,654,o),
(1380,548,cs),
(1380,440,o),
(1310,366,o),
(1216,366,cs),
(1116,366,o),
(1050,440,o),
(1050,548,cs),
(1050,654,o),
(1116,726,o),
(1216,726,cs)
);
},
{
closed = 1;
nodes = (
(1146,1242,l),
(1146,958,l),
(1296,958,l),
(1296,1242,l)
);
},
{
closed = 1;
nodes = (
(278,384,l),
(278,258,l),
(372,258,ls),
(538,258,o),
(696,260,o),
(880,302,c),
(862,432,l),
(688,390,o),
(532,384,o),
(372,384,cs)
);
}
);
width = 1770;
}
);
unicode = (12608,65456);
}
{
glyphname = "mieumCompa-ko";
layers = (
{
anchors = (
{
name = _symbol;
pos = (886,714);
}
);
layerId = "B1F27B51-9973-4381-9301-4FE46FE1CA59";
shapes = (
{
closed = 1;
nodes = (
(366,1160,l),
(366,268,l),
(1434,268,l),
(1434,1160,l)
);
},
{
closed = 1;
nodes = (
(1388,1114,l),
(1388,314,l),
(412,314,l),
(412,1114,l)
);
}
);
width = 1770;
},
{
anchors = (
{
name = _symbol;
pos = (886,750);
}
);
layerId = "5C20EF92-B63D-42A8-8878-93C2863E0093";
shapes = (
{
closed = 1;
nodes = (
(286,1244,l),
(286,256,l),
(1486,256,l),
(1486,1244,l)
);
},
{
closed = 1;
nodes = (
(1154,982,l),
(1154,516,l),
(616,516,l),
(616,982,l)
);
}
);
width = 1770;
},
{
anchors = (
{
name = _symbol;
pos = (886,728);
}
);
layerId = "CD0E3B44-F66A-4791-B84C-A1128DC61275";
shapes = (
{
closed = 1;
nodes = (
(336,1192,l),
(336,264,l),
(1456,264,l),
(1456,1192,l)
);
},
{
closed = 1;
nodes = (
(1296,1062,l),
(1296,392,l),
(494,392,l),
(494,1062,l)
);
}
);
width = 1770;
}
);
unicode = (12609,65457);
}
{
glyphname = "pieupCompa-ko";
layers = (
{
anchors = (
{
name = _symbol;
pos = (886,720);
}
);
layerId = "B1F27B51-9973-4381-9301-4FE46FE1CA59";
shapes = (
{
closed = 1;
nodes = (
(370,1172,l),
(370,268,l),
(1424,268,l),
(1424,1172,l),
(1376,1172,l),
(1376,800,l),
(416,800,l),
(416,1172,l)
);
},
{
closed = 1;
nodes = (
(416,756,l),
(1376,756,l),
(1376,314,l),
(416,314,l)
);
}
);
width = 1770;
},
{
anchors = (
{
name = _symbol;
pos = (886,756);
}
);
layerId = "5C20EF92-B63D-42A8-8878-93C2863E0093";
shapes = (
{
closed = 1;
nodes = (
(292,1278,l),
(292,234,l),
(1486,234,l),
(1486,1278,l),
(1156,1278,l),
(1156,1016,l),
(614,1016,l),
(614,1278,l)
);
},
{
closed = 1;
nodes = (
(614,730,l),
(1156,730,l),
(1156,522,l),
(614,522,l)
);
}
);
width = 1770;
},
{
anchors = (
{
name = _symbol;
pos = (886,734);
}
);
layerId = "CD0E3B44-F66A-4791-B84C-A1128DC61275";
shapes = (
{
closed = 1;
nodes = (
(338,1214,l),
(338,256,l),
(1448,256,l),
(1448,1214,l),
(1290,1214,l),
(1290,882,l),
(494,882,l),
(494,1214,l)
);
},
{
closed = 1;
nodes = (
(494,746,l),
(1290,746,l),
(1290,394,l),
(494,394,l)
);
}
);
width = 1770;
}
);
unicode = (12610,65458);
}
{
glyphname = "ssangpieupCompa-ko";
layers = (
{
layerId = "B1F27B51-9973-4381-9301-4FE46FE1CA59";
shapes = (
{
closed = 1;
nodes = (
(350,1160,l),
(350,268,l),
(862,268,l),
(862,1160,l),
(816,1160,l),
(816,788,l),
(400,788,l),
(400,1160,l)
);
},
{
closed = 1;
nodes = (
(400,742,l),
(816,742,l),
(816,316,l),
(400,316,l)
);
},
{
closed = 1;
nodes = (
(954,1160,l),
(954,268,l),
(1466,268,l),
(1466,1160,l),
(1418,1160,l),
(1418,788,l),
(1002,788,l),
(1002,1160,l)
);
},
{
closed = 1;
nodes = (
(1002,742,l),
(1418,742,l),
(1418,316,l),
(1002,316,l)
);
}
);
width = 1770;
},
{
layerId = "5C20EF92-B63D-42A8-8878-93C2863E0093";
shapes = (
{
closed = 1;
nodes = (
(202,1258,l),
(202,240,l),
(872,240,l),
(872,1258,l),
(572,1258,l),
(572,1008,l),
(502,1008,l),
(502,1258,l)
);
},
{
closed = 1;
nodes = (
(502,742,l),
(572,742,l),
(572,508,l),
(502,508,l)
);
},
{
closed = 1;
nodes = (
(920,1258,l),
(920,240,l),
(1596,240,l),
(1596,1258,l),
(1292,1258,l),
(1292,1008,l),
(1224,1008,l),
(1224,1258,l)
);
},
{
closed = 1;
nodes = (
(1224,742,l),
(1292,742,l),
(1292,508,l),
(1224,508,l)
);
}
);
width = 1770;
},
{
layerId = "CD0E3B44-F66A-4791-B84C-A1128DC61275";
shapes = (
{
closed = 1;
nodes = (
(292,1198,l),
(292,258,l),
(866,258,l),
(866,1198,l),
(722,1198,l),
(722,872,l),
(438,872,l),
(438,1198,l)
);
},
{
closed = 1;
nodes = (
(438,742,l),
(722,742,l),
(722,388,l),
(438,388,l)
);
},
{
closed = 1;
nodes = (
(942,1198,l),
(942,258,l),
(1516,258,l),
(1516,1198,l),
(1370,1198,l),
(1370,872,l),
(1090,872,l),
(1090,1198,l)
);
},
{
closed = 1;
nodes = (
(1090,742,l),
(1370,742,l),
(1370,388,l),
(1090,388,l)
);
}
);
width = 1770;
}
);
unicode = (12611,65459);
}
{
glyphname = "pieupSiosCompa-ko";
layers = (
{
layerId = "B1F27B51-9973-4381-9301-4FE46FE1CA59";
shapes = (
{
closed = 1;
nodes = (
(1238,1164,l),
(1238,818,ls),
(1238,630,o),
(1116,400,o),
(914,302,c),
(948,264,l),
(1162,368,o),
(1282,610,o),
(1282,818,cs),
(1282,1164,l)
);
},
{
closed = 1;
nodes = (
(1244,1164,l),
(1244,818,ls),
(1242,610,o),
(1362,368,o),
(1580,264,c),
(1616,302,l),
(1408,400,o),
(1288,630,o),
(1288,818,cs),
(1288,1164,l)
);
},
{
closed = 1;
nodes = (
(350,1160,l),
(350,268,l),
(862,268,l),
(862,1160,l),
(816,1160,l),
(816,788,l),
(400,788,l),
(400,1160,l)
);
},
{
closed = 1;
nodes = (
(400,742,l),
(816,742,l),
(816,316,l),
(400,316,l)
);
}
);
width = 1770;
},
{
layerId = "5C20EF92-B63D-42A8-8878-93C2863E0093";
shapes = (
{
closed = 1;
nodes = (
(1102,1264,l),
(1102,946,ls),
(1102,724,o),
(1026,530,o),
(770,450,c),
(936,214,l),
(1246,330,o),
(1346,598,o),
(1346,946,cs),
(1346,1264,l)
);
},
{
closed = 1;
nodes = (
(1170,1264,l),
(1170,946,ls),
(1170,598,o),
(1258,330,o),
(1572,214,c),
(1736,450,l),
(1484,530,o),
(1410,724,o),
(1410,946,cs),
(1410,1264,l)
);
},
{
closed = 1;
nodes = (
(202,1258,l),
(202,240,l),
(872,240,l),
(872,1258,l),
(572,1258,l),
(572,1008,l),
(502,1008,l),
(502,1258,l)
);
},
{
closed = 1;
nodes = (
(502,742,l),
(572,742,l),
(572,508,l),
(502,508,l)
);
}
);
width = 1770;
},
{
layerId = "CD0E3B44-F66A-4791-B84C-A1128DC61275";
shapes = (
{
closed = 1;
nodes = (
(1186,1202,l),
(1186,868,ls),
(1184,668,o),
(1082,450,o),
(858,360,c),
(944,244,l),
(1194,352,o),
(1306,606,o),
(1306,868,cs),
(1306,1202,l)
);
},
{
closed = 1;
nodes = (
(1214,1202,l),
(1214,868,ls),
(1214,606,o),
(1324,352,o),
(1578,244,c),
(1662,360,l),
(1438,450,o),
(1334,668,o),
(1336,868,cs),
(1336,1202,l)
);
},
{
closed = 1;
nodes = (
(292,1198,l),
(292,258,l),
(866,258,l),
(866,1198,l),
(722,1198,l),
(722,872,l),
(438,872,l),
(438,1198,l)
);
},
{
closed = 1;
nodes = (
(438,742,l),
(722,742,l),
(722,388,l),
(438,388,l)
);
}
);
width = 1770;
}
);
unicode = (12612,65460);
}
{
glyphname = "siosCompa-ko";
layers = (
{
anchors = (
{
name = _symbol;
pos = (886,730);
}
);
layerId = "B1F27B51-9973-4381-9301-4FE46FE1CA59";
shapes = (
{
closed = 1;
nodes = (
(880,1198,l),
(880,888,ls),
(880,554,o),
(556,370,o),
(310,306,c),
(336,264,l),
(598,342,o),
(922,526,o),
(924,888,cs),
(924,1198,l)
);
},
{
closed = 1;
nodes = (
(882,1198,l),
(882,888,ls),
(882,526,o),
(1212,342,o),
(1474,264,c),
(1500,306,l),
(1248,370,o),
(928,554,o),
(928,888,cs),
(928,1198,l)
);
}
);
width = 1770;
},
{
anchors = (
{
name = _symbol;
pos = (886,736);
}
);
layerId = "5C20EF92-B63D-42A8-8878-93C2863E0093";
shapes = (
{
closed = 1;
nodes = (
(722,1276,l),
(722,1018,ls),
(720,778,o),
(606,538,o),
(188,456,c),
(346,196,l),
(820,300,o),
(998,622,o),
(1000,1018,cs),
(1000,1276,l)
);
},
{
closed = 1;
nodes = (
(770,1276,l),
(770,1018,ls),
(770,622,o),
(946,300,o),
(1422,196,c),
(1578,456,l),
(1160,538,o),
(1044,778,o),
(1046,1018,cs),
(1046,1276,l)
);
}
);
width = 1770;
},
{
anchors = (
{
name = _symbol;
pos = (886,732);
}
);
layerId = "CD0E3B44-F66A-4791-B84C-A1128DC61275";
shapes = (
{
closed = 1;
nodes = (
(818,1226,l),
(818,940,ls),
(816,642,o),
(576,434,o),
(262,364,c),
(340,238,l),
(686,328,o),
(952,564,o),
(954,940,cs),
(954,1226,l)
);
},
{
closed = 1;
nodes = (
(840,1226,l),
(840,940,ls),
(838,564,o),
(1108,328,o),
(1452,238,c),
(1528,364,l),
(1214,434,o),
(974,642,o),
(974,940,cs),
(974,1226,l)
);
}
);
width = 1770;
}
);
unicode = (12613,65461);
}
{
glyphname = "ssangSiosCompa-ko";
layers = (
{
layerId = "B1F27B51-9973-4381-9301-4FE46FE1CA59";
shapes = (
{
closed = 1;
nodes = (
(550,1156,l),
(550,806,ls),
(550,678,o),
(440,434,o),
(246,326,c),
(282,288,l),
(484,406,o),
(596,662,o),
(596,806,cs),
(596,1156,l)
);
},
{
closed = 1;
nodes = (
(554,1156,l),
(554,794,ls),
(554,646,o),
(670,372,o),
(892,258,c),
(920,302,l),
(716,406,o),
(598,658,o),
(598,794,cs),
(598,1156,l)
);
},
{
closed = 1;
nodes = (
(1186,1156,l),
(1186,794,ls),
(1186,642,o),
(1064,400,o),
(866,302,c),
(892,258,l),
(1108,366,o),
(1230,630,o),
(1230,794,cs),
(1230,1156,l)
);
},
{
closed = 1;
nodes = (
(1188,1156,l),
(1188,806,ls),
(1188,630,o),
(1294,398,o),
(1504,292,c),
(1540,330,l),
(1340,424,o),
(1232,644,o),
(1232,806,cs),
(1232,1156,l)
);
}
);
width = 1770;
},
{
layerId = "5C20EF92-B63D-42A8-8878-93C2863E0093";
shapes = (
{
closed = 1;
nodes = (
(408,1224,l),
(408,1158,ls),
(408,890,o),
(338,642,o),
(58,528,c),
(238,288,l),
(560,428,o),
(658,768,o),
(658,1158,cs),
(658,1224,l)
);
},
{
closed = 1;
nodes = (
(508,1224,l),
(508,1162,ls),
(508,794,o),
(592,422,o),
(914,270,c),
(1056,514,l),
(802,654,o),
(740,910,o),
(740,1162,cs),
(740,1224,l)
);
},
{
closed = 1;
nodes = (
(1090,1224,l),
(1090,1162,ls),
(1088,910,o),
(1024,658,o),
(768,514,c),
(914,270,l),
(1240,422,o),
(1326,796,o),
(1326,1162,cs),
(1326,1224,l)
);
},
{
closed = 1;
nodes = (
(1178,1224,l),
(1178,1158,ls),
(1178,770,o),
(1272,432,o),
(1596,288,c),
(1772,530,l),
(1492,644,o),
(1426,890,o),
(1426,1158,cs),
(1426,1224,l)
);
}
);
width = 1770;
},
{
layerId = "CD0E3B44-F66A-4791-B84C-A1128DC61275";
shapes = (
{
closed = 1;
nodes = (
(496,1180,l),
(496,944,ls),
(494,762,o),
(402,514,o),
(174,404,c),
(264,288,l),
(512,414,o),
(620,702,o),
(620,944,cs),
(620,1180,l)
);
},
{
closed = 1;
nodes = (
(534,1180,l),
(534,936,ls),
(534,702,o),
(640,394,o),
(900,262,c),
(974,384,l),
(750,502,o),
(652,756,o),
(654,936,cs),
(654,1180,l)
);
},
{
closed = 1;
nodes = (
(1148,1180,l),
(1148,936,ls),
(1148,746,o),
(1050,500,o),
(828,384,c),
(900,262,l),
(1158,390,o),
(1266,694,o),
(1268,936,cs),
(1268,1180,l)
);
},
{
closed = 1;
nodes = (
(1184,1180,l),
(1184,944,ls),
(1184,686,o),
(1286,412,o),
(1540,290,c),
(1630,408,l),
(1400,510,o),
(1306,742,o),
(1308,944,cs),
(1308,1180,l)
);
}
);
width = 1770;
}
);
unicode = (12614,65462);
}
{
glyphname = "ieungCompa-ko";
layers = (
{
anchors = (
{
name = _symbol;
pos = (886,724);
}
);
layerId = "B1F27B51-9973-4381-9301-4FE46FE1CA59";
shapes = (
{
closed = 1;
nodes = (
(580,1182,o),
(352,994,o),
(354,724,cs),
(352,452,o),
(580,264,o),
(886,264,cs),
(1190,264,o),
(1418,452,o),
(1418,724,cs),
(1418,994,o),
(1190,1182,o),
(886,1184,cs)
);
},
{
closed = 1;
nodes = (
(1156,1138,o),
(1366,952,o),
(1366,724,cs),
(1366,494,o),
(1156,308,o),
(886,308,cs),
(614,308,o),
(404,494,o),
(404,724,cs),
(404,952,o),
(614,1138,o),
(886,1138,cs)
);
}
);
width = 1770;
},
{
anchors = (
{
name = _symbol;
pos = (886,748);
}
);
layerId = "5C20EF92-B63D-42A8-8878-93C2863E0093";
shapes = (
{
closed = 1;
nodes = (
(560,1282,o),
(284,1056,o),
(286,746,cs),
(284,440,o),
(560,214,o),
(886,214,cs),
(1218,214,o),
(1492,440,o),
(1492,746,cs),
(1492,1056,o),
(1218,1282,o),
(886,1282,cs)
);
},
{
closed = 1;
nodes = (
(1050,1000,o),
(1172,910,o),
(1174,746,cs),
(1172,584,o),
(1050,488,o),
(886,488,cs),
(726,488,o),
(596,584,o),
(596,746,cs),
(596,910,o),
(726,1000,o),
(886,1000,cs)
);
}
);
width = 1770;
},
{
anchors = (
{
name = _symbol;
pos = (886,734);
}
);
layerId = "CD0E3B44-F66A-4791-B84C-A1128DC61275";
shapes = (
{
closed = 1;
nodes = (
(574,1220,o),
(324,1018,o),
(326,732,cs),
(324,448,o),
(574,244,o),
(886,244,cs),
(1200,244,o),
(1444,448,o),
(1446,732,cs),
(1444,1018,o),
(1200,1220,o),
(886,1222,cs)
);
},
{
closed = 1;
nodes = (
(1116,1084,o),
(1292,936,o),
(1292,732,cs),
(1292,528,o),
(1116,376,o),
(886,376,cs),
(658,376,o),
(478,528,o),
(480,732,cs),
(478,936,o),
(658,1084,o),
(886,1084,cs)
);
}
);
width = 1770;
}
);
unicode = (12615,65463);
}
{
glyphname = "cieucCompa-ko";
layers = (
{
anchors = (
{
name = _symbol;
pos = (886,722);
}
);
layerId = "B1F27B51-9973-4381-9301-4FE46FE1CA59";
shapes = (
{
closed = 1;
nodes = (
(888,1134,l),
(888,922,ls),
(888,594,o),
(598,396,o),
(354,316,c),
(384,272,l),
(640,362,o),
(934,564,o),
(934,922,cs),
(934,1134,l)
);
},
{
closed = 1;
nodes = (
(890,1134,l),
(890,922,ls),
(890,564,o),
(1184,362,o),
(1440,272,c),
(1470,316,l),
(1224,396,o),
(936,594,o),
(936,922,cs),
(936,1134,l)
);
},
{
closed = 1;
nodes = (
(388,1170,l),
(388,1124,l),
(1428,1124,l),
(1428,1170,l)
);
}
);
width = 1770;
},
{
anchors = (
{
name = _symbol;
pos = (886,742);
}
);
layerId = "5C20EF92-B63D-42A8-8878-93C2863E0093";
shapes = (
{
closed = 1;
nodes = (
(718,1240,l),
(718,1018,ls),
(718,774,o),
(604,536,o),
(210,458,c),
(362,206,l),
(808,312,o),
(980,626,o),
(980,1018,cs),
(980,1240,l)
);
},
{
closed = 1;
nodes = (
(788,1240,l),
(788,1018,ls),
(788,626,o),
(956,312,o),
(1406,206,c),
(1558,458,l),
(1164,536,o),
(1050,774,o),
(1050,1018,cs),
(1050,1240,l)
);
},
{
closed = 1;
nodes = (
(288,1278,l),
(288,1012,l),
(1500,1012,l),
(1500,1278,l)
);
}
);
width = 1770;
},
{
anchors = (
{
name = _symbol;
pos = (886,730);
}
);
layerId = "CD0E3B44-F66A-4791-B84C-A1128DC61275";
shapes = (
{
closed = 1;
nodes = (
(822,1176,l),
(822,958,ls),
(822,662,o),
(600,452,o),
(298,372,c),
(376,246,l),
(706,344,o),
(952,588,o),
(954,958,cs),
(954,1176,l)
);
},
{
closed = 1;
nodes = (
(852,1176,l),
(852,958,ls),
(850,588,o),
(1096,344,o),
(1428,246,c),
(1504,372,l),
(1202,452,o),
(978,662,o),
(978,958,cs),
(978,1176,l)
);
},
{
closed = 1;
nodes = (
(350,1212,l),
(350,1082,l),
(1456,1082,l),
(1456,1212,l)
);
}
);
width = 1770;
}
);
unicode = (12616,65464);
}
{
glyphname = "ssangcieucCompa-ko";
layers = (
{
layerId = "B1F27B51-9973-4381-9301-4FE46FE1CA59";
shapes = (
{
closed = 1;
nodes = (
(554,1156,l),
(554,868,ls),
(554,680,o),
(444,444,o),
(244,344,c),
(280,306,l),
(486,418,o),
(598,662,o),
(598,868,cs),
(598,1156,l)
);
},
{
closed = 1;
nodes = (
(560,1156,l),
(560,868,ls),
(560,590,o),
(670,382,o),
(892,282,c),
(920,326,l),
(712,408,o),
(602,610,o),
(604,868,cs),
(604,1156,l)
);
},
{
closed = 1;
nodes = (
(1180,1156,l),
(1180,868,ls),
(1180,610,o),
(1070,408,o),
(866,326,c),
(892,282,l),
(1112,382,o),
(1222,590,o),
(1224,868,cs),
(1224,1156,l)
);
},
{
closed = 1;
nodes = (
(1186,1156,l),
(1186,868,ls),
(1186,670,o),
(1282,418,o),
(1486,306,c),
(1524,344,l),
(1324,446,o),
(1230,684,o),
(1230,868,cs),
(1230,1156,l)
);
},
{
closed = 1;
nodes = (
(300,1190,l),
(300,1144,l),
(858,1144,l),
(858,1190,l)
);
},
{
closed = 1;
nodes = (
(924,1190,l),
(924,1144,l),
(1480,1144,l),
(1480,1190,l)
);
}
);
width = 1770;
},
{
layerId = "5C20EF92-B63D-42A8-8878-93C2863E0093";
shapes = (
{
closed = 1;
nodes = (
(380,1218,l),
(380,1154,ls),
(378,864,o),
(312,594,o),
(22,472,c),
(218,210,l),
(554,364,o),
(644,728,o),
(644,1154,cs),
(644,1218,l)
);
},
{
closed = 1;
nodes = (
(428,1218,l),
(428,1154,ls),
(428,658,o),
(512,320,o),
(914,182,c),
(1090,466,l),
(774,544,o),
(704,798,o),
(704,1154,cs),
(704,1218,l)
);
},
{
closed = 1;
nodes = (
(1124,1218,l),
(1124,1154,ls),
(1124,798,o),
(1054,544,o),
(740,466,c),
(914,182,l),
(1316,320,o),
(1400,658,o),
(1400,1154,cs),
(1400,1218,l)
);
},
{
closed = 1;
nodes = (
(1186,1218,l),
(1186,1154,ls),
(1186,732,o),
(1276,366,o),
(1618,210,c),
(1808,472,l),
(1518,600,o),
(1450,862,o),
(1450,1154,cs),
(1450,1218,l)
);
},
{
closed = 1;
nodes = (
(140,1276,l),
(140,1016,l),
(872,1016,l),
(872,1276,l)
);
},
{
closed = 1;
nodes = (
(954,1276,l),
(954,1016,l),
(1686,1016,l),
(1686,1276,l)
);
}
);
width = 1770;
},
{
layerId = "CD0E3B44-F66A-4791-B84C-A1128DC61275";
shapes = (
{
closed = 1;
nodes = (
(486,1178,l),
(486,978,ls),
(486,750,o),
(392,500,o),
(158,394,c),
(254,268,l),
(512,396,o),
(614,688,o),
(616,978,cs),
(616,1178,l)
);
},
{
closed = 1;
nodes = (
(510,1178,l),
(510,978,ls),
(510,618,o),
(608,358,o),
(900,244,c),
(984,380,l),
(736,462,o),
(642,682,o),
(642,978,cs),
(642,1178,l)
);
},
{
closed = 1;
nodes = (
(1158,1178,l),
(1158,978,ls),
(1158,682,o),
(1064,462,o),
(816,380,c),
(900,244,l),
(1192,358,o),
(1290,618,o),
(1292,978,cs),
(1292,1178,l)
);
},
{
closed = 1;
nodes = (
(1186,1178,l),
(1186,978,ls),
(1186,694,o),
(1280,398,o),
(1538,268,c),
(1636,394,l),
(1402,506,o),
(1314,754,o),
(1316,978,cs),
(1316,1178,l)
);
},
{
closed = 1;
nodes = (
(238,1224,l),
(238,1094,l),
(864,1094,l),
(864,1224,l)
);
},
{
closed = 1;
nodes = (
(936,1224,l),
(936,1094,l),
(1560,1094,l),
(1560,1224,l)
);
}
);
width = 1770;
}
);
unicode = (12617,65465);
}
{
glyphname = "chieuchCompa-ko";
layers = (
{
anchors = (
{
name = _symbol;
pos = (886,730);
}
);
layerId = "B1F27B51-9973-4381-9301-4FE46FE1CA59";
shapes = (
{
closed = 1;
nodes = (
(872,974,l),
(872,862,ls),
(872,540,o),
(588,336,o),
(348,256,c),
(380,216,l),
(628,306,o),
(916,512,o),
(916,862,cs),
(916,974,l)
);
},
{
closed = 1;
nodes = (
(872,974,l),
(872,862,ls),
(872,512,o),
(1160,306,o),
(1412,216,c),
(1442,256,l),
(1200,336,o),
(916,540,o),
(916,862,cs),
(916,974,l)
);
},
{
closed = 1;
nodes = (
(376,1000,l),
(376,954,l),
(1410,954,l),
(1410,1000,l)
);
},
{
closed = 1;
nodes = (
(872,1244,l),
(872,978,l),
(920,978,l),
(920,1244,l)
);
}
);
width = 1770;
},
{
anchors = (
{
name = _symbol;
pos = (886,794);
}
);
layerId = "5C20EF92-B63D-42A8-8878-93C2863E0093";
shapes = (
{
closed = 1;
nodes = (
(678,880,l),
(678,862,ls),
(678,678,o),
(586,494,o),
(186,442,c),
(336,190,l),
(788,268,o),
(958,524,o),
(958,862,cs),
(958,880,l)
);
},
{
closed = 1;
nodes = (
(804,880,l),
(804,862,ls),
(804,524,o),
(976,268,o),
(1428,190,c),
(1572,442,l),
(1176,494,o),
(1080,678,o),
(1080,862,cs),
(1080,880,l)
);
},
{
closed = 1;
nodes = (
(268,1124,l),
(268,858,l),
(1502,858,l),
(1502,1124,l)
);
},
{
closed = 1;
nodes = (
(718,1400,l),
(718,986,l),
(1050,986,l),
(1050,1400,l)
);
}
);
width = 1770;
},
{
anchors = (
{
name = _symbol;
pos = (886,754);
}
);
layerId = "CD0E3B44-F66A-4791-B84C-A1128DC61275";
shapes = (
{
closed = 1;
nodes = (
(796,938,l),
(796,862,ls),
(796,594,o),
(588,396,o),
(286,326,c),
(362,206,l),
(690,292,o),
(932,516,o),
(932,862,cs),
(932,938,l)
);
},
{
closed = 1;
nodes = (
(844,938,l),
(844,862,ls),
(844,516,o),
(1090,292,o),
(1418,206,c),
(1494,326,l),
(1192,396,o),
(980,594,o),
(980,862,cs),
(980,938,l)
);
},
{
closed = 1;
nodes = (
(336,1048,l),
(336,916,l),
(1446,916,l),
(1446,1048,l)
);
},
{
closed = 1;
nodes = (
(812,1304,l),
(812,982,l),
(970,982,l),
(970,1304,l)
);
}
);
width = 1770;
}
);
unicode = (12618,65466);
}
{
glyphname = "khieukhCompa-ko";
layers = (
{
anchors = (
{
name = _symbol;
pos = (886,718);
}
);
layerId = "B1F27B51-9973-4381-9301-4FE46FE1CA59";
shapes = (
{
closed = 1;
nodes = (
(366,1180,l),
(366,1132,l),
(1370,1132,l),
(1370,258,l),
(1418,258,l),
(1418,1180,l)
);
},
{
closed = 1;
nodes = (
(1408,766,l),
(338,718,l),
(350,660,l),
(1408,720,l)
);
}
);
width = 1770;
},
{
anchors = (
{
name = _symbol;
pos = (886,746);
}
);
layerId = "5C20EF92-B63D-42A8-8878-93C2863E0093";
shapes = (
{
closed = 1;
nodes = (
(326,1274,l),
(326,1012,l),
(1172,1012,l),
(1172,218,l),
(1508,218,l),
(1508,1274,l)
);
},
{
closed = 1;
nodes = (
(1254,828,l),
(268,786,l),
(306,508,l),
(1254,578,l)
);
}
);
width = 1770;
},
{
anchors = (
{
name = _symbol;
pos = (886,730);
}
);
layerId = "CD0E3B44-F66A-4791-B84C-A1128DC61275";
shapes = (
{
closed = 1;
nodes = (
(350,1216,l),
(350,1086,l),
(1294,1086,l),
(1294,244,l),
(1452,244,l),
(1452,1216,l)
);
},
{
closed = 1;
nodes = (
(1348,792,l),
(312,744,l),
(332,600,l),
(1348,668,l)
);
}
);
width = 1770;
}
);
unicode = (12619,65467);
}
{
glyphname = "thieuthCompa-ko";
layers = (
{
anchors = (
{
name = _symbol;
pos = (886,714);
}
);
layerId = "B1F27B51-9973-4381-9301-4FE46FE1CA59";
shapes = (
{
closed = 1;
nodes = (
(382,1156,l),
(382,298,l),
(428,298,l),
(428,1108,l),
(1440,1108,l),
(1440,1156,l)
);
},
{
closed = 1;
nodes = (
(382,322,l),
(382,272,l),
(1456,272,l),
(1456,322,l)
);
},
{
closed = 1;
nodes = (
(404,750,l),
(404,702,l),
(1426,702,l),
(1426,750,l)
);
}
);
width = 1770;
},
{
anchors = (
{
name = _symbol;
pos = (886,748);
}
);
layerId = "5C20EF92-B63D-42A8-8878-93C2863E0093";
shapes = (
{
closed = 1;
nodes = (
(280,1264,l),
(280,356,l),
(608,356,l),
(608,1002,l),
(1474,1002,l),
(1474,1264,l)
);
},
{
closed = 1;
nodes = (
(280,496,l),
(280,234,l),
(1490,234,l),
(1490,496,l)
);
},
{
closed = 1;
nodes = (
(340,886,l),
(340,622,l),
(1460,622,l),
(1460,886,l)
);
}
);
width = 1770;
},
{
anchors = (
{
name = _symbol;
pos = (886,728);
}
);
layerId = "CD0E3B44-F66A-4791-B84C-A1128DC61275";
shapes = (
{
closed = 1;
nodes = (
(342,1198,l),
(342,320,l),
(496,320,l),
(496,1068,l),
(1452,1068,l),
(1452,1198,l)
);
},
{
closed = 1;
nodes = (
(342,386,l),
(342,258,l),
(1470,258,l),
(1470,386,l)
);
},
{
closed = 1;
nodes = (
(380,804,l),
(380,670,l),
(1438,670,l),
(1438,804,l)
);
}
);
width = 1770;
}
);
unicode = (12620,65468);
}
{
glyphname = "phieuphCompa-ko";
layers = (
{
anchors = (
{
name = _symbol;
pos = (886,708);
}
);
layerId = "B1F27B51-9973-4381-9301-4FE46FE1CA59";
shapes = (
{
closed = 1;
nodes = (
(344,1148,l),
(344,1100,l),
(1456,1100,l),
(1456,1148,l)
);
},
{
closed = 1;
nodes = (
(316,316,l),
(316,270,l),
(1486,270,l),
(1486,316,l)
);
},
{
closed = 1;
nodes = (
(636,1118,l),
(636,296,l),
(684,296,l),
(684,1118,l)
);
},
{
closed = 1;
nodes = (
(1114,1118,l),
(1114,296,l),
(1162,296,l),
(1162,1118,l)
);
}
);
width = 1770;
},
{
anchors = (
{
name = _symbol;
pos = (886,740);
}
);
layerId = "5C20EF92-B63D-42A8-8878-93C2863E0093";
shapes = (
{
closed = 1;
nodes = (
(276,1266,l),
(276,1002,l),
(1496,1002,l),
(1496,1266,l)
);
},
{
closed = 1;
nodes = (
(248,476,l),
(248,214,l),
(1524,214,l),
(1524,476,l)
);
},
{
closed = 1;
nodes = (
(422,1052,l),
(422,372,l),
(752,372,l),
(752,1052,l)
);
},
{
closed = 1;
nodes = (
(1028,1052,l),
(1028,372,l),
(1360,372,l),
(1360,1052,l)
);
}
);
width = 1770;
},
{
anchors = (
{
name = _symbol;
pos = (886,720);
}
);
layerId = "CD0E3B44-F66A-4791-B84C-A1128DC61275";
shapes = (
{
closed = 1;
nodes = (
(316,1194,l),
(316,1064,l),
(1472,1064,l),
(1472,1194,l)
);
},
{
closed = 1;
nodes = (
(292,378,l),
(292,248,l),
(1500,248,l),
(1500,378,l)
);
},
{
closed = 1;
nodes = (
(554,1092,l),
(554,326,l),
(712,326,l),
(712,1092,l)
);
},
{
closed = 1;
nodes = (
(1080,1092,l),
(1080,326,l),
(1238,326,l),
(1238,1092,l)
);
}
);
width = 1770;
}
);
unicode = (12621,65469);
}
{
glyphname = "hieuhCompa-ko";
layers = (
{
anchors = (
{
name = _symbol;
pos = (886,718);
}
);
layerId = "B1F27B51-9973-4381-9301-4FE46FE1CA59";
shapes = (
{
closed = 1;
nodes = (
(322,982,l),
(322,938,l),
(1482,938,l),
(1482,982,l)
);
},
{
closed = 1;
nodes = (
(672,774,o),
(504,654,o),
(504,486,cs),
(504,316,o),
(672,196,o),
(900,196,cs),
(1128,196,o),
(1292,316,o),
(1294,486,cs),
(1292,654,o),
(1128,774,o),
(900,776,cs)
);
},
{
closed = 1;
nodes = (
(1096,730,o),
(1246,618,o),
(1248,486,cs),
(1246,350,o),
(1096,240,o),
(900,240,cs),
(702,240,o),
(554,350,o),
(554,486,cs),
(554,618,o),
(702,730,o),
(900,732,cs)
);
},
{
closed = 1;
nodes = (
(876,1238,l),
(876,958,l),
(924,958,l),
(924,1238,l)
);
}
);
width = 1770;
},
{
anchors = (
{
name = _symbol;
pos = (886,782);
}
);
layerId = "5C20EF92-B63D-42A8-8878-93C2863E0093";
shapes = (
{
closed = 1;
nodes = (
(270,1224,l),
(270,956,l),
(1504,956,l),
(1504,1224,l)
);
},
{
closed = 1;
nodes = (
(598,886,o),
(384,728,o),
(384,508,cs),
(384,286,o),
(598,128,o),
(890,128,cs),
(1184,128,o),
(1400,286,o),
(1402,508,cs),
(1400,728,o),
(1184,886,o),
(890,886,cs)
);
},
{
closed = 1;
nodes = (
(990,612,o),
(1060,584,o),
(1060,508,cs),
(1060,430,o),
(990,404,o),
(890,402,cs),
(794,404,o),
(722,430,o),
(722,508,cs),
(722,584,o),
(794,612,o),
(890,612,cs)
);
},
{
closed = 1;
nodes = (
(728,1436,l),
(728,982,l),
(1058,982,l),
(1058,1436,l)
);
}
);
width = 1770;
},
{
anchors = (
{
name = _symbol;
pos = (886,742);
}
);
layerId = "CD0E3B44-F66A-4791-B84C-A1128DC61275";
shapes = (
{
closed = 1;
nodes = (
(300,1076,l),
(300,944,l),
(1490,944,l),
(1490,1076,l)
);
},
{
closed = 1;
nodes = (
(642,818,o),
(456,684,o),
(458,496,cs),
(456,306,o),
(642,170,o),
(896,170,cs),
(1150,170,o),
(1334,306,o),
(1336,496,cs),
(1334,684,o),
(1150,818,o),
(896,818,cs)
);
},
{
closed = 1;
nodes = (
(1056,686,o),
(1174,606,o),
(1174,496,cs),
(1174,382,o),
(1056,302,o),
(896,302,cs),
(738,302,o),
(618,382,o),
(620,496,cs),
(618,606,o),
(738,686,o),
(896,684,cs)
);
},
{
closed = 1;
nodes = (
(818,1316,l),
(818,966,l),
(976,966,l),
(976,1316,l)
);
}
);
width = 1770;
}
);
unicode = (12622,65470);
}
